<svg width="20" height="15" viewBox="0 0 20 15" fill="none" xmlns="http://www.w3.org/2000/svg">
<path fill-rule="evenodd" clip-rule="evenodd" d="M1 0.5C0.44772 0.5 0 0.94772 0 1.5C0 2.05228 0.44772 2.5 1 2.5H19C19.5523 2.5 20 2.05228 20 1.5C20 0.94772 19.5523 0.5 19 0.5H1ZM0 7.5C0 6.9477 0.44772 6.5 1 6.5H19C19.5523 6.5 20 6.9477 20 7.5C20 8.0523 19.5523 8.5 19 8.5H1C0.44772 8.5 0 8.0523 0 7.5ZM0 13.5C0 12.9477 0.44772 12.5 1 12.5H19C19.5523 12.5 20 12.9477 20 13.5C20 14.0523 19.5523 14.5 19 14.5H1C0.44772 14.5 0 14.0523 0 13.5Z" fill="white"/>
</svg>
