<svg width="99" height="19" viewBox="0 0 99 19" fill="none" xmlns="http://www.w3.org/2000/svg">
<g id="&#226;&#147;&#146; 2005-2023 &#208;&#158;&#208;&#158;&#208;&#158; &#226;&#128;&#156;&#208;&#154;&#208;&#148;&#208;&#155;&#226;&#128;&#157; &#208;&#146;&#209;&#129;&#208;&#181; &#208;&#191;&#209;&#128;&#208;&#176;&#208;&#178;&#208;&#176; &#208;&#183;&#208;&#176;&#209;&#137;&#208;&#184;&#209;&#137;&#208;&#181;&#208;&#189;&#209;&#139;.">
<path d="M4.21598 5.48002C3.83198 5.48002 3.53331 5.36269 3.31998 5.12802C3.10665 4.89336 2.99998 4.56802 2.99998 4.15202C2.99998 3.72536 3.10931 3.39736 3.32798 3.16802C3.55198 2.93336 3.85865 2.81602 4.24798 2.81602C4.37598 2.81602 4.49865 2.82936 4.61598 2.85602C4.73865 2.87736 4.85865 2.91469 4.97598 2.96802L4.83998 3.36802C4.73865 3.32536 4.63731 3.29336 4.53598 3.27202C4.43998 3.25069 4.34131 3.24002 4.23998 3.24002C4.00531 3.24002 3.82665 3.31736 3.70398 3.47202C3.58665 3.62136 3.52798 3.84802 3.52798 4.15202C3.52798 4.44002 3.58665 4.66402 3.70398 4.82402C3.82131 4.97869 3.99198 5.05602 4.21598 5.05602C4.32265 5.05602 4.43465 5.04269 4.55198 5.01602C4.67465 4.98402 4.80265 4.94136 4.93598 4.88802V5.32002C4.80798 5.37336 4.68531 5.41336 4.56798 5.44002C4.45065 5.46669 4.33331 5.48002 4.21598 5.48002ZM3.99998 7.44002C3.54665 7.44002 3.11998 7.35469 2.71998 7.18402C2.31998 7.01336 1.96798 6.77869 1.66398 6.48002C1.36531 6.17602 1.13065 5.82402 0.959979 5.42402C0.789313 5.02402 0.703979 4.59736 0.703979 4.14402C0.703979 3.68536 0.789313 3.25869 0.959979 2.86402C1.13065 2.46402 1.36531 2.11469 1.66398 1.81602C1.96798 1.51202 2.31998 1.27469 2.71998 1.10402C3.11998 0.933356 3.54665 0.848022 3.99998 0.848022C4.45865 0.848022 4.88531 0.933356 5.27998 1.10402C5.67998 1.27469 6.02931 1.51202 6.32798 1.81602C6.63198 2.11469 6.86931 2.46402 7.03998 2.86402C7.21065 3.25869 7.29598 3.68536 7.29598 4.14402C7.29598 4.59736 7.21065 5.02402 7.03998 5.42402C6.86931 5.82402 6.63198 6.17602 6.32798 6.48002C6.02931 6.77869 5.67998 7.01336 5.27998 7.18402C4.88531 7.35469 4.45865 7.44002 3.99998 7.44002ZM3.99998 6.99202C4.39465 6.99202 4.76265 6.92002 5.10398 6.77602C5.45065 6.62669 5.75465 6.42136 6.01598 6.16002C6.27731 5.89869 6.47998 5.59736 6.62398 5.25602C6.77331 4.90936 6.84798 4.53869 6.84798 4.14402C6.84798 3.74936 6.77331 3.38136 6.62398 3.04002C6.47998 2.69336 6.27731 2.38936 6.01598 2.12802C5.75465 1.86669 5.45065 1.66402 5.10398 1.52002C4.76265 1.37069 4.39465 1.29602 3.99998 1.29602C3.60531 1.29602 3.23465 1.37069 2.88798 1.52002C2.54665 1.66402 2.24531 1.86669 1.98398 2.12802C1.72265 2.38936 1.51731 2.69336 1.36798 3.04002C1.22398 3.38136 1.15198 3.74936 1.15198 4.14402C1.15198 4.53869 1.22398 4.90936 1.36798 5.25602C1.51731 5.59736 1.72265 5.89869 1.98398 6.16002C2.24531 6.42136 2.54665 6.62669 2.88798 6.77602C3.23465 6.92002 3.60531 6.99202 3.99998 6.99202Z" fill="white"/>
<path d="M10.8523 7.00002V6.48866L12.7727 4.38639C12.9981 4.14017 13.1837 3.92616 13.3295 3.74434C13.4754 3.56063 13.5833 3.38828 13.6534 3.2273C13.7254 3.06442 13.7613 2.89396 13.7613 2.71593C13.7613 2.51139 13.7121 2.3343 13.6136 2.18468C13.517 2.03506 13.3844 1.91953 13.2159 1.83809C13.0473 1.75665 12.8579 1.71593 12.6477 1.71593C12.4242 1.71593 12.2291 1.76233 12.0625 1.85514C11.8977 1.94605 11.7699 2.07389 11.679 2.23866C11.5899 2.40343 11.5454 2.59661 11.5454 2.8182H10.875C10.875 2.4773 10.9536 2.17805 11.1108 1.92048C11.268 1.6629 11.482 1.46214 11.7528 1.3182C12.0255 1.17427 12.3314 1.1023 12.6704 1.1023C13.0113 1.1023 13.3134 1.17427 13.5767 1.3182C13.8399 1.46214 14.0464 1.65627 14.196 1.90059C14.3456 2.14491 14.4204 2.41669 14.4204 2.71593C14.4204 2.92995 14.3816 3.13923 14.304 3.34377C14.2282 3.54642 14.0956 3.77275 13.9062 4.02275C13.7187 4.27086 13.4583 4.57389 13.125 4.93184L11.8182 6.32957V6.37502H14.5227V7.00002H10.8523Z" fill="white"/>
<path d="M17.5937 7.07957C17.1657 7.07957 16.8011 6.96309 16.5 6.73014C16.1988 6.49529 15.9687 6.15533 15.8096 5.71025C15.6505 5.26328 15.571 4.72351 15.571 4.09093C15.571 3.46214 15.6505 2.92521 15.8096 2.48014C15.9706 2.03317 16.2017 1.69226 16.5028 1.45741C16.8059 1.22067 17.1695 1.1023 17.5937 1.1023C18.018 1.1023 18.3807 1.22067 18.6818 1.45741C18.9848 1.69226 19.2159 2.03317 19.375 2.48014C19.536 2.92521 19.6165 3.46214 19.6165 4.09093C19.6165 4.72351 19.5369 5.26328 19.3778 5.71025C19.2187 6.15533 18.9886 6.49529 18.6875 6.73014C18.3863 6.96309 18.0218 7.07957 17.5937 7.07957ZM17.5937 6.45457C18.018 6.45457 18.3475 6.25002 18.5824 5.84093C18.8172 5.43184 18.9346 4.84851 18.9346 4.09093C18.9346 3.58714 18.8807 3.15817 18.7727 2.804C18.6666 2.44983 18.5132 2.17995 18.3125 1.99434C18.1136 1.80873 17.874 1.71593 17.5937 1.71593C17.1733 1.71593 16.8447 1.92332 16.6079 2.33809C16.3712 2.75097 16.2528 3.33525 16.2528 4.09093C16.2528 4.59472 16.3059 5.02275 16.4119 5.37502C16.518 5.7273 16.6704 5.99529 16.8693 6.179C17.0701 6.36271 17.3115 6.45457 17.5937 6.45457Z" fill="white"/>
<path d="M22.5937 7.07957C22.1657 7.07957 21.8011 6.96309 21.5 6.73014C21.1988 6.49529 20.9687 6.15533 20.8096 5.71025C20.6505 5.26328 20.571 4.72351 20.571 4.09093C20.571 3.46214 20.6505 2.92521 20.8096 2.48014C20.9706 2.03317 21.2017 1.69226 21.5028 1.45741C21.8059 1.22067 22.1695 1.1023 22.5937 1.1023C23.018 1.1023 23.3807 1.22067 23.6818 1.45741C23.9848 1.69226 24.2159 2.03317 24.375 2.48014C24.536 2.92521 24.6165 3.46214 24.6165 4.09093C24.6165 4.72351 24.5369 5.26328 24.3778 5.71025C24.2187 6.15533 23.9886 6.49529 23.6875 6.73014C23.3863 6.96309 23.0218 7.07957 22.5937 7.07957ZM22.5937 6.45457C23.018 6.45457 23.3475 6.25002 23.5824 5.84093C23.8172 5.43184 23.9346 4.84851 23.9346 4.09093C23.9346 3.58714 23.8807 3.15817 23.7727 2.804C23.6666 2.44983 23.5132 2.17995 23.3125 1.99434C23.1136 1.80873 22.874 1.71593 22.5937 1.71593C22.1733 1.71593 21.8447 1.92332 21.6079 2.33809C21.3712 2.75097 21.2528 3.33525 21.2528 4.09093C21.2528 4.59472 21.3059 5.02275 21.4119 5.37502C21.518 5.7273 21.6704 5.99529 21.8693 6.179C22.0701 6.36271 22.3115 6.45457 22.5937 6.45457Z" fill="white"/>
<path d="M27.5142 7.07957C27.1808 7.07957 26.8807 7.01328 26.6136 6.8807C26.3466 6.74813 26.1326 6.56631 25.9716 6.33525C25.8106 6.10419 25.7225 5.84093 25.7074 5.54548H26.3892C26.4157 5.80873 26.535 6.02654 26.7471 6.19889C26.9612 6.36934 27.2168 6.45457 27.5142 6.45457C27.7528 6.45457 27.9649 6.3987 28.1505 6.28695C28.338 6.17521 28.4848 6.0218 28.5909 5.82673C28.6988 5.62976 28.7528 5.40722 28.7528 5.15911C28.7528 4.90533 28.6969 4.679 28.5852 4.48014C28.4754 4.27938 28.3238 4.12123 28.1307 4.0057C27.9375 3.89017 27.7168 3.83146 27.4687 3.82957C27.2907 3.82767 27.1079 3.85514 26.9204 3.91195C26.7329 3.96688 26.5786 4.0379 26.4574 4.12502L25.7983 4.04548L26.1505 1.18184H29.1733V1.80684H26.7415L26.5369 3.52275H26.571C26.6903 3.42805 26.8399 3.34945 27.0199 3.28695C27.1998 3.22445 27.3873 3.1932 27.5824 3.1932C27.9384 3.1932 28.2557 3.27843 28.5341 3.44889C28.8144 3.61745 29.0341 3.84851 29.1932 4.14207C29.3541 4.43563 29.4346 4.77086 29.4346 5.14775C29.4346 5.51896 29.3513 5.8504 29.1846 6.14207C29.0199 6.43184 28.7926 6.66101 28.5028 6.82957C28.213 6.99623 27.8835 7.07957 27.5142 7.07957Z" fill="white"/>
<path d="M33.0746 3.77843V4.40343H30.5291V3.77843H33.0746Z" fill="white"/>
<path d="M33.9694 7.00002V6.48866L35.8899 4.38639C36.1153 4.14017 36.3009 3.92616 36.4467 3.74434C36.5925 3.56063 36.7005 3.38828 36.7706 3.2273C36.8425 3.06442 36.8785 2.89396 36.8785 2.71593C36.8785 2.51139 36.8293 2.3343 36.7308 2.18468C36.6342 2.03506 36.5016 1.91953 36.3331 1.83809C36.1645 1.75665 35.9751 1.71593 35.7649 1.71593C35.5414 1.71593 35.3463 1.76233 35.1797 1.85514C35.0149 1.94605 34.8871 2.07389 34.7961 2.23866C34.7071 2.40343 34.6626 2.59661 34.6626 2.8182H33.9922C33.9922 2.4773 34.0708 2.17805 34.228 1.92048C34.3852 1.6629 34.5992 1.46214 34.87 1.3182C35.1427 1.17427 35.4486 1.1023 35.7876 1.1023C36.1285 1.1023 36.4306 1.17427 36.6939 1.3182C36.9571 1.46214 37.1636 1.65627 37.3132 1.90059C37.4628 2.14491 37.5376 2.41669 37.5376 2.71593C37.5376 2.92995 37.4988 3.13923 37.4211 3.34377C37.3454 3.54642 37.2128 3.77275 37.0234 4.02275C36.8359 4.27086 36.5755 4.57389 36.2422 4.93184L34.9353 6.32957V6.37502H37.6399V7.00002H33.9694Z" fill="white"/>
<path d="M40.7109 7.07957C40.2829 7.07957 39.9183 6.96309 39.6172 6.73014C39.316 6.49529 39.0859 6.15533 38.9268 5.71025C38.7677 5.26328 38.6882 4.72351 38.6882 4.09093C38.6882 3.46214 38.7677 2.92521 38.9268 2.48014C39.0878 2.03317 39.3189 1.69226 39.62 1.45741C39.923 1.22067 40.2867 1.1023 40.7109 1.1023C41.1352 1.1023 41.4978 1.22067 41.799 1.45741C42.102 1.69226 42.3331 2.03317 42.4922 2.48014C42.6532 2.92521 42.7336 3.46214 42.7336 4.09093C42.7336 4.72351 42.6541 5.26328 42.495 5.71025C42.3359 6.15533 42.1058 6.49529 41.8047 6.73014C41.5035 6.96309 41.139 7.07957 40.7109 7.07957ZM40.7109 6.45457C41.1352 6.45457 41.4647 6.25002 41.6996 5.84093C41.9344 5.43184 42.0518 4.84851 42.0518 4.09093C42.0518 3.58714 41.9978 3.15817 41.8899 2.804C41.7838 2.44983 41.6304 2.17995 41.4297 1.99434C41.2308 1.80873 40.9912 1.71593 40.7109 1.71593C40.2905 1.71593 39.9619 1.92332 39.7251 2.33809C39.4884 2.75097 39.37 3.33525 39.37 4.09093C39.37 4.59472 39.423 5.02275 39.5291 5.37502C39.6352 5.7273 39.7876 5.99529 39.9865 6.179C40.1872 6.36271 40.4287 6.45457 40.7109 6.45457Z" fill="white"/>
<path d="M43.8132 7.00002V6.48866L45.7336 4.38639C45.959 4.14017 46.1446 3.92616 46.2905 3.74434C46.4363 3.56063 46.5443 3.38828 46.6143 3.2273C46.6863 3.06442 46.7223 2.89396 46.7223 2.71593C46.7223 2.51139 46.673 2.3343 46.5746 2.18468C46.478 2.03506 46.3454 1.91953 46.1768 1.83809C46.0083 1.75665 45.8189 1.71593 45.6086 1.71593C45.3852 1.71593 45.1901 1.76233 45.0234 1.85514C44.8586 1.94605 44.7308 2.07389 44.6399 2.23866C44.5509 2.40343 44.5064 2.59661 44.5064 2.8182H43.8359C43.8359 2.4773 43.9145 2.17805 44.0717 1.92048C44.2289 1.6629 44.4429 1.46214 44.7138 1.3182C44.9865 1.17427 45.2924 1.1023 45.6314 1.1023C45.9723 1.1023 46.2744 1.17427 46.5376 1.3182C46.8009 1.46214 47.0073 1.65627 47.1569 1.90059C47.3066 2.14491 47.3814 2.41669 47.3814 2.71593C47.3814 2.92995 47.3425 3.13923 47.2649 3.34377C47.1891 3.54642 47.0566 3.77275 46.8672 4.02275C46.6797 4.27086 46.4193 4.57389 46.0859 4.93184L44.7791 6.32957V6.37502H47.4836V7.00002H43.8132Z" fill="white"/>
<path d="M50.6228 7.07957C50.2478 7.07957 49.9136 7.01517 49.62 6.88639C49.3283 6.7576 49.0963 6.57862 48.924 6.34945C48.7535 6.11839 48.6607 5.8504 48.6456 5.54548H49.3615C49.3766 5.73298 49.441 5.89491 49.5547 6.03127C49.6683 6.16574 49.817 6.26991 50.0007 6.34377C50.1844 6.41764 50.388 6.45457 50.6115 6.45457C50.8615 6.45457 51.0831 6.41101 51.2763 6.32389C51.4694 6.23677 51.621 6.11555 51.7308 5.96025C51.8407 5.80495 51.8956 5.62502 51.8956 5.42048C51.8956 5.20646 51.8425 5.01802 51.7365 4.85514C51.6304 4.69036 51.4751 4.56158 51.2706 4.46877C51.066 4.37597 50.816 4.32957 50.5206 4.32957H50.0547V3.70457H50.5206C50.7516 3.70457 50.9543 3.6629 51.1285 3.57957C51.3047 3.49623 51.442 3.37881 51.5405 3.2273C51.6408 3.07578 51.691 2.89775 51.691 2.6932C51.691 2.49623 51.6475 2.32483 51.5603 2.179C51.4732 2.03317 51.3501 1.91953 51.191 1.83809C51.0338 1.75665 50.8482 1.71593 50.6342 1.71593C50.4335 1.71593 50.2441 1.75286 50.066 1.82673C49.8899 1.8987 49.746 2.00381 49.6342 2.14207C49.5225 2.27843 49.4619 2.4432 49.4524 2.63639H48.7706C48.7819 2.33146 48.8738 2.06442 49.0461 1.83525C49.2185 1.60419 49.4439 1.42427 49.7223 1.29548C50.0026 1.16669 50.3103 1.1023 50.6456 1.1023C51.0054 1.1023 51.3141 1.17521 51.5717 1.32105C51.8293 1.46498 52.0272 1.65533 52.1655 1.89207C52.3037 2.12881 52.3728 2.38449 52.3728 2.65911C52.3728 2.98677 52.2867 3.26612 52.1143 3.49718C51.9439 3.72824 51.7119 3.88828 51.4183 3.9773V4.02275C51.7857 4.08336 52.0727 4.23961 52.2791 4.4915C52.4855 4.7415 52.5888 5.05116 52.5888 5.42048C52.5888 5.73677 52.5026 6.02086 52.3302 6.27275C52.1598 6.52275 51.9268 6.71972 51.6314 6.86366C51.3359 7.0076 50.9997 7.07957 50.6228 7.07957Z" fill="white"/>
<path d="M61.0121 4.09093C61.0121 4.70457 60.9013 5.23487 60.6797 5.68184C60.4581 6.12881 60.1541 6.47351 59.7677 6.71593C59.3814 6.95836 58.9401 7.07957 58.4439 7.07957C57.9477 7.07957 57.5064 6.95836 57.12 6.71593C56.7336 6.47351 56.4297 6.12881 56.2081 5.68184C55.9865 5.23487 55.8757 4.70457 55.8757 4.09093C55.8757 3.4773 55.9865 2.94699 56.2081 2.50002C56.4297 2.05305 56.7336 1.70836 57.12 1.46593C57.5064 1.22351 57.9477 1.1023 58.4439 1.1023C58.9401 1.1023 59.3814 1.22351 59.7677 1.46593C60.1541 1.70836 60.4581 2.05305 60.6797 2.50002C60.9013 2.94699 61.0121 3.4773 61.0121 4.09093ZM60.3302 4.09093C60.3302 3.58714 60.246 3.16195 60.0774 2.81536C59.9107 2.46877 59.6844 2.20646 59.3984 2.02843C59.1143 1.8504 58.7961 1.76139 58.4439 1.76139C58.0916 1.76139 57.7725 1.8504 57.4865 2.02843C57.2024 2.20646 56.9761 2.46877 56.8075 2.81536C56.6408 3.16195 56.5575 3.58714 56.5575 4.09093C56.5575 4.59472 56.6408 5.01991 56.8075 5.3665C56.9761 5.71309 57.2024 5.9754 57.4865 6.15343C57.7725 6.33146 58.0916 6.42048 58.4439 6.42048C58.7961 6.42048 59.1143 6.33146 59.3984 6.15343C59.6844 5.9754 59.9107 5.71309 60.0774 5.3665C60.246 5.01991 60.3302 4.59472 60.3302 4.09093Z" fill="white"/>
<path d="M67.1058 4.09093C67.1058 4.70457 66.995 5.23487 66.7734 5.68184C66.5518 6.12881 66.2478 6.47351 65.8615 6.71593C65.4751 6.95836 65.0338 7.07957 64.5376 7.07957C64.0414 7.07957 63.6001 6.95836 63.2138 6.71593C62.8274 6.47351 62.5234 6.12881 62.3018 5.68184C62.0802 5.23487 61.9694 4.70457 61.9694 4.09093C61.9694 3.4773 62.0802 2.94699 62.3018 2.50002C62.5234 2.05305 62.8274 1.70836 63.2138 1.46593C63.6001 1.22351 64.0414 1.1023 64.5376 1.1023C65.0338 1.1023 65.4751 1.22351 65.8615 1.46593C66.2478 1.70836 66.5518 2.05305 66.7734 2.50002C66.995 2.94699 67.1058 3.4773 67.1058 4.09093ZM66.424 4.09093C66.424 3.58714 66.3397 3.16195 66.1711 2.81536C66.0045 2.46877 65.7782 2.20646 65.4922 2.02843C65.2081 1.8504 64.8899 1.76139 64.5376 1.76139C64.1853 1.76139 63.8662 1.8504 63.5802 2.02843C63.2961 2.20646 63.0698 2.46877 62.9013 2.81536C62.7346 3.16195 62.6513 3.58714 62.6513 4.09093C62.6513 4.59472 62.7346 5.01991 62.9013 5.3665C63.0698 5.71309 63.2961 5.9754 63.5802 6.15343C63.8662 6.33146 64.1853 6.42048 64.5376 6.42048C64.8899 6.42048 65.2081 6.33146 65.4922 6.15343C65.7782 5.9754 66.0045 5.71309 66.1711 5.3665C66.3397 5.01991 66.424 4.59472 66.424 4.09093Z" fill="white"/>
<path d="M73.1996 4.09093C73.1996 4.70457 73.0888 5.23487 72.8672 5.68184C72.6456 6.12881 72.3416 6.47351 71.9552 6.71593C71.5689 6.95836 71.1276 7.07957 70.6314 7.07957C70.1352 7.07957 69.6939 6.95836 69.3075 6.71593C68.9212 6.47351 68.6172 6.12881 68.3956 5.68184C68.174 5.23487 68.0632 4.70457 68.0632 4.09093C68.0632 3.4773 68.174 2.94699 68.3956 2.50002C68.6172 2.05305 68.9212 1.70836 69.3075 1.46593C69.6939 1.22351 70.1352 1.1023 70.6314 1.1023C71.1276 1.1023 71.5689 1.22351 71.9552 1.46593C72.3416 1.70836 72.6456 2.05305 72.8672 2.50002C73.0888 2.94699 73.1996 3.4773 73.1996 4.09093ZM72.5177 4.09093C72.5177 3.58714 72.4335 3.16195 72.2649 2.81536C72.0982 2.46877 71.8719 2.20646 71.5859 2.02843C71.3018 1.8504 70.9836 1.76139 70.6314 1.76139C70.2791 1.76139 69.96 1.8504 69.674 2.02843C69.3899 2.20646 69.1636 2.46877 68.995 2.81536C68.8283 3.16195 68.745 3.58714 68.745 4.09093C68.745 4.59472 68.8283 5.01991 68.995 5.3665C69.1636 5.71309 69.3899 5.9754 69.674 6.15343C69.96 6.33146 70.2791 6.42048 70.6314 6.42048C70.9836 6.42048 71.3018 6.33146 71.5859 6.15343C71.8719 5.9754 72.0982 5.71309 72.2649 5.3665C72.4335 5.01991 72.5177 4.59472 72.5177 4.09093Z" fill="white"/>
<path d="M76.316 3.00002V2.48866C76.316 2.33336 76.3435 2.16858 76.3984 1.99434C76.4552 1.8182 76.5367 1.6487 76.6427 1.48582C76.7507 1.32105 76.8804 1.17805 77.0319 1.05684L77.3956 1.3523C77.2763 1.52275 77.1721 1.70078 77.0831 1.88639C76.996 2.0701 76.9524 2.26707 76.9524 2.4773V3.00002H76.316ZM77.7706 3.00002V2.48866C77.7706 2.33336 77.798 2.16858 77.853 1.99434C77.9098 1.8182 77.9912 1.6487 78.0973 1.48582C78.2052 1.32105 78.335 1.17805 78.4865 1.05684L78.8501 1.3523C78.7308 1.52275 78.6266 1.70078 78.5376 1.88639C78.4505 2.0701 78.4069 2.26707 78.4069 2.4773V3.00002H77.7706Z" fill="white"/>
<path d="M83.1015 7.00002L81.1015 4.32957H80.3856V7.00002H79.6811V1.18184H80.3856V3.70457H80.6925L83.022 1.18184H83.8629L81.5106 3.73866L83.9425 7.00002H83.1015Z" fill="white"/>
<path d="M84.353 8.40911V6.37502H84.728C84.8567 6.2576 84.978 6.09188 85.0916 5.87786C85.2071 5.66195 85.3047 5.37408 85.3842 5.01423C85.4656 4.65248 85.5196 4.1932 85.5461 3.63639L85.6711 1.18184H89.1257V6.37502H89.7961V8.39775H89.1257V7.00002H85.0234V8.40911H84.353ZM85.5689 6.37502H88.4552V1.80684H86.3075L86.2166 3.63639C86.1939 4.06063 86.1541 4.4451 86.0973 4.7898C86.0405 5.1326 85.9675 5.43658 85.8785 5.70173C85.7895 5.96498 85.6863 6.18942 85.5689 6.37502Z" fill="white"/>
<path d="M90.3608 7.00002V6.3523H90.5312C90.7737 6.3523 90.9621 6.27464 91.0966 6.11934C91.231 5.96404 91.3276 5.71309 91.3863 5.3665C91.447 5.01991 91.4877 4.56063 91.5085 3.98866L91.6108 1.18184H95.1562V7.00002H94.4517V1.80684H92.2812L92.1903 4.12502C92.1676 4.73487 92.1117 5.25381 92.0227 5.68184C91.9337 6.10987 91.7774 6.43658 91.554 6.66195C91.3305 6.88733 91.0047 7.00002 90.5767 7.00002H90.3608Z" fill="white"/>
<path d="M97.0639 1.18184V1.6932C97.0639 1.84851 97.0355 2.01423 96.9787 2.19036C96.9238 2.36461 96.8423 2.53411 96.7344 2.69889C96.6283 2.86177 96.4995 3.00381 96.348 3.12502L95.9844 2.82957C96.1037 2.65911 96.2069 2.48203 96.294 2.29832C96.383 2.11271 96.4275 1.9148 96.4275 1.70457V1.18184H97.0639ZM98.5184 1.18184V1.6932C98.5184 1.84851 98.49 2.01423 98.4332 2.19036C98.3783 2.36461 98.2969 2.53411 98.1889 2.69889C98.0828 2.86177 97.954 3.00381 97.8025 3.12502L97.4389 2.82957C97.5582 2.65911 97.6614 2.48203 97.7486 2.29832C97.8376 2.11271 97.8821 1.9148 97.8821 1.70457V1.18184H98.5184Z" fill="white"/>
<path d="M0.704525 17V11.1818H2.73862C3.14392 11.1818 3.4782 11.2519 3.74146 11.3921C4.00471 11.5303 4.20074 11.7169 4.32952 11.9517C4.45831 12.1847 4.52271 12.4432 4.52271 12.7273C4.52271 12.9773 4.4782 13.1837 4.38918 13.3466C4.30206 13.5095 4.18653 13.6383 4.04259 13.733C3.90055 13.8277 3.74619 13.8978 3.57952 13.9432V14C3.75756 14.0114 3.93653 14.0739 4.11646 14.1875C4.29638 14.3012 4.44695 14.464 4.56816 14.6762C4.68937 14.8883 4.74998 15.1477 4.74998 15.4546C4.74998 15.7462 4.68369 16.0085 4.55112 16.2415C4.41854 16.4745 4.20926 16.6591 3.92327 16.7955C3.63729 16.9318 3.26513 17 2.8068 17H0.704525ZM1.40907 16.375H2.8068C3.26702 16.375 3.59373 16.286 3.78691 16.108C3.98199 15.9281 4.07952 15.7102 4.07952 15.4546C4.07952 15.2576 4.02934 15.0758 3.92896 14.9091C3.82858 14.7406 3.68559 14.6061 3.49998 14.5057C3.31437 14.4034 3.09468 14.3523 2.84089 14.3523H1.40907V16.375ZM1.40907 13.7387H2.71589C2.92801 13.7387 3.1193 13.697 3.28975 13.6137C3.4621 13.5303 3.59846 13.4129 3.69884 13.2614C3.80112 13.1099 3.85225 12.9318 3.85225 12.7273C3.85225 12.4716 3.76324 12.2548 3.58521 12.0767C3.40718 11.8968 3.12498 11.8068 2.73862 11.8068H1.40907V13.7387Z" fill="white"/>
<path d="M7.58947 17.0909C7.18038 17.0909 6.8281 16.9943 6.53265 16.8012C6.2372 16.608 6.00992 16.3419 5.85083 16.0029C5.69174 15.6638 5.6122 15.2765 5.6122 14.8409C5.6122 14.3977 5.69363 14.0067 5.85651 13.6676C6.02129 13.3267 6.25045 13.0606 6.54401 12.8693C6.83947 12.6762 7.18417 12.5796 7.5781 12.5796C7.88492 12.5796 8.16144 12.6364 8.40765 12.75C8.65386 12.8637 8.85557 13.0227 9.01276 13.2273C9.16996 13.4318 9.2675 13.6705 9.30538 13.9432H8.63492C8.58379 13.7443 8.47015 13.5682 8.29401 13.4148C8.11977 13.2595 7.88492 13.1818 7.58947 13.1818C7.3281 13.1818 7.09894 13.25 6.90197 13.3864C6.70689 13.5209 6.55443 13.7112 6.44458 13.9574C6.33663 14.2017 6.28265 14.4887 6.28265 14.8182C6.28265 15.1553 6.33568 15.4489 6.44174 15.6989C6.5497 15.9489 6.70121 16.143 6.89629 16.2813C7.09326 16.4195 7.32432 16.4887 7.58947 16.4887C7.76371 16.4887 7.92185 16.4584 8.0639 16.3977C8.20595 16.3371 8.32621 16.25 8.4247 16.1364C8.52318 16.0228 8.59326 15.8864 8.63492 15.7273H9.30538C9.2675 15.9849 9.17375 16.2169 9.02413 16.4233C8.8764 16.6279 8.68038 16.7907 8.43606 16.912C8.19363 17.0313 7.91144 17.0909 7.58947 17.0909Z" fill="white"/>
<path d="M12.115 17.0909C11.6946 17.0909 11.3319 16.9981 11.027 16.8125C10.7239 16.625 10.49 16.3637 10.3253 16.0284C10.1624 15.6913 10.0809 15.2993 10.0809 14.8523C10.0809 14.4053 10.1624 14.0114 10.3253 13.6705C10.49 13.3277 10.7192 13.0606 11.0128 12.8693C11.3082 12.6762 11.6529 12.5796 12.0469 12.5796C12.2741 12.5796 12.4986 12.6174 12.7201 12.6932C12.9417 12.769 13.1434 12.8921 13.3253 13.0625C13.5071 13.2311 13.652 13.4546 13.7599 13.733C13.8679 14.0114 13.9219 14.3542 13.9219 14.7614V15.0455H10.5582V14.4659H13.24C13.24 14.2197 13.1908 14 13.0923 13.8068C12.9957 13.6137 12.8575 13.4612 12.6775 13.3495C12.4995 13.2377 12.2893 13.1818 12.0469 13.1818C11.7798 13.1818 11.5487 13.2481 11.3537 13.3807C11.1605 13.5114 11.0118 13.6818 10.9076 13.8921C10.8035 14.1023 10.7514 14.3277 10.7514 14.5682V14.9546C10.7514 15.2841 10.8082 15.5635 10.9219 15.7926C11.0374 16.0199 11.1974 16.1932 11.402 16.3125C11.6065 16.4299 11.8442 16.4887 12.115 16.4887C12.2912 16.4887 12.4503 16.464 12.5923 16.4148C12.7362 16.3637 12.8603 16.2879 12.9645 16.1875C13.0686 16.0852 13.1491 15.9584 13.2059 15.8068L13.8537 15.9887C13.7855 16.2084 13.6709 16.4015 13.5099 16.5682C13.3489 16.733 13.1501 16.8618 12.9133 16.9546C12.6766 17.0455 12.4105 17.0909 12.115 17.0909Z" fill="white"/>
<path d="M17.1917 17V12.6364H20.6236V17H19.9531V13.2614H17.8622V17H17.1917Z" fill="white"/>
<path d="M21.848 18.6364V12.6364H22.4957V13.3296H22.5753C22.6245 13.2538 22.6927 13.1572 22.7798 13.0398C22.8688 12.9205 22.9957 12.8144 23.1605 12.7216C23.3272 12.6269 23.5525 12.5796 23.8366 12.5796C24.2041 12.5796 24.5279 12.6714 24.8082 12.8551C25.0885 13.0388 25.3073 13.2993 25.4645 13.6364C25.6217 13.9735 25.7003 14.3712 25.7003 14.8296C25.7003 15.2917 25.6217 15.6923 25.4645 16.0313C25.3073 16.3684 25.0895 16.6298 24.8111 16.8154C24.5326 16.9991 24.2116 17.0909 23.848 17.0909C23.5677 17.0909 23.3433 17.0445 23.1747 16.9517C23.0061 16.857 22.8764 16.75 22.7855 16.6307C22.6946 16.5095 22.6245 16.4091 22.5753 16.3296H22.5184V18.6364H21.848ZM22.5071 14.8182C22.5071 15.1478 22.5554 15.4385 22.652 15.6904C22.7486 15.9404 22.8897 16.1364 23.0753 16.2784C23.2609 16.4186 23.4881 16.4887 23.7571 16.4887C24.0374 16.4887 24.2713 16.4148 24.4588 16.2671C24.6482 16.1174 24.7902 15.9167 24.8849 15.6648C24.9815 15.411 25.0298 15.1288 25.0298 14.8182C25.0298 14.5114 24.9825 14.2349 24.8878 13.9887C24.795 13.7406 24.6539 13.5445 24.4645 13.4006C24.277 13.2548 24.0412 13.1818 23.7571 13.1818C23.4844 13.1818 23.2552 13.251 23.0696 13.3892C22.884 13.5256 22.7438 13.7169 22.6491 13.9631C22.5544 14.2074 22.5071 14.4924 22.5071 14.8182Z" fill="white"/>
<path d="M28.0071 17.1023C27.7306 17.1023 27.4796 17.0502 27.2542 16.946C27.0289 16.84 26.8499 16.6875 26.7173 16.4887C26.5847 16.2879 26.5184 16.0455 26.5184 15.7614C26.5184 15.5114 26.5677 15.3087 26.6662 15.1534C26.7647 14.9962 26.8963 14.8731 27.0611 14.7841C27.2258 14.6951 27.4076 14.6288 27.6065 14.5852C27.8073 14.5398 28.009 14.5038 28.2116 14.4773C28.4768 14.4432 28.6917 14.4176 28.8565 14.4006C29.0232 14.3817 29.1444 14.3504 29.2201 14.3068C29.2978 14.2633 29.3366 14.1875 29.3366 14.0796V14.0568C29.3366 13.7765 29.2599 13.5587 29.1065 13.4034C28.955 13.2481 28.7249 13.1705 28.4162 13.1705C28.0961 13.1705 27.8451 13.2406 27.6633 13.3807C27.4815 13.5209 27.3537 13.6705 27.2798 13.8296L26.6434 13.6023C26.7571 13.3371 26.9086 13.1307 27.098 12.983C27.2893 12.8334 27.4976 12.7292 27.723 12.6705C27.9503 12.6099 28.1737 12.5796 28.3934 12.5796C28.5336 12.5796 28.6946 12.5966 28.8764 12.6307C29.0601 12.6629 29.2372 12.7301 29.4076 12.8324C29.58 12.9347 29.723 13.089 29.8366 13.2955C29.9503 13.5019 30.0071 13.7784 30.0071 14.125V17H29.3366V16.4091H29.3025C29.2571 16.5038 29.1813 16.6051 29.0753 16.7131C28.9692 16.821 28.8281 16.9129 28.652 16.9887C28.4758 17.0644 28.2609 17.1023 28.0071 17.1023ZM28.1094 16.5C28.3745 16.5 28.598 16.4479 28.7798 16.3438C28.9635 16.2396 29.1018 16.1051 29.1946 15.9404C29.2893 15.7756 29.3366 15.6023 29.3366 15.4205V14.8068C29.3082 14.8409 29.2457 14.8722 29.1491 14.9006C29.0544 14.9271 28.9446 14.9508 28.8196 14.9716C28.6965 14.9906 28.5762 15.0076 28.4588 15.0227C28.3433 15.036 28.2495 15.0474 28.1775 15.0568C28.0033 15.0796 27.8404 15.1165 27.6889 15.1676C27.5393 15.2169 27.4181 15.2917 27.3253 15.3921C27.2344 15.4906 27.1889 15.625 27.1889 15.7955C27.1889 16.0284 27.2751 16.2046 27.4474 16.3239C27.6217 16.4413 27.8423 16.5 28.1094 16.5Z" fill="white"/>
<path d="M31.2308 17V12.6364H33.0149C33.4846 12.6364 33.8577 12.7424 34.1342 12.9546C34.4107 13.1667 34.549 13.447 34.549 13.7955C34.549 14.0606 34.4704 14.2661 34.3132 14.412C34.156 14.5559 33.9543 14.6534 33.7081 14.7046C33.8691 14.7273 34.0253 14.7841 34.1768 14.875C34.3302 14.9659 34.4571 15.0909 34.5575 15.25C34.6579 15.4072 34.7081 15.6004 34.7081 15.8296C34.7081 16.0531 34.6513 16.2529 34.5376 16.429C34.424 16.6051 34.2611 16.7443 34.049 16.8466C33.8369 16.9489 33.5831 17 33.2876 17H31.2308ZM31.8672 16.3864H33.2876C33.5187 16.3864 33.6996 16.3315 33.8302 16.2216C33.9609 16.1118 34.0263 15.9621 34.0263 15.7727C34.0263 15.5474 33.9609 15.3703 33.8302 15.2415C33.6996 15.1108 33.5187 15.0455 33.2876 15.0455H31.8672V16.3864ZM31.8672 14.4659H33.0149C33.1948 14.4659 33.3492 14.4413 33.478 14.3921C33.6068 14.3409 33.7052 14.269 33.7734 14.1762C33.8435 14.0815 33.8785 13.9697 33.8785 13.8409C33.8785 13.6572 33.8018 13.5133 33.6484 13.4091C33.495 13.3031 33.2838 13.25 33.0149 13.25H31.8672V14.4659Z" fill="white"/>
<path d="M37.0071 17.1023C36.7306 17.1023 36.4796 17.0502 36.2542 16.946C36.0289 16.84 35.8499 16.6875 35.7173 16.4887C35.5847 16.2879 35.5184 16.0455 35.5184 15.7614C35.5184 15.5114 35.5677 15.3087 35.6662 15.1534C35.7647 14.9962 35.8963 14.8731 36.0611 14.7841C36.2258 14.6951 36.4076 14.6288 36.6065 14.5852C36.8073 14.5398 37.009 14.5038 37.2116 14.4773C37.4768 14.4432 37.6917 14.4176 37.8565 14.4006C38.0232 14.3817 38.1444 14.3504 38.2201 14.3068C38.2978 14.2633 38.3366 14.1875 38.3366 14.0796V14.0568C38.3366 13.7765 38.2599 13.5587 38.1065 13.4034C37.955 13.2481 37.7249 13.1705 37.4162 13.1705C37.0961 13.1705 36.8451 13.2406 36.6633 13.3807C36.4815 13.5209 36.3537 13.6705 36.2798 13.8296L35.6434 13.6023C35.7571 13.3371 35.9086 13.1307 36.098 12.983C36.2893 12.8334 36.4976 12.7292 36.723 12.6705C36.9503 12.6099 37.1737 12.5796 37.3934 12.5796C37.5336 12.5796 37.6946 12.5966 37.8764 12.6307C38.0601 12.6629 38.2372 12.7301 38.4076 12.8324C38.58 12.9347 38.723 13.089 38.8366 13.2955C38.9503 13.5019 39.0071 13.7784 39.0071 14.125V17H38.3366V16.4091H38.3025C38.2571 16.5038 38.1813 16.6051 38.0753 16.7131C37.9692 16.821 37.8281 16.9129 37.652 16.9887C37.4758 17.0644 37.2609 17.1023 37.0071 17.1023ZM37.1094 16.5C37.3745 16.5 37.598 16.4479 37.7798 16.3438C37.9635 16.2396 38.1018 16.1051 38.1946 15.9404C38.2893 15.7756 38.3366 15.6023 38.3366 15.4205V14.8068C38.3082 14.8409 38.2457 14.8722 38.1491 14.9006C38.0544 14.9271 37.9446 14.9508 37.8196 14.9716C37.6965 14.9906 37.5762 15.0076 37.4588 15.0227C37.3433 15.036 37.2495 15.0474 37.1775 15.0568C37.0033 15.0796 36.8404 15.1165 36.6889 15.1676C36.5393 15.2169 36.4181 15.2917 36.3253 15.3921C36.2344 15.4906 36.1889 15.625 36.1889 15.7955C36.1889 16.0284 36.2751 16.2046 36.4474 16.3239C36.6217 16.4413 36.8423 16.5 37.1094 16.5Z" fill="white"/>
<path d="M42.2081 15.8864H42.924C42.9391 16.0834 43.0282 16.233 43.191 16.3352C43.3558 16.4375 43.5698 16.4887 43.8331 16.4887C44.102 16.4887 44.3321 16.4337 44.5234 16.3239C44.7147 16.2121 44.8103 16.0322 44.8103 15.7841C44.8103 15.6383 44.7744 15.5114 44.7024 15.4034C44.6304 15.2936 44.5291 15.2084 44.3984 15.1477C44.2677 15.0871 44.1134 15.0568 43.9353 15.0568H43.1853V14.4546H43.9353C44.2024 14.4546 44.3994 14.394 44.5263 14.2727C44.655 14.1515 44.7194 14 44.7194 13.8182C44.7194 13.6231 44.6503 13.4669 44.5121 13.3495C44.3738 13.2301 44.1778 13.1705 43.924 13.1705C43.6683 13.1705 43.4552 13.2282 43.2848 13.3438C43.1143 13.4574 43.0244 13.6042 43.0149 13.7841H42.3103C42.3179 13.5493 42.3899 13.3419 42.5263 13.162C42.6626 12.9801 42.8482 12.8381 43.0831 12.7358C43.3179 12.6317 43.5869 12.5796 43.8899 12.5796C44.1967 12.5796 44.4628 12.6335 44.6882 12.7415C44.9155 12.8476 45.0907 12.9924 45.2138 13.1762C45.3388 13.358 45.4013 13.5644 45.4013 13.7955C45.4013 14.0417 45.3321 14.2406 45.1939 14.3921C45.0556 14.5436 44.8823 14.6515 44.674 14.7159V14.7614C44.8388 14.7728 44.9818 14.8258 45.103 14.9205C45.2261 15.0133 45.3217 15.1354 45.3899 15.287C45.4581 15.4366 45.4922 15.6023 45.4922 15.7841C45.4922 16.0493 45.4211 16.2803 45.2791 16.4773C45.1371 16.6724 44.942 16.8239 44.6939 16.9318C44.4458 17.0379 44.1626 17.0909 43.8444 17.0909C43.5357 17.0909 43.2592 17.0407 43.0149 16.9404C42.7706 16.8381 42.5764 16.697 42.4325 16.5171C42.2905 16.3352 42.2157 16.125 42.2081 15.8864Z" fill="white"/>
<path d="M47.718 17.1023C47.4415 17.1023 47.1906 17.0502 46.9652 16.946C46.7398 16.84 46.5608 16.6875 46.4282 16.4887C46.2957 16.2879 46.2294 16.0455 46.2294 15.7614C46.2294 15.5114 46.2786 15.3087 46.3771 15.1534C46.4756 14.9962 46.6072 14.8731 46.772 14.7841C46.9368 14.6951 47.1186 14.6288 47.3175 14.5852C47.5182 14.5398 47.7199 14.5038 47.9226 14.4773C48.1877 14.4432 48.4027 14.4176 48.5675 14.4006C48.7341 14.3817 48.8553 14.3504 48.9311 14.3068C49.0087 14.2633 49.0476 14.1875 49.0476 14.0796V14.0568C49.0476 13.7765 48.9709 13.5587 48.8175 13.4034C48.6659 13.2481 48.4358 13.1705 48.1271 13.1705C47.807 13.1705 47.5561 13.2406 47.3743 13.3807C47.1924 13.5209 47.0646 13.6705 46.9907 13.8296L46.3544 13.6023C46.468 13.3371 46.6195 13.1307 46.8089 12.983C47.0002 12.8334 47.2085 12.7292 47.4339 12.6705C47.6612 12.6099 47.8847 12.5796 48.1044 12.5796C48.2445 12.5796 48.4055 12.5966 48.5873 12.6307C48.771 12.6629 48.9481 12.7301 49.1186 12.8324C49.2909 12.9347 49.4339 13.089 49.5476 13.2955C49.6612 13.5019 49.718 13.7784 49.718 14.125V17H49.0476V16.4091H49.0135C48.968 16.5038 48.8923 16.6051 48.7862 16.7131C48.6801 16.821 48.539 16.9129 48.3629 16.9887C48.1868 17.0644 47.9718 17.1023 47.718 17.1023ZM47.8203 16.5C48.0854 16.5 48.3089 16.4479 48.4907 16.3438C48.6745 16.2396 48.8127 16.1051 48.9055 15.9404C49.0002 15.7756 49.0476 15.6023 49.0476 15.4205V14.8068C49.0192 14.8409 48.9567 14.8722 48.8601 14.9006C48.7654 14.9271 48.6555 14.9508 48.5305 14.9716C48.4074 14.9906 48.2871 15.0076 48.1697 15.0227C48.0542 15.036 47.9604 15.0474 47.8885 15.0568C47.7142 15.0796 47.5514 15.1165 47.3998 15.1676C47.2502 15.2169 47.129 15.2917 47.0362 15.3921C46.9453 15.4906 46.8998 15.625 46.8998 15.7955C46.8998 16.0284 46.986 16.2046 47.1584 16.3239C47.3326 16.4413 47.5532 16.5 47.8203 16.5Z" fill="white"/>
<path d="M56.8963 16.375L56.8167 18.25H56.1236V17H55.5554V16.375H56.8963ZM50.9417 12.6364H51.6122V16.375H53.2599V12.6364H53.9304V16.375H55.5781V12.6364H56.2486V17H50.9417V12.6364Z" fill="white"/>
<path d="M58.5419 16.0114L60.6442 12.6364H61.4169V17H60.7464V13.625L58.6555 17H57.8714V12.6364H58.5419V16.0114Z" fill="white"/>
<path d="M68.5994 16.375L68.5199 18.25H67.8267V17H67.2585V16.375H68.5994ZM62.6449 12.6364H63.3153V16.375H64.9631V12.6364H65.6335V16.375H67.2812V12.6364H67.9517V17H62.6449V12.6364Z" fill="white"/>
<path d="M71.3572 17.0909C70.9368 17.0909 70.5741 16.9981 70.2692 16.8125C69.9661 16.625 69.7322 16.3637 69.5675 16.0284C69.4046 15.6913 69.3231 15.2993 69.3231 14.8523C69.3231 14.4053 69.4046 14.0114 69.5675 13.6705C69.7322 13.3277 69.9614 13.0606 70.255 12.8693C70.5504 12.6762 70.8951 12.5796 71.289 12.5796C71.5163 12.5796 71.7407 12.6174 71.9623 12.6932C72.1839 12.769 72.3856 12.8921 72.5675 13.0625C72.7493 13.2311 72.8942 13.4546 73.0021 13.733C73.1101 14.0114 73.164 14.3542 73.164 14.7614V15.0455H69.8004V14.4659H72.4822C72.4822 14.2197 72.433 14 72.3345 13.8068C72.2379 13.6137 72.0996 13.4612 71.9197 13.3495C71.7417 13.2377 71.5315 13.1818 71.289 13.1818C71.022 13.1818 70.7909 13.2481 70.5959 13.3807C70.4027 13.5114 70.254 13.6818 70.1498 13.8921C70.0457 14.1023 69.9936 14.3277 69.9936 14.5682V14.9546C69.9936 15.2841 70.0504 15.5635 70.164 15.7926C70.2796 16.0199 70.4396 16.1932 70.6442 16.3125C70.8487 16.4299 71.0864 16.4887 71.3572 16.4887C71.5334 16.4887 71.6925 16.464 71.8345 16.4148C71.9784 16.3637 72.1025 16.2879 72.2067 16.1875C72.3108 16.0852 72.3913 15.9584 72.4481 15.8068L73.0959 15.9887C73.0277 16.2084 72.9131 16.4015 72.7521 16.5682C72.5911 16.733 72.3923 16.8618 72.1555 16.9546C71.9188 17.0455 71.6527 17.0909 71.3572 17.0909Z" fill="white"/>
<path d="M77.1044 14.5114V15.1364H74.6953V14.5114H77.1044ZM74.8544 12.6364V17H74.1839V12.6364H74.8544ZM77.6157 12.6364V17H76.9453V12.6364H77.6157Z" fill="white"/>
<path d="M79.4197 14.2159H80.6697C81.1811 14.2159 81.5722 14.3457 81.843 14.6051C82.1139 14.8646 82.2493 15.1932 82.2493 15.5909C82.2493 15.8523 82.1887 16.09 82.0675 16.304C81.9462 16.5161 81.7682 16.6856 81.5334 16.8125C81.2985 16.9375 81.0106 17 80.6697 17H78.8402V12.6364H79.5106V16.375H80.6697C80.9349 16.375 81.1527 16.3049 81.3231 16.1648C81.4936 16.0246 81.5788 15.8447 81.5788 15.625C81.5788 15.394 81.4936 15.2055 81.3231 15.0597C81.1527 14.9138 80.9349 14.8409 80.6697 14.8409H79.4197V14.2159ZM82.9425 17V12.6364H83.6129V17H82.9425Z" fill="white"/>
<path d="M85.3288 17.0455C85.1887 17.0455 85.0684 16.9953 84.968 16.8949C84.8676 16.7945 84.8175 16.6743 84.8175 16.5341C84.8175 16.394 84.8676 16.2737 84.968 16.1733C85.0684 16.0729 85.1887 16.0227 85.3288 16.0227C85.469 16.0227 85.5892 16.0729 85.6896 16.1733C85.79 16.2737 85.8402 16.394 85.8402 16.5341C85.8402 16.6269 85.8165 16.7121 85.7692 16.7898C85.7237 16.8674 85.6621 16.9299 85.5845 16.9773C85.5087 17.0227 85.4235 17.0455 85.3288 17.0455Z" fill="white"/>
</g>
</svg>
