<svg width="140" height="23" viewBox="0 0 140 23" fill="none" xmlns="http://www.w3.org/2000/svg">
<path d="M16.8721 15.3578L16.642 22.1249H13.5738V17.9999H12.3466V15.3578H16.8721ZM0.721558 17.9999V0.545343H3.75565V15.3749H11.5966V0.545343H14.6562V17.9999H0.721558Z" fill="white"/>
<path d="M19.4481 0.545343H22.5845V12.4431H22.7464L30.9538 0.545343H33.7919V17.9999H30.6299V6.11068H30.4851L22.2521 17.9999H19.4481V0.545343Z" fill="white"/>
<path d="M43.8338 2.48853H47.3622C48.7258 2.48853 49.9361 2.78114 50.9929 3.36637C52.0497 3.95159 52.8792 4.77546 53.4815 5.83796C54.0838 6.89477 54.3849 8.13341 54.3849 9.55387C54.3849 10.9402 54.0838 12.1533 53.4815 13.1931C52.8792 14.2328 52.0497 15.0425 50.9929 15.622C49.9361 16.1959 48.7258 16.4828 47.3622 16.4828H43.8338C42.4645 16.4828 41.2485 16.1988 40.186 15.6306C39.1292 15.0567 38.2997 14.2499 37.6974 13.2101C37.0951 12.1703 36.794 10.9544 36.794 9.56239C36.794 8.14193 37.098 6.9033 37.7059 5.84648C38.3139 4.78398 39.1463 3.96012 40.2031 3.37489C41.2656 2.78398 42.4758 2.48853 43.8338 2.48853ZM43.8338 5.16466C43.0042 5.16466 42.2855 5.33512 41.6775 5.67603C41.0753 6.01125 40.6093 6.50557 40.2798 7.15898C39.9503 7.81239 39.7855 8.61353 39.7855 9.56239C39.7855 10.4715 39.9503 11.2414 40.2798 11.872C40.615 12.5027 41.0866 12.9828 41.6946 13.3124C42.3025 13.6419 43.0156 13.8067 43.8338 13.8067H47.3707C48.1946 13.8067 48.9048 13.6419 49.5014 13.3124C50.1037 12.9772 50.5667 12.4942 50.8906 11.8635C51.2201 11.2272 51.3849 10.4573 51.3849 9.55387C51.3849 8.61637 51.2201 7.82091 50.8906 7.1675C50.5667 6.51409 50.1037 6.01693 49.5014 5.67603C48.9048 5.33512 48.1946 5.16466 47.3707 5.16466H43.8338ZM47.1235 0.238525V18.7158H44.0809V0.238525H47.1235Z" fill="white"/>
<path d="M57.3934 17.9999V0.545343H63.9389C65.2798 0.545343 66.4048 0.795343 67.3139 1.29534C68.2287 1.79534 68.919 2.48284 69.3849 3.35784C69.8565 4.22716 70.0923 5.2158 70.0923 6.32375C70.0923 7.44307 69.8565 8.43739 69.3849 9.30671C68.9133 10.176 68.2173 10.8607 67.2968 11.3607C66.3764 11.855 65.2429 12.1022 63.8963 12.1022H59.5582V9.50273H63.4701C64.2542 9.50273 64.8963 9.36637 65.3963 9.09364C65.8963 8.82091 66.2656 8.44591 66.5042 7.96864C66.7485 7.49137 66.8707 6.94307 66.8707 6.32375C66.8707 5.70443 66.7485 5.15898 66.5042 4.68739C66.2656 4.2158 65.8934 3.84932 65.3877 3.58796C64.8877 3.32091 64.2429 3.18739 63.4531 3.18739H60.5554V17.9999H57.3934Z" fill="white"/>
<path d="M88.4353 9.27262C88.4353 11.1533 88.0831 12.7641 87.3785 14.105C86.6797 15.4402 85.7251 16.463 84.5149 17.1732C83.3103 17.8834 81.9439 18.2385 80.4155 18.2385C78.887 18.2385 77.5177 17.8834 76.3075 17.1732C75.103 16.4573 74.1484 15.4317 73.4439 14.0965C72.745 12.7556 72.3956 11.1476 72.3956 9.27262C72.3956 7.39193 72.745 5.78398 73.4439 4.44875C74.1484 3.10784 75.103 2.08227 76.3075 1.37205C77.5177 0.66182 78.887 0.306706 80.4155 0.306706C81.9439 0.306706 83.3103 0.66182 84.5149 1.37205C85.7251 2.08227 86.6797 3.10784 87.3785 4.44875C88.0831 5.78398 88.4353 7.39193 88.4353 9.27262ZM85.2564 9.27262C85.2564 7.94875 85.049 6.83227 84.6342 5.92318C84.2251 5.00841 83.6569 4.31807 82.9297 3.85216C82.2024 3.38057 81.3643 3.14478 80.4155 3.14478C79.4666 3.14478 78.6285 3.38057 77.9012 3.85216C77.174 4.31807 76.603 5.00841 76.1882 5.92318C75.7791 6.83227 75.5745 7.94875 75.5745 9.27262C75.5745 10.5965 75.7791 11.7158 76.1882 12.6306C76.603 13.5397 77.174 14.23 77.9012 14.7016C78.6285 15.1675 79.4666 15.4005 80.4155 15.4005C81.3643 15.4005 82.2024 15.1675 82.9297 14.7016C83.6569 14.23 84.2251 13.5397 84.6342 12.6306C85.049 11.7158 85.2564 10.5965 85.2564 9.27262Z" fill="white"/>
<path d="M90.2912 17.9999V15.3749L90.7855 15.3493C91.4559 15.3095 91.9872 15.0681 92.3792 14.6249C92.777 14.1817 93.0696 13.4686 93.2571 12.4857C93.4503 11.5027 93.5781 10.1845 93.6406 8.53114L93.9304 0.545343H105.368V17.9999H102.274V3.14478H96.8792L96.6065 9.51125C96.527 11.4203 96.3167 13.0027 95.9758 14.2584C95.6406 15.5141 95.0895 16.4516 94.3224 17.0709C93.5611 17.6902 92.5014 17.9999 91.1434 17.9999H90.2912Z" fill="white"/>
<path d="M111.057 17.9999H107.682L113.827 0.545343H117.73L123.883 17.9999H120.508L115.847 4.12489H115.71L111.057 17.9999ZM111.168 11.1561H120.372V13.6959H111.168V11.1561Z" fill="white"/>
<path d="M126.182 17.9999V0.545343H137.407V3.19591H129.344V7.28682H132.711C134.046 7.28682 135.191 7.50557 136.146 7.94307C137.106 8.37489 137.842 8.98568 138.353 9.77546C138.864 10.5652 139.12 11.4942 139.12 12.5624C139.12 13.6363 138.864 14.5823 138.353 15.4005C137.842 16.213 137.106 16.8493 136.146 17.3095C135.191 17.7698 134.046 17.9999 132.711 17.9999H126.182ZM129.344 15.409H132.711C133.415 15.409 134.012 15.2755 134.501 15.0084C134.989 14.7414 135.359 14.3891 135.609 13.9516C135.864 13.5141 135.992 13.0397 135.992 12.5283C135.992 11.7897 135.708 11.1618 135.14 10.6448C134.577 10.122 133.768 9.86068 132.711 9.86068H129.344V15.409Z" fill="white"/>
</svg>
