<svg width="56" height="56" viewBox="0 0 56 56" fill="none" xmlns="http://www.w3.org/2000/svg">
<path fill-rule="evenodd" clip-rule="evenodd" d="M18.8152 17.6816C15.6057 17.6816 13 20.2874 13 23.4969C13 26.7064 15.6057 29.3121 18.8152 29.3121C22.0247 29.3121 24.6305 26.7064 24.6305 23.4969C24.6305 20.2874 22.0247 17.6816 18.8152 17.6816ZM18.8152 19.4316C21.0588 19.4316 22.8805 21.2534 22.8805 23.4969C22.8805 25.7404 21.0588 27.5621 18.8152 27.5621C16.5717 27.5621 14.75 25.7404 14.75 23.4969C14.75 21.2534 16.5717 19.4316 18.8152 19.4316Z" fill="white"/>
<path fill-rule="evenodd" clip-rule="evenodd" d="M19.4062 9.96875C10.9038 9.96875 4 16.8726 4 25.375C4 30.9611 6.3925 35.8512 9.28525 39.701C13.5664 45.3977 18.9205 48.7961 18.9205 48.7961C19.2159 48.9846 19.5966 48.9846 19.892 48.7961C19.892 48.7961 25.2461 45.3977 29.5272 39.701C32.42 35.8512 34.8125 30.9611 34.8125 25.375C34.8125 16.8726 27.9087 9.96875 19.4062 9.96875ZM19.4062 46.9383C20.7729 45.9904 24.7622 43.0251 28.0773 38.6117C30.7525 35.0519 33 30.5406 33 25.375C33 17.8731 26.9082 11.7812 19.4062 11.7812C11.9043 11.7812 5.8125 17.8731 5.8125 25.375C5.8125 30.5406 8.06 35.0519 10.7352 38.6117C14.0503 43.0251 18.0396 45.9904 19.4062 46.9383Z" fill="white"/>
<g clip-path="url(#clip0_263_4596)">
<path fill-rule="evenodd" clip-rule="evenodd" d="M36.5693 11C28.407 11 21.7793 17.4613 21.7793 25.4187C21.7793 30.6467 24.0761 35.2234 26.8531 38.8263C30.963 44.1578 36.103 47.3384 36.103 47.3384C36.3866 47.5149 36.752 47.5149 37.0356 47.3384C37.0356 47.3384 42.1756 44.1578 46.2855 38.8263C49.0625 35.2234 51.3593 30.6467 51.3593 25.4187C51.3593 17.4613 44.7316 11 36.5693 11ZM36.5693 45.5997C37.8813 44.7125 41.711 41.9374 44.8935 37.8069C47.4617 34.4753 49.6193 30.2532 49.6193 25.4187C49.6193 18.3976 43.7712 12.6963 36.5693 12.6963C29.3674 12.6963 23.5193 18.3976 23.5193 25.4187C23.5193 30.2532 25.6769 34.4753 28.2451 37.8069C31.4276 41.9374 35.2573 44.7125 36.5693 45.5997Z" fill="white"/>
</g>
<defs>
<clipPath id="clip0_263_4596">
<rect width="24" height="36.5" fill="white" transform="translate(28.5 11)"/>
</clipPath>
</defs>
</svg>
