<svg width="29" height="29" viewBox="0 0 29 29" fill="none" xmlns="http://www.w3.org/2000/svg">
<path fill-rule="evenodd" clip-rule="evenodd" d="M14.1359 10.0378C16.6275 10.4145 17.7765 11.5798 18.0938 14.0478C18.1232 14.2758 18.0369 14.6188 18.3676 14.6251C18.7132 14.6317 18.6299 14.2937 18.6328 14.0655C18.6621 11.741 16.6014 9.58614 14.208 9.50662C14.0274 9.53218 13.6537 9.38413 13.6304 9.78223C13.615 10.0506 13.9296 10.0065 14.1359 10.0378Z" fill="#3A2B6A"/>
<path fill-rule="evenodd" clip-rule="evenodd" d="M17.9809 16.7276C17.1447 16.1475 16.0933 15.0372 15.2739 16.2739C15.0004 16.6811 14.6177 16.6988 14.2174 16.5203C13.1139 16.0282 12.262 15.2701 11.7628 14.167C11.1742 12.7969 12.6152 13.0542 12.5885 12.099C12.5598 11.579 11.276 9.84111 10.769 9.65769C10.5592 9.58176 10.3502 9.58673 10.1368 9.65726C8.94798 10.0504 8.45558 11.012 8.92715 12.1505C10.334 15.5474 12.8098 17.9121 16.2179 19.3554C16.4123 19.4376 16.6281 19.4704 16.7374 19.5C17.5133 19.5077 18.4222 18.7724 18.6848 18.0428C18.9375 17.3407 18.4034 17.0622 17.9809 16.7276Z" fill="#3A2B6A"/>
<path fill-rule="evenodd" clip-rule="evenodd" d="M14.6253 10.713C14.3857 10.6846 14.0692 10.5735 14.0133 10.9007C13.9548 11.244 14.3074 11.2091 14.534 11.259C16.0729 11.5972 16.6086 12.1481 16.862 13.6493C16.8991 13.8682 16.8255 14.2088 17.2037 14.1523C17.4839 14.1103 17.3828 13.8183 17.4062 13.6478C17.4187 12.2065 16.1628 10.8946 14.6253 10.713Z" fill="#3A2B6A"/>
<path fill-rule="evenodd" clip-rule="evenodd" d="M14.7715 11.885C14.6115 11.8889 14.4545 11.9059 14.3957 12.074C14.3074 12.3254 14.4932 12.3852 14.6822 12.4151C15.3135 12.5148 15.6457 12.8809 15.7088 13.5C15.7259 13.668 15.8343 13.8043 15.9993 13.785C16.228 13.7582 16.2488 13.558 16.2417 13.3678C16.253 12.6722 15.4536 11.8683 14.7715 11.885Z" fill="#3A2B6A"/>
<circle cx="14.375" cy="14.375" r="9.375" stroke="#3A2B6A" stroke-width="2"/>
</svg>
