<svg width="29" height="29" viewBox="0 0 29 29" fill="none" xmlns="http://www.w3.org/2000/svg">
<path fill-rule="evenodd" clip-rule="evenodd" d="M11.8011 14.2058C12.6036 15.5646 13.8914 16.6369 15.3523 17.2928L16.3813 16.109C16.5216 15.9476 16.7192 15.8833 16.8771 15.9733C17.4444 16.1358 18.0549 16.1941 18.7086 16.1484C19.0103 16.1273 19.2256 16.3144 19.2466 16.6161L19.3662 18.326C19.3873 18.6277 19.2002 18.8429 18.8985 18.864C14.1714 19.1946 10.0822 15.6399 9.75162 10.9128C9.73051 10.611 9.91759 10.3958 10.2193 10.3747L11.9794 10.2516C12.2812 10.2305 12.4964 10.4176 12.5175 10.7193C12.5597 11.3228 12.7025 11.9192 12.9458 12.5086C13.0066 12.656 12.9704 12.8606 12.8804 13.0186L11.8011 14.2058Z" fill="#3A2B6A"/>
<path d="M10.6175 22.7445L10.6175 22.7445C11.88 23.3679 13.3042 23.7193 14.8152 23.7193C20.0327 23.7193 24.25 19.522 24.25 14.3596C24.25 9.19726 20.0327 5 14.8152 5C9.59766 5 5.38037 9.19726 5.38037 14.3596C5.38037 15.9609 5.78462 17.4648 6.4966 18.7802L6.49661 18.7802C6.9041 19.5331 6.73037 20.3094 6.568 20.7758L10.6175 22.7445ZM10.6175 22.7445C10.3128 22.5941 9.96291 22.5634 9.63687 22.6581M10.6175 22.7445L9.63687 22.6581M3.5245 24.5108C3.48635 24.4327 3.4784 24.265 3.60839 23.9436C3.73157 23.6391 3.94337 23.2811 4.1994 22.8839L4.51976 22.3964C4.68164 22.1523 4.84784 21.9016 4.99659 21.6638C5.25127 21.2567 5.48756 20.8378 5.62358 20.447C5.75648 20.0653 5.82098 19.6328 5.61716 19.2562C4.82815 17.7985 4.38037 16.1315 4.38037 14.3596C4.38037 8.63818 9.05221 4 14.8152 4C20.5782 4 25.25 8.63818 25.25 14.3596C25.25 20.0811 20.5782 24.7193 14.8152 24.7193C13.1475 24.7193 11.5721 24.3311 10.1748 23.6412C10.0944 23.6015 10.002 23.5933 9.9159 23.6184M3.5245 24.5108C3.55107 24.5652 3.65259 24.6888 4.08932 24.7339C4.5165 24.7781 5.17111 24.7348 6.13339 24.5581C7.09019 24.3824 8.32928 24.0793 9.9159 23.6184M3.5245 24.5108L4.14371 24.2082L4.19742 24.1819L4.49674 24.4322C4.49669 24.4322 4.49735 24.4284 4.49809 24.4213C4.4998 24.4048 4.50248 24.3646 4.49506 24.3069C4.49486 24.3053 4.49464 24.3037 4.49442 24.302L4.19759 24.182L4.14369 24.2083L3.5245 24.5108ZM9.9159 23.6184L9.63687 22.6581M9.9159 23.6184L9.63694 22.6581C9.63692 22.6581 9.6369 22.6581 9.63687 22.6581M9.63687 22.6581C8.06781 23.1139 6.86407 23.4072 5.95281 23.5746C5.4967 23.6583 5.13363 23.7066 4.84838 23.7306M9.63687 22.6581L4.84838 23.7306M4.84838 23.7306C4.90551 23.6367 4.96929 23.5352 5.03989 23.4257L5.0399 23.4257C5.1355 23.2774 5.24056 23.1189 5.35212 22.9507L5.35215 22.9506L5.35697 22.9434C5.51625 22.7031 5.68856 22.4433 5.84436 22.1942C6.10653 21.7751 6.39329 21.2776 6.56799 20.7758L4.84838 23.7306Z" stroke="#3A2B6A" stroke-width="2" stroke-linecap="round" stroke-linejoin="round"/>
</svg>
