<svg width="24" height="25" viewBox="0 0 24 25" fill="none" xmlns="http://www.w3.org/2000/svg">
<path d="M12.0002 12.4751C10.9002 12.4751 10.0002 12.1251 9.30024 11.4251C8.60024 10.7251 8.25024 9.8251 8.25024 8.7251C8.25024 7.6251 8.60024 6.7251 9.30024 6.0251C10.0002 5.3251 10.9002 4.9751 12.0002 4.9751C13.1002 4.9751 14.0002 5.3251 14.7002 6.0251C15.4002 6.7251 15.7502 7.6251 15.7502 8.7251C15.7502 9.8251 15.4002 10.7251 14.7002 11.4251C14.0002 12.1251 13.1002 12.4751 12.0002 12.4751ZM18.5002 20.5001H5.50024C5.08774 20.5001 4.73462 20.3532 4.44087 20.0595C4.14712 19.7657 4.00024 19.4126 4.00024 19.0001V18.1501C4.00024 17.5168 4.15858 16.9751 4.47524 16.5251C4.79191 16.0751 5.20024 15.7334 5.70024 15.5001C6.81691 15.0001 7.88774 14.6251 8.91274 14.3751C9.93774 14.1251 10.9669 14.0001 12.0002 14.0001C13.0336 14.0001 14.0586 14.1293 15.0752 14.3876C16.0919 14.6459 17.1579 15.0184 18.2733 15.5049C18.795 15.7404 19.2132 16.0818 19.528 16.5291C19.8428 16.9764 20.0002 17.5168 20.0002 18.1501V19.0001C20.0002 19.4126 19.8534 19.7657 19.5596 20.0595C19.2659 20.3532 18.9127 20.5001 18.5002 20.5001ZM5.50024 19.0001H18.5002V18.1501C18.5002 17.8834 18.4211 17.6293 18.2627 17.3876C18.1044 17.1459 17.9086 16.9668 17.6752 16.8501C16.6086 16.3334 15.6336 15.9793 14.7502 15.7876C13.8669 15.5959 12.9502 15.5001 12.0002 15.5001C11.0502 15.5001 10.1252 15.5959 9.22524 15.7876C8.32524 15.9793 7.35024 16.3334 6.30024 16.8501C6.06691 16.9668 5.87524 17.1459 5.72524 17.3876C5.57524 17.6293 5.50024 17.8834 5.50024 18.1501V19.0001ZM12.0002 10.9751C12.6502 10.9751 13.1877 10.7626 13.6127 10.3376C14.0377 9.9126 14.2502 9.3751 14.2502 8.7251C14.2502 8.0751 14.0377 7.5376 13.6127 7.1126C13.1877 6.6876 12.6502 6.4751 12.0002 6.4751C11.3502 6.4751 10.8127 6.6876 10.3877 7.1126C9.96274 7.5376 9.75024 8.0751 9.75024 8.7251C9.75024 9.3751 9.96274 9.9126 10.3877 10.3376C10.8127 10.7626 11.3502 10.9751 12.0002 10.9751Z" fill="white"/>
</svg>
