<svg width="24" height="25" viewBox="0 0 24 25" fill="none" xmlns="http://www.w3.org/2000/svg">
<path d="M12.0003 12.4751C10.9003 12.4751 10.0003 12.1251 9.30027 11.4251C8.60027 10.7251 8.25027 9.8251 8.25027 8.7251C8.25027 7.6251 8.60027 6.7251 9.30027 6.0251C10.0003 5.3251 10.9003 4.9751 12.0003 4.9751C13.1003 4.9751 14.0003 5.3251 14.7003 6.0251C15.4003 6.7251 15.7503 7.6251 15.7503 8.7251C15.7503 9.8251 15.4003 10.7251 14.7003 11.4251C14.0003 12.1251 13.1003 12.4751 12.0003 12.4751ZM18.5003 20.5001H5.50027C5.08777 20.5001 4.73465 20.3532 4.4409 20.0595C4.14715 19.7657 4.00027 19.4126 4.00027 19.0001V18.1501C4.00027 17.5168 4.15861 16.9751 4.47527 16.5251C4.79194 16.0751 5.20027 15.7334 5.70027 15.5001C6.81694 15.0001 7.88777 14.6251 8.91277 14.3751C9.93777 14.1251 10.9669 14.0001 12.0003 14.0001C13.0336 14.0001 14.0586 14.1293 15.0753 14.3876C16.0919 14.6459 17.1579 15.0184 18.2733 15.5049C18.795 15.7404 19.2132 16.0818 19.528 16.5291C19.8429 16.9764 20.0003 17.5168 20.0003 18.1501V19.0001C20.0003 19.4126 19.8534 19.7657 19.5596 20.0595C19.2659 20.3532 18.9128 20.5001 18.5003 20.5001ZM5.50027 19.0001H18.5003V18.1501C18.5003 17.8834 18.4211 17.6293 18.2628 17.3876C18.1044 17.1459 17.9086 16.9668 17.6753 16.8501C16.6086 16.3334 15.6336 15.9793 14.7503 15.7876C13.8669 15.5959 12.9503 15.5001 12.0003 15.5001C11.0503 15.5001 10.1253 15.5959 9.22527 15.7876C8.32527 15.9793 7.35027 16.3334 6.30027 16.8501C6.06694 16.9668 5.87527 17.1459 5.72527 17.3876C5.57527 17.6293 5.50027 17.8834 5.50027 18.1501V19.0001ZM12.0003 10.9751C12.6503 10.9751 13.1878 10.7626 13.6128 10.3376C14.0378 9.9126 14.2503 9.3751 14.2503 8.7251C14.2503 8.0751 14.0378 7.5376 13.6128 7.1126C13.1878 6.6876 12.6503 6.4751 12.0003 6.4751C11.3503 6.4751 10.8128 6.6876 10.3878 7.1126C9.96277 7.5376 9.75027 8.0751 9.75027 8.7251C9.75027 9.3751 9.96277 9.9126 10.3878 10.3376C10.8128 10.7626 11.3503 10.9751 12.0003 10.9751Z" fill="white"/>
</svg>
