<svg width="23" height="23" viewBox="0 0 23 23" fill="none" xmlns="http://www.w3.org/2000/svg">
<path d="M1 11.75C1 13.1617 1.27806 14.5596 1.81829 15.8638C2.35853 17.1681 3.15037 18.3532 4.1486 19.3514C5.14683 20.3496 6.3319 21.1415 7.63615 21.6817C8.9404 22.2219 10.3383 22.5 11.75 22.5C13.1617 22.5 14.5596 22.2219 15.8638 21.6817C17.1681 21.1415 18.3532 20.3496 19.3514 19.3514C20.3496 18.3532 21.1415 17.1681 21.6817 15.8638C22.2219 14.5596 22.5 13.1617 22.5 11.75C22.5 8.89892 21.3674 6.16462 19.3514 4.1486C17.3354 2.13259 14.6011 1 11.75 1C8.89892 1 6.16462 2.13259 4.1486 4.1486C2.13259 6.16462 1 8.89892 1 11.75Z" stroke="white" stroke-linecap="round" stroke-linejoin="round"/>
<path d="M8.16675 11.75H15.3334" stroke="white" stroke-linecap="round" stroke-linejoin="round"/>
<path d="M11.75 8.1665V15.3332" stroke="white" stroke-linecap="round" stroke-linejoin="round"/>
</svg>
