<svg width="22" height="22" viewBox="0 0 22 22" fill="none" xmlns="http://www.w3.org/2000/svg">
<g clip-path="url(#clip0_144_1827)">
<path d="M6.65518 10.6498C6.80814 11.6837 7.26892 12.6562 7.98461 13.4556C8.70031 14.255 9.6419 14.849 10.7013 15.1692C11.7607 15.4895 12.8949 15.5232 13.9737 15.2663C15.0526 15.0095 16.0323 14.4725 16.8005 13.7171C16.7275 13.5592 16.6836 13.3908 16.6704 13.2192L16.6663 13.1027L16.6704 12.9854C16.6953 12.6746 16.8187 12.3778 17.0248 12.1332C17.2309 11.8886 17.5103 11.7074 17.8271 11.6128C18.1438 11.5182 18.4835 11.5146 18.8025 11.6024C19.1214 11.6902 19.4051 11.8655 19.6171 12.1056C19.8291 12.3457 19.9596 12.6398 19.9921 12.95C20.0245 13.2603 19.9572 13.5725 19.799 13.8467C19.6407 14.1208 19.3987 14.3444 19.104 14.4885C18.8093 14.6327 18.4753 14.691 18.145 14.6559C17.177 15.6605 15.9234 16.3851 14.5315 16.7446C13.1395 17.1042 11.667 17.0837 10.2871 16.6855C8.90709 16.2874 7.67697 15.5282 6.74125 14.4971C5.80553 13.466 5.20309 12.2058 5.00472 10.8648C4.98171 10.6629 5.04338 10.4605 5.17667 10.3005C5.30997 10.1405 5.50443 10.0354 5.71889 10.0074C5.93336 9.9795 6.151 10.0309 6.32575 10.1508C6.5005 10.2707 6.61864 10.4497 6.65518 10.6498Z" fill="#FFE76A" stroke="#3A2B6A" stroke-width="0.5" stroke-linecap="round" stroke-linejoin="round"/>
<path d="M12.5 6C13.1848 6 13.8545 6.20088 14.4263 6.57776C14.998 6.95463 15.4466 7.49095 15.7166 8.12028C15.9865 8.74961 16.0659 9.4443 15.945 10.1183C15.824 10.7923 15.5079 11.416 15.036 11.9122C14.564 12.4084 13.9569 12.7552 13.2898 12.9097C12.6227 13.0642 11.9249 13.0197 11.2828 12.7815C10.6408 12.5434 10.0827 12.1221 9.67772 11.57C9.27273 11.0178 9.03861 10.3589 9.00438 9.675L9 9.5L9.00438 9.325C9.04927 8.42816 9.43715 7.58289 10.0878 6.96401C10.7384 6.34513 11.602 6 12.5 6Z" fill="#FFE76A" stroke="#3A2B6A" stroke-width="0.5" stroke-linecap="round" stroke-linejoin="round"/>
<path d="M13.4536 2.06782C15.1034 2.2961 16.6375 3.09924 17.8195 4.35358C19.0015 5.60791 19.766 7.24386 19.995 9.00946C20.0187 9.24043 19.9574 9.47218 19.8242 9.65552C19.691 9.83887 19.4963 9.95936 19.2816 9.99144C19.0668 10.0235 18.8488 9.96466 18.6739 9.82734C18.499 9.69002 18.3809 9.48507 18.3447 9.25597C18.1659 7.87815 17.5693 6.60154 16.6467 5.62284C15.7242 4.64413 14.5269 4.01763 13.2393 3.83985C12.3183 3.71137 11.3819 3.81713 10.5061 4.14858C9.63033 4.48003 8.83968 5.02783 8.19822 5.74764C8.29422 5.9861 8.34055 6.24412 8.33398 6.50372C8.3274 6.76332 8.26808 7.01827 8.16014 7.25079C8.05221 7.48332 7.89826 7.68783 7.70901 7.85007C7.51977 8.01232 7.29979 8.12839 7.0644 8.19022C6.82901 8.25204 6.58387 8.25812 6.34606 8.20804C6.10825 8.15796 5.88349 8.05292 5.68745 7.90023C5.4914 7.74755 5.32878 7.55089 5.21092 7.32397C5.09305 7.09705 5.02278 6.84532 5.005 6.58632L5 6.45324L5.00417 6.31926C5.02093 6.07993 5.08253 5.84666 5.1853 5.6334C5.28806 5.42014 5.42988 5.23125 5.60228 5.07803C5.77469 4.9248 5.97414 4.81038 6.18873 4.74158C6.40332 4.67279 6.62864 4.65104 6.85125 4.67764C7.67285 3.70307 8.70274 2.95651 9.85264 2.50197C11.0025 2.04743 12.2382 1.89846 13.4536 2.06782Z" fill="#FFE76A" stroke="#3A2B6A" stroke-width="0.5" stroke-linecap="round" stroke-linejoin="round"/>
</g>
<defs>
<clipPath id="clip0_144_1827">
<rect width="22" height="22" fill="white"/>
</clipPath>
</defs>
</svg>
