<svg width="7" height="13" viewBox="0 0 7 13" fill="none" xmlns="http://www.w3.org/2000/svg">
<path fill-rule="evenodd" clip-rule="evenodd" d="M1.5696 0.936957C2.53483 0.827004 3.5094 0.827004 4.47463 0.936957L5.4621 1.04944C5.60354 1.06556 5.72977 1.14572 5.80457 1.26694C5.87937 1.38815 5.89447 1.53701 5.84554 1.67079L4.98305 4.02879C4.73983 4.69374 5.23211 5.39797 5.94015 5.39797C6.09244 5.39797 6.23505 5.47273 6.32177 5.59802C6.40849 5.72332 6.42829 5.88321 6.37476 6.0259L6.25688 6.34012C5.43907 8.52009 4.28286 10.5573 2.83086 12.3768L2.58902 12.6798C2.46594 12.834 2.25893 12.8936 2.0728 12.8283C1.88667 12.7631 1.76206 12.5872 1.76206 12.3899V9.08644C1.76206 8.46378 1.25729 7.95902 0.634636 7.95902C0.394151 7.95902 0.193479 7.77521 0.172221 7.53547L0.0963183 6.67948C-0.0321062 5.23117 -0.0321061 3.77431 0.0963184 2.326L0.172221 1.47001C0.191713 1.25018 0.363036 1.0744 0.582135 1.04944L1.5696 0.936957ZM4.36963 1.86022C3.47418 1.75822 2.57005 1.75822 1.6746 1.86022L1.54066 1.87548C1.26296 1.90712 1.04584 2.12974 1.02115 2.40814C0.89757 3.8018 0.89757 5.20368 1.02115 6.59734C1.04285 6.84212 1.2479 7.02979 1.49364 7.02979H2.22629C2.48268 7.02979 2.69052 7.2378 2.69052 7.4944C2.69052 8.60636 4.0246 9.00504 4.51973 8.0094C4.57792 7.89238 4.63505 7.7748 4.69109 7.65669C4.98944 7.02785 4.51396 6.3272 3.81794 6.3272C3.66633 6.3272 3.52427 6.2531 3.43742 6.12873C3.35057 6.00435 3.32988 5.84536 3.382 5.70287L4.63211 2.28513C4.70278 2.09193 4.57403 1.88351 4.36963 1.86022Z" fill="#97EAEF"/>
</svg>
