<svg width="17" height="17" viewBox="0 0 17 17" fill="none" xmlns="http://www.w3.org/2000/svg">
<mask id="path-1-inside-1_144_1853" fill="white">
<path d="M10.9819 15.0452C12.1611 14.5981 13.1976 13.8407 13.9819 12.853C14.7661 11.8654 15.269 10.6843 15.4374 9.43441C15.6057 8.18456 15.4333 6.91245 14.9383 5.75252C14.4433 4.59259 13.6441 3.58793 12.6253 2.84471C11.6064 2.1015 10.4057 1.64734 9.14997 1.53024C7.89429 1.41314 6.63029 1.63745 5.49157 2.17945C4.35285 2.72146 3.3817 3.56103 2.68077 4.60943C1.97984 5.65783 1.57515 6.87613 1.50949 8.13555L8.5 8.5L10.9819 15.0452Z"/>
</mask>
<path d="M10.9819 15.0452C12.1611 14.5981 13.1976 13.8407 13.9819 12.853C14.7661 11.8654 15.269 10.6843 15.4374 9.43441C15.6057 8.18456 15.4333 6.91245 14.9383 5.75252C14.4433 4.59259 13.6441 3.58793 12.6253 2.84471C11.6064 2.1015 10.4057 1.64734 9.14997 1.53024C7.89429 1.41314 6.63029 1.63745 5.49157 2.17945C4.35285 2.72146 3.3817 3.56103 2.68077 4.60943C1.97984 5.65783 1.57515 6.87613 1.50949 8.13555L8.5 8.5L10.9819 15.0452Z" fill="white" stroke="white" stroke-width="0.73913" mask="url(#path-1-inside-1_144_1853)"/>
<circle cx="8.5" cy="8.5" r="8.13043" stroke="white" stroke-width="0.73913"/>
</svg>
