<svg width="13" height="13" viewBox="0 0 13 13" fill="none" xmlns="http://www.w3.org/2000/svg">
<path d="M2.79603 1.92586C1.98791 2.01625 1.34106 2.65458 1.24756 3.45466C0.996401 5.60386 0.996401 7.77504 1.24756 9.92425C1.34106 10.7243 1.98791 11.3627 2.79603 11.453C4.89805 11.6882 7.07266 11.6882 9.17468 11.453C9.9828 11.3627 10.6296 10.7243 10.7231 9.92425C10.9036 8.37998 10.9544 6.82438 10.8755 5.27373C10.8735 5.23368 10.8884 5.19462 10.9168 5.16627L11.6503 4.43216C11.7352 4.34719 11.8802 4.40032 11.8893 4.52015C12.0277 6.36107 11.9897 8.21195 11.7752 10.0474C11.6235 11.3456 10.582 12.3623 9.29233 12.5065C7.11212 12.7504 4.85859 12.7504 2.67838 12.5065C1.38872 12.3623 0.347254 11.3456 0.195543 10.0474C-0.065181 7.81637 -0.065181 5.56254 0.195543 3.33151C0.347254 2.03331 1.38872 1.01661 2.67838 0.872356C4.85859 0.628485 7.11212 0.628485 9.29233 0.872356C9.74655 0.923164 10.17 1.08219 10.5346 1.32363C10.6063 1.37114 10.6135 1.47208 10.5526 1.53296L9.98569 2.10037C9.93931 2.14678 9.86739 2.15459 9.80958 2.12359C9.61652 2.02006 9.40198 1.95129 9.17468 1.92586C7.07266 1.69074 4.89805 1.69074 2.79603 1.92586Z" fill="#99FFAA"/>
<path d="M12.3619 2.47063C12.5687 2.26364 12.5687 1.92805 12.3619 1.72106C12.1551 1.51407 11.8198 1.51407 11.613 1.72106L7.37618 5.96131C6.41329 6.925 4.85128 6.925 3.88838 5.96131C3.68156 5.75432 3.34624 5.75432 3.13942 5.96131C2.9326 6.1683 2.9326 6.5039 3.13942 6.71089L5.2578 8.83102C5.46462 9.03801 5.79994 9.03801 6.00676 8.83102L12.3619 2.47063Z" fill="#99FFAA"/>
</svg>
