<svg width="24" height="25" viewBox="0 0 24 25" fill="none" xmlns="http://www.w3.org/2000/svg">
<path d="M5.50811 13.0915C5.50704 13.0857 5.50607 13.0799 5.50521 13.0741L4.28509 5.7534C4.16455 5.03012 3.53876 4.5 2.8055 4.5H2.49976C2.22361 4.5 1.99976 4.27614 1.99976 4C1.99976 3.72386 2.22361 3.5 2.49976 3.5H2.8055C3.99732 3.5 5.01878 4.34029 5.25501 5.5H19.6626C19.9948 5.5 20.2346 5.81795 20.1434 6.13736L18.1434 13.1374C18.0821 13.352 17.8859 13.5 17.6626 13.5H6.58999L6.71442 14.2466C6.83497 14.9699 7.46075 15.5 8.19401 15.5H19.4998C19.7759 15.5 19.9998 15.7239 19.9998 16C19.9998 16.2761 19.7759 16.5 19.4998 16.5H8.19401C6.97191 16.5 5.92894 15.6165 5.72802 14.411L5.50811 13.0915ZM5.42332 6.5L6.42332 12.5H17.2855L18.9998 6.5H5.42332ZM7.99976 21.5C6.89519 21.5 5.99976 20.6046 5.99976 19.5C5.99976 18.3954 6.89519 17.5 7.99976 17.5C9.10432 17.5 9.99975 18.3954 9.99975 19.5C9.99975 20.6046 9.10432 21.5 7.99976 21.5ZM7.99976 20.5C8.55204 20.5 8.99975 20.0523 8.99975 19.5C8.99975 18.9477 8.55204 18.5 7.99976 18.5C7.44747 18.5 6.99976 18.9477 6.99976 19.5C6.99976 20.0523 7.44747 20.5 7.99976 20.5ZM16.9998 21.5C15.8952 21.5 14.9998 20.6046 14.9998 19.5C14.9998 18.3954 15.8952 17.5 16.9998 17.5C18.1043 17.5 18.9998 18.3954 18.9998 19.5C18.9998 20.6046 18.1043 21.5 16.9998 21.5ZM16.9998 20.5C17.552 20.5 17.9998 20.0523 17.9998 19.5C17.9998 18.9477 17.552 18.5 16.9998 18.5C16.4475 18.5 15.9998 18.9477 15.9998 19.5C15.9998 20.0523 16.4475 20.5 16.9998 20.5Z" fill="white"/>
</svg>
