<svg width="24" height="25" viewBox="0 0 24 25" fill="none" xmlns="http://www.w3.org/2000/svg">
<path d="M5.50808 13.0915C5.50701 13.0857 5.50604 13.0799 5.50518 13.0741L4.28506 5.7534C4.16451 5.03012 3.53873 4.5 2.80547 4.5H2.49973C2.22358 4.5 1.99973 4.27614 1.99973 4C1.99973 3.72386 2.22358 3.5 2.49973 3.5H2.80547C3.99729 3.5 5.01875 4.34029 5.25498 5.5H19.6626C19.9948 5.5 20.2346 5.81795 20.1433 6.13736L18.1434 13.1374C18.082 13.352 17.8858 13.5 17.6626 13.5H6.58995L6.71439 14.2466C6.83494 14.9699 7.46072 15.5 8.19398 15.5H19.4997C19.7759 15.5 19.9997 15.7239 19.9997 16C19.9997 16.2761 19.7759 16.5 19.4997 16.5H8.19398C6.97188 16.5 5.92891 15.6165 5.72799 14.411L5.50808 13.0915ZM5.42329 6.5L6.42329 12.5H17.2854L18.9997 6.5H5.42329ZM7.99972 21.5C6.89516 21.5 5.99972 20.6046 5.99972 19.5C5.99972 18.3954 6.89516 17.5 7.99972 17.5C9.10429 17.5 9.99972 18.3954 9.99972 19.5C9.99972 20.6046 9.10429 21.5 7.99972 21.5ZM7.99972 20.5C8.55201 20.5 8.99972 20.0523 8.99972 19.5C8.99972 18.9477 8.55201 18.5 7.99972 18.5C7.44744 18.5 6.99972 18.9477 6.99972 19.5C6.99972 20.0523 7.44744 20.5 7.99972 20.5ZM16.9997 21.5C15.8952 21.5 14.9997 20.6046 14.9997 19.5C14.9997 18.3954 15.8952 17.5 16.9997 17.5C18.1043 17.5 18.9997 18.3954 18.9997 19.5C18.9997 20.6046 18.1043 21.5 16.9997 21.5ZM16.9997 20.5C17.552 20.5 17.9997 20.0523 17.9997 19.5C17.9997 18.9477 17.552 18.5 16.9997 18.5C16.4474 18.5 15.9997 18.9477 15.9997 19.5C15.9997 20.0523 16.4474 20.5 16.9997 20.5Z" fill="white"/>
</svg>
