<svg width="26" height="24" viewBox="0 0 26 24" fill="none" xmlns="http://www.w3.org/2000/svg">
<path d="M12.6005 20.4501L6.0852 23.8637C5.89185 23.9643 5.67434 24.0092 5.45695 23.9934C5.23956 23.9776 5.03084 23.9016 4.85411 23.7741C4.67738 23.6465 4.53958 23.4723 4.4561 23.271C4.37263 23.0696 4.34676 22.849 4.38139 22.6338L5.62625 15.4016L0.355846 10.2812C0.198535 10.1292 0.0871499 9.93591 0.0344079 9.72356C-0.0183342 9.51121 -0.0103092 9.28831 0.0575667 9.0803C0.125443 8.8723 0.250435 8.68756 0.418275 8.54719C0.586115 8.40682 0.79004 8.31647 1.00677 8.28645L8.28995 7.23057L11.5476 0.652317C11.645 0.456391 11.7952 0.291535 11.9812 0.176295C12.1672 0.0610542 12.3816 0 12.6005 0C12.8193 0 13.0337 0.0610542 13.2197 0.176295C13.4058 0.291535 13.5559 0.456391 13.6533 0.652317L16.911 7.23057L24.1941 8.28645C24.4102 8.31754 24.6133 8.40847 24.7804 8.54898C24.9475 8.68948 25.072 8.87393 25.1397 9.08149C25.2074 9.28904 25.2157 9.5114 25.1637 9.72342C25.1116 9.93544 25.0012 10.1287 24.8451 10.2812L19.5747 15.4016L20.8165 22.6308C20.8538 22.8464 20.8299 23.0681 20.7475 23.2708C20.6651 23.4734 20.5275 23.6489 20.3504 23.7773C20.1732 23.9057 19.9636 23.9819 19.7454 23.9971C19.5272 24.0124 19.309 23.9662 19.1157 23.8637L12.6005 20.4501Z" fill="url(#paint0_linear_240_1986)"/>
<defs>
<linearGradient id="paint0_linear_240_1986" x1="0" y1="0" x2="20.5" y2="24" gradientUnits="userSpaceOnUse">
<stop offset="0.178415" stop-color="#FFE500"/>
<stop offset="0.654647" stop-color="#FFE500"/>
<stop offset="0.965963" stop-color="#BCA900"/>
</linearGradient>
</defs>
</svg>
