<svg width="29" height="29" viewBox="0 0 29 29" fill="none" xmlns="http://www.w3.org/2000/svg">
<path fill-rule="evenodd" clip-rule="evenodd" d="M14.4008 10.0378C16.8923 10.4145 18.0414 11.5798 18.3586 14.0478C18.3881 14.2758 18.3017 14.6188 18.6324 14.6251C18.9781 14.6317 18.8947 14.2937 18.8976 14.0655C18.927 11.741 16.8662 9.58614 14.4728 9.50662C14.2922 9.53218 13.9186 9.38413 13.8953 9.78223C13.8798 10.0506 14.1944 10.0065 14.4008 10.0378Z" fill="white"/>
<path fill-rule="evenodd" clip-rule="evenodd" d="M18.2458 16.7275C17.4096 16.1474 16.3582 15.0371 15.5388 16.2738C15.2653 16.681 14.8826 16.6987 14.4823 16.5201C13.3788 16.028 12.5269 15.27 12.0277 14.1669C11.4391 12.7968 12.8801 13.0541 12.8534 12.0989C12.8247 11.5789 11.5409 9.84099 11.0339 9.65757C10.8241 9.58164 10.6151 9.5866 10.4017 9.65714C9.21287 10.0503 8.72047 11.0119 9.19204 12.1504C10.5989 15.5473 13.0747 17.912 16.4828 19.3553C16.6772 19.4375 16.893 19.4703 17.0023 19.4999C17.7782 19.5076 18.6871 18.7723 18.9496 18.0426C19.2024 17.3406 18.6683 17.0621 18.2458 16.7275Z" fill="white"/>
<path fill-rule="evenodd" clip-rule="evenodd" d="M14.8902 10.713C14.6505 10.6846 14.3341 10.5735 14.2782 10.9007C14.2197 11.244 14.5723 11.2091 14.7989 11.259C16.3378 11.5972 16.8735 12.1481 17.1269 13.6493C17.164 13.8682 17.0904 14.2088 17.4686 14.1523C17.7488 14.1103 17.6477 13.8183 17.6711 13.6478C17.6835 12.2065 16.4277 10.8946 14.8902 10.713Z" fill="white"/>
<path fill-rule="evenodd" clip-rule="evenodd" d="M15.0363 11.885C14.8764 11.8889 14.7194 11.9059 14.6606 12.074C14.5723 12.3254 14.758 12.3852 14.9471 12.4151C15.5784 12.5148 15.9106 12.8809 15.9737 13.5C15.9908 13.668 16.0992 13.8043 16.2642 13.785C16.4929 13.7582 16.5137 13.558 16.5066 13.3678C16.5178 12.6722 15.7185 11.8683 15.0363 11.885Z" fill="white"/>
<circle cx="14.6399" cy="14.375" r="9.375" stroke="white" stroke-width="2"/>
</svg>
