<svg width="42" height="42" viewBox="0 0 42 42" fill="none" xmlns="http://www.w3.org/2000/svg">
<g id="Group 316">
<circle id="Ellipse 23" cx="20.75" cy="20.75" r="19.75" stroke="white" stroke-width="2"/>
<g id="Group 314">
<path id="Vector" fill-rule="evenodd" clip-rule="evenodd" d="M25.2857 11H16.7143C13.5584 11 11 13.5584 11 16.7143V25.2857C11 28.4416 13.5584 31 16.7143 31H25.2857C28.4416 31 31 28.4416 31 25.2857V16.7143C31 13.5584 28.4416 11 25.2857 11Z" stroke="white" stroke-width="2.14286" stroke-linecap="round" stroke-linejoin="round"/>
<path id="Vector_2" fill-rule="evenodd" clip-rule="evenodd" d="M20.9996 25.2857C18.6326 25.2857 16.7139 23.367 16.7139 21C16.7139 18.633 18.6326 16.7143 20.9996 16.7143C23.3666 16.7143 25.2853 18.633 25.2853 21C25.2853 22.1366 24.8337 23.2267 24.03 24.0304C23.2263 24.8342 22.1362 25.2857 20.9996 25.2857Z" stroke="white" stroke-width="2.14286" stroke-linecap="round" stroke-linejoin="round"/>
<path id="Vector_3" d="M26.7143 14.5714C26.3198 14.5714 26 14.8912 26 15.2857C26 15.6802 26.3198 16 26.7143 16C27.1088 16 27.4286 15.6802 27.4286 15.2857C27.4286 14.8912 27.1088 14.5714 26.7143 14.5714Z" stroke="white" stroke-width="1.42857" stroke-linecap="round"/>
</g>
</g>
</svg>
