<svg width="390" height="391" viewBox="0 0 390 391" fill="none" xmlns="http://www.w3.org/2000/svg">
<g clip-path="url(#clip0_27_13511)">
<rect width="390" height="391" rx="60" fill="white"/>
<g opacity="0.2">
<mask id="mask0_27_13511" style="mask-type:luminance" maskUnits="userSpaceOnUse" x="-137" y="0" width="602" height="392">
<path d="M464.518 0H-137V391.066H464.518V0Z" fill="white"/>
</mask>
<g mask="url(#mask0_27_13511)">
<g opacity="0.4">
<path d="M-140.664 216.651C-129.68 213.053 -118.335 208.243 -106.669 206.483C-91.3948 204.176 -75.9606 205.427 -60.5665 205.623C-42.6066 205.857 -26.3306 211.019 -8.81171 215.204C-7.68922 215.491 -6.56672 215.764 -5.44423 216.025C37.7716 226.545 80.2257 239.098 124.564 242.266C150.582 244.104 176.84 244.612 202.898 242.344C229.276 240.036 254.853 233.662 280.029 225.02H280.069C286.443 222.83 292.817 220.522 299.151 218.059C340.803 202.025 380.973 181.416 423.908 170.036C436.255 166.79 454.896 164.248 467.565 165.147C468.366 165.186 466.282 165.226 467.565 165.304" stroke="url(#paint0_radial_27_13511)" stroke-opacity="0.53" stroke-width="1.5"/>
<path d="M-140.665 223.338C-136.295 221.813 -131.765 220.209 -127.235 218.723C-119.939 216.338 -112.201 214.578 -104.103 213.874C-88.1882 212.427 -71.6315 214.03 -54.714 214.148C-35.9123 214.304 -18.2732 217.941 0.528532 219.74C1.7312 219.818 2.89377 219.975 4.05635 220.053C7.90488 220.444 11.7133 220.835 15.5619 221.109C38.0116 222.712 60.261 226.584 81.5482 233.936C101.112 240.662 116.225 248.835 135.829 251.573C160.563 255.014 186.22 255.171 211.797 252.629C237.334 250.126 262.229 243.556 286.563 234.913C286.563 234.913 286.576 234.913 286.603 234.913C292.803 232.697 298.964 230.364 305.084 227.913C328.135 218.684 350.023 208.282 370.188 199.678C388.308 191.935 406.348 184.231 425.15 178.795C426.954 178.248 428.878 177.74 430.883 177.27C442.388 174.533 456.78 172.617 467.404 173.203C468.165 173.242 466.442 173.281 467.564 173.36" stroke="url(#paint1_radial_27_13511)" stroke-opacity="0.53" stroke-width="1.5"/>
<path d="M-140.665 230.025C-136.014 228.305 -131.163 226.623 -126.313 225.137C-118.776 222.83 -110.438 221.578 -101.498 221.226C-85.0212 220.601 -67.3019 222.673 -48.861 222.712C-29.2575 222.79 -10.2553 224.98 9.90937 224.237C11.1521 224.198 12.3949 224.159 13.5976 224.12C17.6064 224.003 21.5752 223.846 25.5841 223.494C49.7177 221.344 73.4904 223.885 95.1785 234.053C115.664 243.634 127.049 256.696 147.134 260.88C170.546 265.769 195.601 265.73 220.697 262.914C245.351 260.216 269.645 253.45 293.097 244.808C293.097 244.808 293.097 244.794 293.097 244.768C293.124 244.768 293.137 244.768 293.137 244.768C299.151 242.539 305.124 240.232 310.977 237.768C334.429 228.031 355.957 217.276 373.716 209.338C391.155 201.556 408.313 193.265 426.393 187.516C428.117 186.969 430.001 186.421 431.925 185.913C443.03 182.941 456.78 180.829 467.284 181.259C467.965 181.259 466.562 181.298 467.564 181.377" stroke="url(#paint2_radial_27_13511)" stroke-opacity="0.53" stroke-width="1.5" style="mix-blend-mode:lighten"/>
<path d="M-140.665 236.712C-135.774 234.796 -130.562 233.036 -125.431 231.55C-117.613 229.282 -108.674 228.813 -98.8919 228.617C-81.8541 228.305 -62.9723 231.277 -43.008 231.238C-22.5626 231.238 -2.27765 232.02 19.2902 228.735C20.573 228.539 21.8559 228.344 23.1387 228.148C27.308 227.522 31.4772 226.858 35.6064 225.88C61.4637 219.857 86.7197 221.187 108.849 234.131C130.216 246.646 137.873 264.478 158.439 270.188C180.488 276.327 204.982 276.288 229.597 273.238C253.409 270.344 277.062 263.344 299.632 254.662C299.632 254.662 299.645 254.662 299.672 254.662C305.485 252.433 311.258 250.087 316.91 247.623C340.683 237.338 361.85 226.232 377.284 218.997C394.041 211.176 410.317 202.338 427.596 196.276C429.319 195.651 431.083 195.103 432.927 194.556C443.671 191.388 456.74 189.081 467.123 189.315C467.725 189.315 466.682 189.354 467.564 189.393" stroke="url(#paint3_radial_27_13511)" stroke-width="1.5"/>
<path d="M-140.665 243.439C-135.533 241.288 -129.961 239.411 -124.509 237.964C-116.411 235.735 -106.91 235.501 -96.2861 236.009C-78.647 236.869 -58.6427 239.88 -37.1149 239.802C-15.9079 239.724 5.74012 239.137 28.671 233.232C29.9939 232.88 31.3569 232.568 32.6799 232.176C37.0095 231.042 41.3391 229.83 45.6286 228.266C73.1697 218.333 99.9089 218.567 122.479 234.249C144.728 249.696 148.737 272.104 169.744 279.495C190.47 286.808 214.403 286.847 238.496 283.523C261.467 280.434 284.478 273.238 306.166 264.557C311.819 262.289 317.391 259.942 322.803 257.518C346.937 246.646 367.743 235.149 380.852 228.657C396.888 220.718 412.282 211.333 428.838 204.997C430.495 204.372 432.206 203.772 433.97 203.198C444.313 199.796 456.7 197.059 467.003 197.372C467.524 197.372 466.843 197.372 467.564 197.411" stroke="url(#paint4_radial_27_13511)" stroke-opacity="0.53" stroke-width="1.5"/>
<path d="M-140.665 250.126C-135.253 247.78 -129.359 245.824 -123.587 244.338C-115.248 242.187 -105.186 242.383 -93.6804 243.361C-75.48 244.925 -54.3131 248.523 -31.2619 248.327C-9.25313 248.21 13.798 246.294 38.0117 237.729C39.4148 237.26 40.8179 236.752 42.221 236.243C46.6709 234.601 51.2009 232.802 55.6508 230.651C84.8355 216.69 113.058 215.947 136.149 234.366C159.241 252.785 159.601 279.652 181.049 288.842C200.532 297.171 223.784 297.406 247.396 293.808C269.485 290.523 291.855 283.132 312.701 274.45C312.701 274.424 312.701 274.411 312.701 274.411C318.153 272.143 323.525 269.797 328.736 267.372C353.191 255.914 373.636 244.025 384.42 238.316C399.734 230.26 414.206 220.327 430.081 213.718C431.658 213.066 433.288 212.44 434.972 211.841C444.954 208.243 456.66 205.623 466.843 205.427C467.324 205.427 466.963 205.427 467.564 205.427" stroke="url(#paint5_radial_27_13511)" stroke-opacity="0.53" stroke-width="1.5"/>
<path d="M-140.665 256.814C-135.012 254.272 -128.758 252.238 -122.705 250.752C-114.086 248.679 -103.422 249.305 -91.0746 250.752C-72.313 252.981 -49.9834 257.126 -25.409 256.892C-2.55828 256.657 21.8559 253.45 47.3925 242.266C48.8357 241.614 50.2923 240.949 51.7622 240.271C56.3724 238.121 61.0227 235.735 65.673 233.037C96.4613 215.048 126.207 213.366 149.78 234.484C173.673 255.875 170.586 287.082 192.354 298.149C210.634 307.457 233.164 308.004 256.296 304.133C277.543 300.613 299.271 293.026 319.195 284.306C319.195 284.306 319.209 284.306 319.235 284.306C324.527 281.998 329.658 279.652 334.629 277.227C359.445 265.182 379.449 252.825 387.948 247.975C402.5 239.685 416.21 229.361 431.324 222.478C432.847 221.774 434.411 221.109 436.014 220.484C445.596 216.651 456.66 213.953 466.722 213.483C467.123 213.483 467.083 213.444 467.564 213.444" stroke="url(#paint6_radial_27_13511)" stroke-opacity="0.53" stroke-width="1.5"/>
<path d="M-140.665 263.501C-134.731 260.763 -128.157 258.652 -121.783 257.166C-85.3018 248.797 -8.41128 292.753 75.6952 235.422C108.047 213.366 139.316 210.785 163.45 234.601C188.145 258.965 181.69 294.356 203.659 307.457C262.229 342.379 374.718 268.272 391.516 257.635C406.629 248.093 420.821 236.165 437.017 229.087C446.558 224.942 457.302 222.126 467.564 221.461" stroke="url(#paint7_radial_27_13511)" stroke-opacity="0.53" stroke-width="1.5"/>
<path d="M467.564 214.227C459.987 214.813 452.09 216.573 444.714 218.958C441.587 219.975 438.54 221.109 435.573 222.361C418.455 229.595 403.222 241.327 387.306 251.3C386.464 251.808 385.502 252.434 384.38 253.138C357.6 269.914 296.786 310.312 246.274 317.194C227.071 320.245 208.47 319.541 192.795 311.915C170.586 301.043 172.871 269.993 148.657 247.78C143.005 242.657 137.031 238.707 130.858 235.853C110.773 226.702 88.3634 229.048 65.5127 241.171C59.7399 244.104 54.0072 246.568 48.3145 248.64C47.5395 248.927 46.7644 249.201 45.9894 249.462C7.82475 263.618 -28.6161 258.925 -60.2863 253.802C-84.6203 249.892 -105.507 245.473 -120.74 248.523C-121.302 248.627 -121.849 248.745 -122.384 248.875C-128.558 250.361 -134.932 252.473 -140.665 255.171" stroke="url(#paint8_radial_27_13511)" stroke-opacity="0.53" stroke-width="1.5"/>
<path d="M467.564 206.992C459.587 207.735 451.328 209.69 443.711 212.154C440.464 213.21 437.257 214.383 434.13 215.634C416.09 223.025 399.854 234.601 383.097 244.964C382.175 245.512 381.173 246.177 380.01 246.88C344.131 269.132 285.04 310.624 237.935 318.406C218.291 322.434 198.929 322.982 181.971 316.334C159.601 307.613 157.677 280.903 133.824 260.959C128.252 256.266 122.399 252.551 116.385 249.657C97.0225 240.311 76.2966 239.528 55.3301 246.88C49.9582 248.562 44.6264 249.813 39.3346 250.791C38.6398 250.921 37.9315 251.052 37.2099 251.182C2.29249 258.691 -31.6628 250.752 -62.7718 244.808C-85.6626 240.467 -105.988 236.869 -121.382 240.193C-121.916 240.324 -122.437 240.454 -122.945 240.584C-128.959 242.109 -135.132 244.221 -140.665 246.841" stroke="url(#paint9_radial_27_13511)" stroke-opacity="0.53" stroke-width="1.5"/>
<path d="M467.564 199.796C459.226 200.618 450.567 202.808 442.709 205.31C439.302 206.405 435.934 207.618 432.647 208.908C413.725 216.417 396.487 227.836 378.888 238.629C377.899 239.229 376.816 239.894 375.64 240.624C330.661 268.272 273.253 310.937 229.597 319.58C209.552 324.586 189.468 326.306 171.107 320.792C148.737 314.027 142.443 291.892 119.031 274.138C113.459 269.915 107.726 266.395 101.913 263.423C83.232 253.92 64.2298 250.009 45.1475 252.629C40.1765 253.02 35.2857 253.099 30.3948 252.942C29.7267 252.942 29.0585 252.929 28.3904 252.903C-3.23978 253.764 -34.6695 242.579 -65.2172 235.814C-86.745 231.043 -106.429 228.227 -122.023 231.903C-122.531 232.007 -123.039 232.125 -123.547 232.255C-129.359 233.819 -135.333 235.931 -140.665 238.551" stroke="url(#paint10_radial_27_13511)" stroke-opacity="0.53" stroke-width="1.5"/>
<path d="M467.564 192.562C458.865 193.5 449.805 195.925 441.707 198.506C438.152 199.627 434.651 200.852 431.204 202.182C411.36 209.847 393.119 221.109 374.638 232.294C373.596 232.92 372.473 233.597 371.271 234.327C317.151 267.412 261.467 311.211 221.258 320.792C221.231 320.792 221.218 320.792 221.218 320.792C200.773 326.775 180.007 329.552 160.283 325.25C137.873 320.323 127.169 302.881 104.239 287.317C98.7063 283.563 93.0538 280.239 87.4413 277.227C69.4815 267.568 52.123 260.529 34.9649 258.378C30.3948 257.479 25.9049 256.344 21.4149 255.093C20.8269 254.937 20.2256 254.78 19.6109 254.624C-8.77205 248.836 -37.7162 234.484 -67.6627 226.819C-87.7873 221.696 -106.91 219.584 -122.665 223.573C-123.146 223.703 -123.627 223.834 -124.108 223.964C-129.76 225.528 -135.493 227.64 -140.665 230.221" stroke="url(#paint11_radial_27_13511)" stroke-opacity="0.53" stroke-width="1.5"/>
<path d="M467.564 185.327C458.504 186.383 449.043 189.042 440.665 191.662C436.976 192.835 433.342 194.1 429.76 195.455C408.994 203.277 389.752 214.344 370.429 225.919C369.306 226.597 368.13 227.314 366.901 228.07C303.641 266.512 249.721 311.524 212.879 322.004C191.993 328.965 170.586 332.68 149.419 329.669C127.049 326.502 111.896 313.909 89.4458 300.496C83.9135 297.211 78.3812 294.082 72.9291 290.993C55.6909 281.177 40.0562 271.009 24.7824 264.127C20.6131 261.937 16.524 259.629 12.4751 257.244C11.9138 256.931 11.3659 256.631 10.8314 256.344C-14.3043 243.908 -40.7229 226.428 -70.1081 217.824C-88.8296 212.349 -107.391 210.941 -123.306 215.282C-123.76 215.387 -124.228 215.517 -124.709 215.673C-130.161 217.277 -135.694 219.349 -140.665 221.891" stroke="url(#paint12_radial_27_13511)" stroke-opacity="0.53" stroke-width="1.5"/>
<path d="M467.564 178.092C458.143 179.304 448.241 182.12 439.662 184.818C435.814 186.043 432.019 187.347 428.277 188.729C406.629 196.707 386.384 207.578 366.22 219.584C365.017 220.314 363.787 221.057 362.531 221.813C290.051 265.495 237.935 311.836 204.541 323.216C183.254 331.155 161.125 335.691 138.595 334.127C116.225 332.563 96.6217 324.937 74.6529 313.674C69.1608 310.898 63.7488 307.965 58.457 304.758C41.9404 294.786 27.9895 281.49 14.5597 269.836C10.8314 266.395 7.18333 262.875 3.49515 259.434C3.01408 258.964 2.51965 258.495 2.01186 258.026C-19.7965 238.981 -43.8098 218.45 -72.5535 208.83C-89.912 203.042 -107.872 202.26 -123.947 206.952C-124.402 207.083 -124.843 207.213 -125.27 207.344C-130.562 208.986 -135.894 211.098 -140.665 213.601" stroke="url(#paint13_radial_27_13511)" stroke-opacity="0.53" stroke-width="1.5"/>
<path d="M467.564 170.857C457.783 172.187 447.48 175.237 438.66 178.014C410.237 186.891 384.019 199.992 358.162 215.517C276.541 264.596 226.149 312.111 196.203 324.429C174.474 333.345 151.664 338.586 127.731 338.586C99.6283 338.547 68.9603 334.558 43.9849 318.563C28.1498 308.434 15.9227 291.971 4.37711 275.585C1.08982 270.853 -2.19747 266.121 -5.44467 261.585C-5.89901 260.959 -6.34 260.346 -6.76761 259.747C-25.3288 234.093 -46.8966 210.551 -74.9989 199.875C-91.0345 193.774 -108.353 193.617 -124.549 198.623C-130.081 200.344 -135.694 202.612 -140.665 205.271" stroke="url(#paint14_radial_27_13511)" stroke-opacity="0.53" stroke-width="1.5"/>
</g>
<path d="M22.4175 177.672C22.4175 153.817 2.61362 134.499 -21.8005 134.499C-46.2146 134.499 -66.0186 153.817 -66.0186 177.672C-66.0186 201.488 -46.2146 220.807 -21.8005 220.807C2.61362 220.807 22.4175 201.488 22.4175 177.672Z" fill="#C8A7D9" fill-opacity="0.18"/>
<path d="M385.703 218.293C385.703 206.444 375.881 196.863 363.734 196.863C351.627 196.863 341.766 206.444 341.766 218.293C341.766 230.103 351.627 239.724 363.734 239.724C375.881 239.724 385.703 230.103 385.703 218.293Z" fill="#C8A7D9" fill-opacity="0.18"/>
<path d="M396.647 191.388C396.647 186.5 392.558 182.55 387.547 182.55C382.576 182.55 378.487 186.5 378.487 191.388C378.487 196.276 382.576 200.265 387.547 200.265C392.558 200.265 396.647 196.276 396.647 191.388Z" fill="#F0E1F7" fill-opacity="0.44"/>
<path d="M322.001 332.132C322.001 330.92 320.999 329.943 319.757 329.943C318.514 329.943 317.512 330.92 317.512 332.132C317.512 333.305 318.514 334.283 319.757 334.283C320.999 334.283 322.001 333.305 322.001 332.132Z" fill="#C8A7D9" fill-opacity="0.18"/>
<path d="M330.46 332.132C330.46 330.92 329.458 329.943 328.216 329.943C326.973 329.943 325.971 330.92 325.971 332.132C325.971 333.305 326.973 334.283 328.216 334.283C329.458 334.283 330.46 333.305 330.46 332.132Z" fill="#F0E1F7" fill-opacity="0.44"/>
<path d="M338.919 332.132C338.919 330.92 337.917 329.943 336.674 329.943C335.472 329.943 334.47 330.92 334.47 332.132C334.47 333.305 335.472 334.283 336.674 334.283C337.917 334.283 338.919 333.305 338.919 332.132Z" fill="#F0E1F7" fill-opacity="0.44"/>
<path d="M347.378 332.132C347.378 330.92 346.376 329.943 345.133 329.943C343.931 329.943 342.929 330.92 342.929 332.132C342.929 333.305 343.931 334.283 345.133 334.283C346.376 334.283 347.378 333.305 347.378 332.132Z" fill="#F0E1F7" fill-opacity="0.44"/>
<path d="M355.836 332.132C355.836 330.92 354.834 329.943 353.632 329.943C352.389 329.943 351.387 330.92 351.387 332.132C351.387 333.305 352.389 334.283 353.632 334.283C354.834 334.283 355.836 333.305 355.836 332.132Z" fill="#C8A7D9" fill-opacity="0.18"/>
<path d="M322.001 339.914C322.001 338.702 320.999 337.725 319.757 337.725C318.514 337.725 317.512 338.702 317.512 339.914C317.512 341.126 318.514 342.104 319.757 342.104C320.999 342.104 322.001 341.126 322.001 339.914Z" fill="#F0E1F7" fill-opacity="0.44"/>
<path d="M330.46 339.914C330.46 338.702 329.458 337.725 328.216 337.725C326.973 337.725 325.971 338.702 325.971 339.914C325.971 341.126 326.973 342.104 328.216 342.104C329.458 342.104 330.46 341.126 330.46 339.914Z" fill="#C8A7D9" fill-opacity="0.18"/>
<path d="M338.919 339.914C338.919 338.702 337.917 337.725 336.674 337.725C335.472 337.725 334.47 338.702 334.47 339.914C334.47 341.126 335.472 342.104 336.674 342.104C337.917 342.104 338.919 341.126 338.919 339.914Z" fill="#F0E1F7" fill-opacity="0.44"/>
<path d="M347.378 339.914C347.378 338.702 346.376 337.725 345.133 337.725C343.931 337.725 342.929 338.702 342.929 339.914C342.929 341.126 343.931 342.104 345.133 342.104C346.376 342.104 347.378 341.126 347.378 339.914Z" fill="#C8A7D9" fill-opacity="0.18"/>
<path d="M355.836 339.914C355.836 338.702 354.834 337.725 353.632 337.725C352.389 337.725 351.387 338.702 351.387 339.914C351.387 341.126 352.389 342.104 353.632 342.104C354.834 342.104 355.836 341.126 355.836 339.914Z" fill="#F0E1F7" fill-opacity="0.44"/>
<path d="M322.001 347.696C322.001 346.484 320.999 345.507 319.757 345.507C318.514 345.507 317.512 346.484 317.512 347.696C317.512 348.909 318.514 349.886 319.757 349.886C320.999 349.886 322.001 348.909 322.001 347.696Z" fill="#F0E1F7" fill-opacity="0.44"/>
<path d="M330.46 347.696C330.46 346.484 329.458 345.507 328.216 345.507C326.973 345.507 325.971 346.484 325.971 347.696C325.971 348.909 326.973 349.886 328.216 349.886C329.458 349.886 330.46 348.909 330.46 347.696Z" fill="#F0E1F7" fill-opacity="0.44"/>
<path d="M338.919 347.696C338.919 346.484 337.917 345.507 336.674 345.507C335.472 345.507 334.47 346.484 334.47 347.696C334.47 348.909 335.472 349.886 336.674 349.886C337.917 349.886 338.919 348.909 338.919 347.696Z" fill="#C8A7D9" fill-opacity="0.18"/>
<path d="M347.378 347.696C347.378 346.484 346.376 345.507 345.133 345.507C343.931 345.507 342.929 346.484 342.929 347.696C342.929 348.909 343.931 349.886 345.133 349.886C346.376 349.886 347.378 348.909 347.378 347.696Z" fill="#F0E1F7" fill-opacity="0.44"/>
<path d="M355.836 347.696C355.836 346.484 354.834 345.507 353.632 345.507C352.389 345.507 351.387 346.484 351.387 347.696C351.387 348.909 352.389 349.886 353.632 349.886C354.834 349.886 355.836 348.909 355.836 347.696Z" fill="#F0E1F7" fill-opacity="0.44"/>
<path d="M67.5571 308.629V304.21" stroke="#C8A7D9" stroke-opacity="0.18" stroke-width="4" stroke-linecap="round" stroke-linejoin="round"/>
<path d="M61.8245 309.372L60.6621 305.071" stroke="#C8A7D9" stroke-opacity="0.18" stroke-width="4" stroke-linecap="round" stroke-linejoin="round"/>
<path d="M56.4922 311.522L54.2075 307.69" stroke="#C8A7D9" stroke-opacity="0.18" stroke-width="4" stroke-linecap="round" stroke-linejoin="round"/>
<path d="M51.9224 314.964L48.6758 311.836" stroke="#C8A7D9" stroke-opacity="0.18" stroke-width="4" stroke-linecap="round" stroke-linejoin="round"/>
<path d="M48.3944 319.423L44.4663 317.194" stroke="#C8A7D9" stroke-opacity="0.18" stroke-width="4" stroke-linecap="round" stroke-linejoin="round"/>
<path d="M46.1893 324.624L41.7803 323.49" stroke="#C8A7D9" stroke-opacity="0.18" stroke-width="4" stroke-linecap="round" stroke-linejoin="round"/>
<path d="M45.4278 330.216H40.8584" stroke="#C8A7D9" stroke-opacity="0.18" stroke-width="4" stroke-linecap="round" stroke-linejoin="round"/>
<path d="M46.1893 335.809L41.7803 336.982" stroke="#C8A7D9" stroke-opacity="0.18" stroke-width="4" stroke-linecap="round" stroke-linejoin="round"/>
<path d="M48.3944 341.049L44.4663 343.238" stroke="#C8A7D9" stroke-opacity="0.18" stroke-width="4" stroke-linecap="round" stroke-linejoin="round"/>
<path d="M51.9224 345.507L48.6758 348.635" stroke="#C8A7D9" stroke-opacity="0.18" stroke-width="4" stroke-linecap="round" stroke-linejoin="round"/>
<path d="M56.4922 348.949L54.2075 352.781" stroke="#C8A7D9" stroke-opacity="0.18" stroke-width="4" stroke-linecap="round" stroke-linejoin="round"/>
<path d="M61.8245 351.1L60.6621 355.362" stroke="#C8A7D9" stroke-opacity="0.18" stroke-width="4" stroke-linecap="round" stroke-linejoin="round"/>
<path d="M67.5571 351.842V356.261" stroke="#C8A7D9" stroke-opacity="0.18" stroke-width="4" stroke-linecap="round" stroke-linejoin="round"/>
<path d="M73.29 351.1L74.4925 355.362" stroke="#C8A7D9" stroke-opacity="0.18" stroke-width="4" stroke-linecap="round" stroke-linejoin="round"/>
<path d="M78.6221 348.949L80.9067 352.781" stroke="#C8A7D9" stroke-opacity="0.18" stroke-width="4" stroke-linecap="round" stroke-linejoin="round"/>
<path d="M83.2319 345.507L86.4385 348.635" stroke="#C8A7D9" stroke-opacity="0.18" stroke-width="4" stroke-linecap="round" stroke-linejoin="round"/>
<path d="M86.7598 341.049L90.6878 343.238" stroke="#C8A7D9" stroke-opacity="0.18" stroke-width="4" stroke-linecap="round" stroke-linejoin="round"/>
<path d="M88.9653 335.809L93.3343 336.982" stroke="#C8A7D9" stroke-opacity="0.18" stroke-width="4" stroke-linecap="round" stroke-linejoin="round"/>
<path d="M89.7266 330.216H94.2559" stroke="#C8A7D9" stroke-opacity="0.18" stroke-width="4" stroke-linecap="round" stroke-linejoin="round"/>
<path d="M88.9653 324.624L93.3343 323.49" stroke="#C8A7D9" stroke-opacity="0.18" stroke-width="4" stroke-linecap="round" stroke-linejoin="round"/>
<path d="M86.7598 319.423L90.6878 317.194" stroke="#C8A7D9" stroke-opacity="0.18" stroke-width="4" stroke-linecap="round" stroke-linejoin="round"/>
<path d="M83.2319 314.964L86.4385 311.836" stroke="#C8A7D9" stroke-opacity="0.18" stroke-width="4" stroke-linecap="round" stroke-linejoin="round"/>
<path d="M78.6221 311.522L80.9067 307.69" stroke="#C8A7D9" stroke-opacity="0.18" stroke-width="4" stroke-linecap="round" stroke-linejoin="round"/>
<path d="M73.29 309.372L74.4925 305.071" stroke="#C8A7D9" stroke-opacity="0.18" stroke-width="4" stroke-linecap="round" stroke-linejoin="round"/>
<path d="M399.814 15.3691L391.636 29.3302H407.952L399.814 15.3691Z" stroke="#C8A7D9" stroke-opacity="0.18" stroke-width="4" stroke-linecap="round" stroke-linejoin="round"/>
<path d="M202.855 49.1178C202.855 47.9057 201.853 46.9282 200.61 46.9282C199.408 46.9282 198.406 47.9057 198.406 49.1178C198.406 50.2908 199.408 51.2683 200.61 51.2683C201.853 51.2683 202.855 50.2908 202.855 49.1178Z" fill="#C8A7D9" fill-opacity="0.18"/>
<path d="M211.314 49.1178C211.314 47.9057 210.312 46.9282 209.069 46.9282C207.867 46.9282 206.865 47.9057 206.865 49.1178C206.865 50.2908 207.867 51.2683 209.069 51.2683C210.312 51.2683 211.314 50.2908 211.314 49.1178Z" fill="#F0E1F7" fill-opacity="0.44"/>
<path d="M219.772 49.1178C219.772 47.9057 218.77 46.9282 217.568 46.9282C216.325 46.9282 215.323 47.9057 215.323 49.1178C215.323 50.2908 216.325 51.2683 217.568 51.2683C218.77 51.2683 219.772 50.2908 219.772 49.1178Z" fill="#F0E1F7" fill-opacity="0.44"/>
<path d="M228.231 49.1178C228.231 47.9057 227.269 46.9282 226.026 46.9282C224.784 46.9282 223.782 47.9057 223.782 49.1178C223.782 50.2908 224.784 51.2683 226.026 51.2683C227.269 51.2683 228.231 50.2908 228.231 49.1178Z" fill="#F0E1F7" fill-opacity="0.44"/>
<path d="M236.73 49.1178C236.73 47.9057 235.728 46.9282 234.486 46.9282C233.243 46.9282 232.241 47.9057 232.241 49.1178C232.241 50.2908 233.243 51.2683 234.486 51.2683C235.728 51.2683 236.73 50.2908 236.73 49.1178Z" fill="#C8A7D9" fill-opacity="0.18"/>
<path d="M202.855 56.9001C202.855 55.688 201.853 54.7104 200.61 54.7104C199.408 54.7104 198.406 55.688 198.406 56.9001C198.406 58.1122 199.408 59.0897 200.61 59.0897C201.853 59.0897 202.855 58.1122 202.855 56.9001Z" fill="#F0E1F7" fill-opacity="0.44"/>
<path d="M211.314 56.9001C211.314 55.688 210.312 54.7104 209.069 54.7104C207.867 54.7104 206.865 55.688 206.865 56.9001C206.865 58.1122 207.867 59.0897 209.069 59.0897C210.312 59.0897 211.314 58.1122 211.314 56.9001Z" fill="#C8A7D9" fill-opacity="0.18"/>
<path d="M219.772 56.9001C219.772 55.688 218.77 54.7104 217.568 54.7104C216.325 54.7104 215.323 55.688 215.323 56.9001C215.323 58.1122 216.325 59.0897 217.568 59.0897C218.77 59.0897 219.772 58.1122 219.772 56.9001Z" fill="#F0E1F7" fill-opacity="0.44"/>
<path d="M228.231 56.9001C228.231 55.688 227.269 54.7104 226.026 54.7104C224.784 54.7104 223.782 55.688 223.782 56.9001C223.782 58.1122 224.784 59.0897 226.026 59.0897C227.269 59.0897 228.231 58.1122 228.231 56.9001Z" fill="#C8A7D9" fill-opacity="0.18"/>
<path d="M236.73 56.9001C236.73 55.688 235.728 54.7104 234.486 54.7104C233.243 54.7104 232.241 55.688 232.241 56.9001C232.241 58.1122 233.243 59.0897 234.486 59.0897C235.728 59.0897 236.73 58.1122 236.73 56.9001Z" fill="#F0E1F7" fill-opacity="0.44"/>
<path d="M202.855 64.6823C202.855 63.4702 201.853 62.4927 200.61 62.4927C199.408 62.4927 198.406 63.4702 198.406 64.6823C198.406 65.8944 199.408 66.8719 200.61 66.8719C201.853 66.8719 202.855 65.8944 202.855 64.6823Z" fill="#F0E1F7" fill-opacity="0.44"/>
<path d="M211.314 64.6823C211.314 63.4702 210.312 62.4927 209.069 62.4927C207.867 62.4927 206.865 63.4702 206.865 64.6823C206.865 65.8944 207.867 66.8719 209.069 66.8719C210.312 66.8719 211.314 65.8944 211.314 64.6823Z" fill="#F0E1F7" fill-opacity="0.44"/>
<path d="M219.772 64.6823C219.772 63.4702 218.77 62.4927 217.568 62.4927C216.325 62.4927 215.323 63.4702 215.323 64.6823C215.323 65.8944 216.325 66.8719 217.568 66.8719C218.77 66.8719 219.772 65.8944 219.772 64.6823Z" fill="#C8A7D9" fill-opacity="0.18"/>
<path d="M228.231 64.6823C228.231 63.4702 227.269 62.4927 226.026 62.4927C224.784 62.4927 223.782 63.4702 223.782 64.6823C223.782 65.8944 224.784 66.8719 226.026 66.8719C227.269 66.8719 228.231 65.8944 228.231 64.6823Z" fill="#F0E1F7" fill-opacity="0.44"/>
<path d="M236.73 64.6823C236.73 63.4702 235.728 62.4927 234.486 62.4927C233.243 62.4927 232.241 63.4702 232.241 64.6823C232.241 65.8944 233.243 66.8719 234.486 66.8719C235.728 66.8719 236.73 65.8944 236.73 64.6823Z" fill="#F0E1F7" fill-opacity="0.44"/>
<path d="M237.533 41.4536H242.343V46.1456" stroke="#C8A7D9" stroke-opacity="0.18" stroke-width="4" stroke-linecap="round" stroke-linejoin="round"/>
<path d="M268.683 107.387C268.683 103.515 265.476 100.387 261.548 100.387C257.579 100.387 254.372 103.515 254.372 107.387C254.372 111.219 257.579 114.348 261.548 114.348C265.476 114.348 268.683 111.219 268.683 107.387Z" stroke="#C8A7D9" stroke-opacity="0.18" stroke-width="4" stroke-linecap="round" stroke-linejoin="round"/>
<path d="M14.079 23.9727H3.13477V34.6879H14.079V23.9727Z" stroke="#C8A7D9" stroke-opacity="0.18" stroke-width="4" stroke-linecap="round" stroke-linejoin="round"/>
<path d="M231.52 363.145H220.536V373.86H231.52V363.145Z" stroke="#F0E1F7" stroke-opacity="0.44" stroke-width="4" stroke-linecap="round" stroke-linejoin="round"/>
<path d="M-146.357 203.081C-136.495 221.891 -115.248 220.992 -101.056 217.629C-81.0521 212.897 -61.5689 199.405 -47.2973 178.835C-14.1838 131.008 18.2882 79.8169 65.7134 80.0516C90.7689 80.1689 120.114 105.314 141.201 123.421C161.847 141.136 173.432 167.846 207.909 190.606C227.793 203.746 241.062 151.343 261.387 139.65C281.833 127.918 310.256 148.918 329.619 134.214C351.868 117.32 374.478 100.191 399.494 94.6775C425.672 88.8897 451.329 97.6887 473.498 118.884" stroke="url(#paint15_radial_27_13511)" stroke-opacity="0.53" stroke-width="1.5"/>
<path d="M-146.397 207.892C-136.055 226.35 -114.888 225.685 -100.215 222.126C-80.1706 217.277 -60.4469 203.707 -45.4937 183.02C-27.8546 158.539 -11.8992 132.025 6.62184 113.019C24.5416 94.5997 44.7464 81.8509 67.7975 82.2811C92.6526 82.7504 120.795 108.091 141.2 126.902C161.245 145.438 172.71 172.5 206.345 194.439C226.189 207.266 240.901 158.735 261.988 147.276C267.841 144.07 274.255 143.248 280.87 143.405C297.747 143.757 315.667 149.936 329.257 138.947C335.672 133.784 342.086 128.622 348.7 123.891C364.656 112.393 381.253 102.538 399.012 98.4712C425.19 92.5661 451.047 101.052 473.497 122.717" stroke="url(#paint16_radial_27_13511)" stroke-opacity="0.53" stroke-width="1.5"/>
<path d="M-146.397 212.702C-135.573 230.769 -114.527 230.378 -99.3732 226.584C-79.2887 221.657 -59.3645 208.009 -43.6897 187.204C-25.329 162.684 -10.2155 134.997 8.18531 115.874C26.1852 97.1024 46.9513 83.767 69.8821 84.51C94.5368 85.2922 121.517 110.868 141.24 130.421C160.603 149.779 171.908 177.271 204.821 198.271C224.545 210.824 240.781 166.126 262.589 154.863C268.523 151.813 274.937 150.874 281.592 150.796C298.389 150.6 315.627 155.058 328.896 143.717C335.15 138.321 341.484 132.963 348.059 128.153C363.974 116.499 380.691 106.449 398.571 102.304C424.749 96.242 450.767 104.454 473.537 126.589" stroke="url(#paint17_radial_27_13511)" stroke-opacity="0.53" stroke-width="1.5"/>
<path d="M-146.438 217.511C-135.092 235.227 -114.166 235.031 -98.5313 231.081C-78.4066 225.997 -58.2419 212.31 -41.9257 191.427C-22.8033 166.829 -8.5317 137.968 9.74884 118.728C27.7888 99.644 49.1963 85.722 71.9668 86.7388C96.421 87.8338 122.278 113.605 141.24 133.94C160.002 154.041 171.147 181.963 203.298 202.064C222.901 214.344 240.621 173.477 263.191 162.449C269.204 159.516 275.658 158.499 282.273 158.187C298.99 157.444 315.587 160.259 328.536 148.449C334.709 142.857 340.883 137.304 347.418 132.454C363.333 120.605 380.09 110.398 398.13 106.097C424.268 99.9177 450.486 107.856 473.577 130.421" stroke="url(#paint18_radial_27_13511)" stroke-opacity="0.53" stroke-width="1.5"/>
<path d="M-146.438 222.322C-134.651 239.685 -113.805 239.685 -97.6894 235.54C-77.5247 230.378 -57.1595 216.612 -40.1217 195.612C-20.2777 170.975 -6.84797 140.941 11.3123 121.583C29.3924 102.147 51.4012 87.6386 74.0514 89.0074C98.3453 90.4152 123 116.343 141.281 137.421C159.401 158.382 170.425 186.657 201.775 205.897C221.298 217.864 240.46 180.869 263.792 170.075C269.886 167.26 276.38 166.087 282.955 165.578C299.632 164.288 315.547 165.422 328.175 153.22C334.228 147.394 340.282 141.684 346.816 136.717C362.651 124.712 379.529 114.309 397.649 109.929C423.827 103.594 450.206 111.259 473.577 134.254" stroke="url(#paint19_radial_27_13511)" stroke-opacity="0.53" stroke-width="1.5"/>
<path d="M-146.438 227.132C-134.17 244.143 -113.484 244.339 -96.8475 240.037C-76.6427 234.719 -56.0771 220.914 -38.3178 199.797C-17.7522 175.12 -5.08407 143.913 12.8758 124.399C31.0761 104.689 53.6061 89.555 76.136 91.2366C100.229 92.9573 123.722 119.12 141.28 140.941C158.799 162.684 169.663 191.35 200.251 209.73C219.694 221.383 240.26 188.221 264.393 177.662C270.567 174.964 277.062 173.673 283.676 172.969C300.233 171.131 315.507 170.584 327.814 157.992C333.747 151.93 339.68 146.025 346.175 141.019C361.97 128.818 378.968 118.259 397.208 113.723C423.386 107.27 449.925 114.622 473.617 138.086" stroke="url(#paint20_radial_27_13511)" stroke-opacity="0.53" stroke-width="1.5"/>
<path d="M-146.478 231.942C-133.689 248.601 -113.124 249.031 -96.0056 244.495C-75.7607 239.098 -54.9546 225.215 -36.5137 203.981C-15.2265 179.304 -3.40029 146.885 14.4393 127.253C32.6797 107.192 55.8511 91.4709 78.2608 93.4653C102.114 95.538 124.443 121.896 141.321 144.46C158.158 167.025 168.902 196.042 198.728 213.562C218.091 224.903 240.1 195.573 264.995 185.288C271.249 182.667 277.783 181.299 284.358 180.36C300.874 177.975 315.467 175.746 327.453 162.723C333.226 156.466 339.079 150.365 345.533 145.321C361.328 132.924 378.406 122.209 396.727 117.555C422.905 110.985 449.644 118.024 473.617 141.918" stroke="url(#paint21_radial_27_13511)" stroke-opacity="0.53" stroke-width="1.5"/>
<path d="M-146.478 236.752C-133.208 253.059 -112.763 253.724 -95.1638 248.953C-74.8788 243.478 -53.8722 229.517 -34.7097 208.165C-12.7009 183.449 -1.71654 149.857 16.0027 130.108C34.3234 109.694 58.056 93.3869 80.3454 95.6942C103.998 98.0797 125.165 124.672 141.321 147.941C157.557 171.326 168.18 200.735 197.205 217.355C216.447 228.422 239.939 202.924 265.596 192.874C271.93 190.41 278.465 188.924 285.039 187.751C301.476 184.818 315.427 180.907 327.133 167.494C332.745 161.002 338.518 154.706 344.932 149.583C360.647 137.03 377.845 126.119 396.286 121.348C422.464 114.661 449.364 121.426 473.658 145.751" stroke="url(#paint22_radial_27_13511)" stroke-opacity="0.53" stroke-width="1.5"/>
<path d="M-146.478 241.562C-132.767 257.517 -112.402 258.378 -94.3219 253.45C-73.9968 247.858 -52.7497 233.819 -32.9458 212.349C-10.2154 187.595 0.00729922 152.829 17.5662 132.963C35.927 112.197 60.2609 95.3029 82.4301 97.9231C105.922 100.621 125.886 127.449 141.361 151.46C156.915 175.667 167.459 205.388 195.641 221.187C214.844 231.941 239.739 210.237 266.198 200.461C272.572 198.114 279.186 196.511 285.761 195.103C302.117 191.662 315.387 186.069 326.772 172.226C332.264 165.538 337.917 159.047 344.291 153.885C359.965 141.136 377.284 130.069 395.805 125.18C421.983 118.337 449.083 124.828 473.698 149.583" stroke="url(#paint23_radial_27_13511)" stroke-opacity="0.53" stroke-width="1.5"/>
<path d="M-146.518 246.373C-132.286 261.937 -112.041 263.071 -93.48 257.909C-73.1148 252.239 -51.6672 238.121 -31.1417 216.534C-7.68972 191.741 1.69108 155.802 19.1298 135.818C37.5306 114.701 62.5059 97.2591 84.5147 100.153C107.806 103.203 126.568 130.226 141.361 154.981C156.314 179.97 166.697 210.043 194.118 225.02C213.24 235.462 239.539 217.551 266.799 208.087C273.253 205.819 279.868 204.138 286.443 202.495C302.719 198.506 315.347 191.193 326.411 176.998C331.783 170.076 337.315 163.388 343.649 158.148C359.324 145.243 376.723 133.98 395.364 128.975C421.542 122.014 448.803 128.232 473.698 153.416" stroke="url(#paint24_radial_27_13511)" stroke-opacity="0.53" stroke-width="1.5"/>
<path d="M-146.518 251.182C-131.805 266.395 -111.68 267.763 -92.6381 262.406C-72.1928 256.618 -50.5848 242.422 -29.3377 220.757C-5.16412 195.885 3.37481 158.773 20.6932 138.672C39.1742 117.203 64.7108 99.1748 86.5994 102.381C109.691 105.745 127.29 133.002 141.361 158.46C155.673 184.31 165.975 214.696 192.594 228.852C211.637 238.942 239.378 224.863 267.4 215.673C273.935 213.523 280.59 211.724 287.164 209.886C303.36 205.349 315.306 196.355 326.05 181.729C331.302 174.572 336.714 167.768 343.048 162.449C358.643 149.349 376.161 137.929 394.923 132.806C421.061 125.689 448.522 131.594 473.738 157.248" stroke="url(#paint25_radial_27_13511)" stroke-opacity="0.53" stroke-width="1.5"/>
<path d="M-146.558 255.992C-131.364 270.853 -111.319 272.456 -91.8363 266.864C-71.3108 261.037 -49.4623 246.724 -27.5337 224.942C-2.63849 200.031 5.01848 161.706 22.2567 141.527C40.7377 119.667 66.9157 101.091 88.684 104.611C111.575 108.326 128.011 135.779 141.401 161.98C155.031 188.651 165.254 219.35 191.071 232.646C210.073 242.462 239.178 232.176 268.002 223.26C274.616 221.227 281.311 219.349 287.846 217.277C304.002 212.193 315.226 201.517 325.69 186.5C330.821 179.109 336.113 172.109 342.407 166.712C358.001 153.455 375.6 141.84 394.442 136.6C420.62 129.365 448.201 134.997 473.778 161.081" stroke="url(#paint26_radial_27_13511)" stroke-opacity="0.53" stroke-width="1.5"/>
<path d="M-146.558 260.803C-130.883 275.312 -110.959 277.111 -90.9944 271.362C-70.4288 265.418 -48.3799 251.027 -25.7297 229.127C-0.112886 204.177 6.70223 164.679 23.8202 144.383C42.3413 122.17 69.1607 103.008 90.7686 106.88C113.499 110.868 128.693 138.556 141.401 165.5C154.39 192.992 164.532 224.004 189.548 236.479C208.47 245.943 238.977 239.49 268.603 230.887C275.298 228.931 281.993 226.976 288.527 224.669C304.603 219.037 315.186 206.68 325.329 191.232C330.34 183.646 335.511 176.45 341.765 171.014C357.32 157.562 375.039 145.791 394.001 140.433C420.179 133.042 447.921 138.399 473.778 164.953" stroke="url(#paint27_radial_27_13511)" stroke-opacity="0.53" stroke-width="1.5"/>
<path d="M-146.558 265.613C-130.402 279.769 -110.598 281.842 -90.1525 275.82C-69.5468 269.836 -47.2574 255.328 -23.9658 233.311C2.41273 208.361 8.38598 167.651 25.3837 147.237C43.9849 124.673 71.3657 104.924 92.8533 109.108C115.383 113.41 129.334 141.371 141.441 168.98C153.708 197.333 163.851 228.618 188.024 240.311C206.866 249.423 238.777 246.763 269.164 238.473C275.939 236.635 282.714 234.601 289.249 232.059C305.244 225.92 315.106 211.802 324.968 196.003C329.819 188.182 334.91 180.791 341.164 175.316C356.638 161.667 374.478 149.74 393.52 144.226C419.698 136.756 447.64 141.801 473.818 168.785" stroke="url(#paint28_radial_27_13511)" stroke-opacity="0.53" stroke-width="1.5"/>
<path d="M-146.598 270.423C-129.961 284.227 -110.237 286.535 -89.3106 280.317C-68.6247 274.216 -46.175 259.629 -22.1617 237.495C4.9384 212.506 10.1099 170.623 26.9071 150.053C45.5885 127.175 73.5706 106.84 94.938 111.337C117.268 115.991 130.056 144.147 141.441 172.5C153.067 201.673 163.129 233.232 186.501 244.143C205.303 252.903 238.577 254.037 269.766 246.059C276.621 244.339 283.396 242.188 289.93 239.45C305.886 232.802 315.066 216.964 324.607 200.774C329.338 192.718 334.309 185.131 340.523 179.578C355.997 165.773 373.917 153.65 393.079 148.058C419.257 140.432 447.36 145.164 473.858 172.617" stroke="url(#paint29_radial_27_13511)" stroke-opacity="0.53" stroke-width="1.5"/>
<path d="M-146.598 275.233C-129.48 288.685 -109.876 291.188 -88.4687 284.775C-67.7428 278.596 -45.0926 263.931 -20.3577 241.679C7.464 216.651 11.7936 173.595 28.4706 152.907C47.2322 129.678 75.8156 108.756 97.0226 113.566C119.152 118.532 130.777 146.885 141.481 176.019C152.425 205.975 162.408 237.847 184.938 247.936C203.699 256.344 238.376 261.311 270.367 253.685C277.302 252.003 284.118 249.813 290.612 246.841C306.487 239.646 314.986 222.087 324.247 205.506C328.857 197.254 333.708 189.472 339.881 183.88C355.315 169.879 373.355 157.6 392.598 151.89C418.776 144.108 447.079 148.566 473.858 176.449" stroke="url(#paint30_radial_27_13511)" stroke-opacity="0.53" stroke-width="1.5"/>
<path d="M-146.638 280.043C-112.322 305.541 -70.79 291.814 -18.5542 245.903C9.94903 220.797 13.4769 176.567 30.0336 155.762C48.8353 132.22 78.02 110.712 99.1067 115.795C143.686 126.589 140.679 233.389 183.414 251.769C206.144 261.546 254.371 272.378 291.333 254.233C315.025 242.618 320.798 205.193 339.279 188.143C375.439 154.824 426.753 131.008 473.898 180.282" stroke="url(#paint31_radial_27_13511)" stroke-opacity="0.53" stroke-width="1.5"/>
<path d="M-146.598 265.105C-112.322 296.586 -69.4666 280.865 -16.429 237.926C12.5553 214.462 17.6867 175.199 34.0429 158.344C52.9649 138.908 82.1897 111.572 105.441 117.79C149.86 129.678 144.488 238.629 187.142 255.132C211.156 264.401 259.142 273.473 294.22 254.507C320.919 240.076 317.872 201.4 337.476 181.417C372.273 145.947 426.513 123.343 473.858 171.718" stroke="url(#paint32_radial_27_13511)" stroke-opacity="0.53" stroke-width="1.5"/>
<path d="M-146.598 250.166C-112.282 287.63 -68.1437 269.915 -14.3043 229.948C15.121 208.087 21.7757 173.947 38.0518 160.964C57.054 145.79 86.359 112.393 111.775 119.784C156.074 132.69 148.377 243.752 190.871 258.495C216.207 267.255 263.792 274.216 297.106 254.78C326.852 237.456 314.986 197.724 335.712 174.651C369.266 137.304 426.233 115.678 473.858 163.114" stroke="url(#paint33_radial_27_13511)" stroke-opacity="0.53" stroke-width="1.5"/>
<path d="M-146.558 235.227C-112.282 278.675 -66.8208 258.926 -12.1796 221.97C17.6866 201.752 25.7846 172.813 42.0607 163.545C61.0227 152.751 90.4881 113.175 118.109 121.779C162.287 135.544 152.305 248.758 194.599 261.859C221.298 270.11 268.282 274.725 299.953 255.054C332.745 234.719 312.14 194.087 333.948 167.886C366.46 128.818 425.992 108.013 473.818 154.55" stroke="url(#paint34_radial_27_13511)" stroke-opacity="0.53" stroke-width="1.5"/>
<path d="M-146.558 220.289C-112.242 269.719 -65.4979 247.976 -10.0549 213.992C20.2523 195.417 29.4727 171.796 46.0695 166.126C64.7109 159.791 94.6573 113.919 124.443 123.773C168.501 138.36 156.314 253.686 198.327 265.222C226.429 272.926 272.692 275.038 302.839 255.367C338.678 231.942 309.373 190.567 332.184 161.12C363.734 120.488 425.711 100.309 473.778 145.947" stroke="url(#paint35_radial_27_13511)" stroke-opacity="0.53" stroke-width="1.5"/>
<path d="M-146.558 205.389C-112.242 260.764 -64.1749 237.026 -7.93022 206.014C22.818 189.081 34.2433 175.59 50.0784 168.707C66.6351 161.511 98.8666 114.661 130.777 125.768C174.755 141.097 160.323 258.535 202.055 268.546C231.601 275.663 277.022 275.233 305.725 255.641C344.531 229.087 306.607 187.048 330.42 154.394C361.088 112.237 425.431 92.6444 473.778 137.382" stroke="url(#paint36_radial_27_13511)" stroke-opacity="0.53" stroke-width="1.5"/>
<path d="M-146.518 190.449C-112.201 251.808 -62.852 226.036 -5.80555 198.036C25.3836 182.706 36.368 175.159 54.0873 171.287C70.9246 167.65 103.036 115.365 137.111 127.762C181.049 143.795 164.412 263.266 205.784 271.909C236.772 278.4 281.311 275.35 308.612 255.914C350.384 226.154 303.961 183.606 328.656 147.628C358.562 104.024 425.19 84.9789 473.738 128.778" stroke="url(#paint37_radial_27_13511)" stroke-opacity="0.53" stroke-width="1.5"/>
<path d="M-146.518 175.511C-112.201 242.853 -61.5291 215.087 -3.68083 190.059C27.9493 176.372 39.2544 167.612 58.0962 173.908C74.3723 179.344 107.245 116.03 143.445 129.757C187.343 146.455 168.501 267.96 209.512 275.272C241.944 281.06 285.561 275.429 311.498 256.188C356.117 223.104 301.356 180.204 326.892 140.863C356.077 95.8513 424.91 77.3148 473.698 120.215" stroke="url(#paint38_radial_27_13511)" stroke-opacity="0.53" stroke-width="1.5"/>
<path d="M-146.478 160.572C-112.202 233.858 -60.2062 204.137 -1.51608 182.081C30.5149 170.036 42.6619 165.578 62.0649 176.489C77.7397 185.288 111.454 116.656 149.779 131.751C193.637 149.075 172.59 272.613 213.24 278.635C247.155 283.68 289.77 275.429 314.384 256.462C361.81 219.975 298.79 176.802 325.088 134.097C353.672 87.7168 424.629 69.6496 473.698 111.611" stroke="url(#paint39_radial_27_13511)" stroke-opacity="0.53" stroke-width="1.5"/>
<path d="M-146.478 145.633C-112.161 224.902 -58.8833 193.148 0.608603 174.103C33.0806 163.661 46.35 163.388 66.0738 179.069C81.3076 191.153 115.704 117.242 156.113 133.745C199.931 151.656 176.719 277.149 216.968 281.998C252.367 286.222 293.899 275.35 317.271 256.735C367.422 216.768 296.304 173.438 323.324 127.331C351.306 79.6214 424.388 61.9843 473.658 103.046" stroke="url(#paint40_radial_27_13511)" stroke-opacity="0.53" stroke-width="1.5"/>
<path d="M-146.478 130.734C-112.161 215.947 -57.5604 182.198 2.73332 166.126C35.6463 157.327 50.2787 161.237 70.0826 181.651C85.0759 197.098 119.913 117.829 162.447 135.74C206.265 154.237 180.808 281.686 220.697 285.362C257.538 288.764 298.028 275.311 320.157 257.009C372.914 213.405 293.859 170.114 321.56 120.605C348.981 71.5266 424.108 54.3197 473.617 94.4431" stroke="url(#paint41_radial_27_13511)" stroke-opacity="0.53" stroke-width="1.5"/>
<path d="M-146.438 115.795C-112.121 206.992 -56.2375 171.248 4.85798 158.148C38.2119 150.991 54.3677 159.165 74.0915 184.271C88.9244 203.12 124.203 118.376 168.781 137.734C212.599 156.779 184.897 286.144 224.425 288.725C262.75 291.188 302.117 275.194 323.044 257.322C378.286 209.964 291.494 166.829 319.796 113.84C346.696 63.4315 423.867 46.6548 473.617 85.8787" stroke="url(#paint42_radial_27_13511)" stroke-opacity="0.53" stroke-width="1.5"/>
<path d="M-146.438 100.857C-112.121 198.037 -54.9145 160.26 6.98271 150.17C40.7776 144.656 58.4969 157.131 78.1004 186.852C92.8531 209.221 128.452 118.885 175.116 139.768C218.933 159.321 188.986 290.563 228.153 292.088C267.961 293.613 306.206 275.116 325.93 257.596C383.498 206.366 289.168 163.506 318.032 107.075C344.451 55.3366 423.586 38.951 473.577 77.3146" stroke="url(#paint43_radial_27_13511)" stroke-opacity="0.53" stroke-width="1.5"/>
<path d="M-146.438 85.9183C-112.081 189.082 -53.5916 149.31 9.10741 142.193C43.3433 138.282 62.6662 155.215 82.1093 189.433C96.8219 215.361 132.742 119.394 181.45 141.763C225.307 161.863 193.115 296.938 231.881 295.412C273.093 293.848 310.255 274.999 328.816 257.87C388.589 202.652 286.923 160.221 316.269 100.31C342.246 47.2418 423.306 31.2863 473.577 68.7114" stroke="url(#paint44_radial_27_13511)" stroke-opacity="0.53" stroke-width="1.5"/>
<path d="M-146.397 70.9792C-112.081 180.126 -52.2687 138.36 11.2321 134.215C45.9089 131.946 66.8754 153.338 86.1181 192.014C100.791 221.54 137.071 119.863 187.784 143.757C231.681 164.405 197.204 300.691 235.61 298.775C278.264 296.703 314.264 274.842 331.663 258.143C393.48 198.741 284.678 156.975 314.464 93.5829C340.041 39.1465 423.065 23.6211 473.537 60.1467" stroke="url(#paint45_radial_27_13511)" stroke-opacity="0.53" stroke-width="1.5"/>
<path d="M-146.397 56.0794C-112.081 171.17 -50.9458 127.371 13.3568 126.237C48.4747 125.611 71.0447 151.46 90.127 194.595C104.8 227.797 141.361 120.332 194.118 145.751C238.055 166.908 201.173 303.624 239.338 302.138C283.476 300.418 318.273 274.724 334.549 258.417C398.13 194.673 282.514 153.69 312.701 86.8172C337.876 31.0512 422.785 15.956 473.497 51.543" stroke="url(#paint46_radial_27_13511)" stroke-opacity="0.53" stroke-width="1.5"/>
<path d="M-146.357 41.1406C-112.041 162.215 -49.6229 116.421 15.4815 118.259C51.0403 119.276 75.2139 149.661 94.1359 197.215C108.768 234.054 145.69 120.723 200.452 147.745C244.429 169.41 205.222 307.926 243.066 305.501C288.607 302.568 322.242 274.607 337.435 258.691C402.54 190.45 280.389 150.444 310.937 80.0517C335.712 22.956 422.544 8.29107 473.497 42.9786" stroke="url(#paint47_radial_27_13511)" stroke-opacity="0.53" stroke-width="1.5"/>
<mask id="mask1_27_13511" style="mask-type:luminance" maskUnits="userSpaceOnUse" x="61" y="-61" width="125" height="122">
<path d="M185.303 6.48499e-05C185.303 -33.2601 157.661 -60.2202 123.57 -60.2202C89.4742 -60.2202 61.8369 -33.2601 61.8369 6.48499e-05C61.8369 33.2602 89.4742 60.2203 123.57 60.2203C157.661 60.2203 185.303 33.2602 185.303 6.48499e-05Z" fill="white"/>
</mask>
<g mask="url(#mask1_27_13511)">
<path d="M46.0288 0.0787893L190.75 -37.7373" stroke="#C8A7D9" stroke-opacity="0.18" stroke-width="1.5"/>
<path d="M48.1143 7.6262L192.835 -30.229" stroke="#C8A7D9" stroke-opacity="0.18" stroke-width="1.5"/>
<path d="M50.1987 15.1345L194.88 -22.6816" stroke="#C8A7D9" stroke-opacity="0.18" stroke-width="1.5"/>
<path d="M52.2427 22.6823L196.964 -15.1338L52.2427 22.6823Z" fill="#F0E1F7" fill-opacity="0.44"/>
<path d="M52.2427 22.6823L196.964 -15.1338" stroke="#C8A7D9" stroke-opacity="0.18" stroke-width="1.5"/>
<path d="M54.3271 30.2297L199.008 -7.62549" stroke="#C8A7D9" stroke-opacity="0.18" stroke-width="1.5"/>
<path d="M56.3716 37.738L201.092 -0.078125" stroke="#C8A7D9" stroke-opacity="0.18" stroke-width="1.5"/>
<path d="M58.457 45.2863L203.178 7.47021" stroke="#C8A7D9" stroke-opacity="0.18" stroke-width="1.5"/>
<path d="M60.542 52.7941L205.223 14.978" stroke="#C8A7D9" stroke-opacity="0.18" stroke-width="1.5"/>
<path d="M62.5859 60.3415L207.307 22.5254" stroke="#C8A7D9" stroke-opacity="0.18" stroke-width="1.5"/>
<path d="M64.6709 67.8893L209.392 30.0732" stroke="#C8A7D9" stroke-opacity="0.18" stroke-width="1.5"/>
<path d="M66.7554 75.3976L211.436 37.5815" stroke="#C8A7D9" stroke-opacity="0.18" stroke-width="1.5"/>
<path d="M68.8003 82.9455L213.521 45.1294L68.8003 82.9455Z" fill="white"/>
<path d="M68.8003 82.9455L213.521 45.1294" stroke="#C8A7D9" stroke-opacity="0.18" stroke-width="1.5"/>
</g>
</g>
</g>
</g>
<defs>
<radialGradient id="paint0_radial_27_13511" cx="0" cy="0" r="1" gradientUnits="userSpaceOnUse" gradientTransform="translate(163.53 204.41) scale(216.48 211.176)">
<stop stop-color="#9418EC"/>
<stop offset="1" stop-color="#2B0340"/>
</radialGradient>
<radialGradient id="paint1_radial_27_13511" cx="0" cy="0" r="1" gradientUnits="userSpaceOnUse" gradientTransform="translate(163.49 213.718) scale(216.48 211.176)">
<stop stop-color="#9418EC"/>
<stop offset="1" stop-color="#2B0340"/>
</radialGradient>
<radialGradient id="paint2_radial_27_13511" cx="0" cy="0" r="1" gradientUnits="userSpaceOnUse" gradientTransform="translate(163.45 223.025) scale(216.56 211.254)">
<stop stop-color="#9418EC"/>
<stop offset="1" stop-color="#2B0340"/>
</radialGradient>
<radialGradient id="paint3_radial_27_13511" cx="0" cy="0" r="1" gradientUnits="userSpaceOnUse" gradientTransform="translate(163.45 232.293) scale(216.64 211.332)">
<stop stop-color="#9418EC"/>
<stop offset="1" stop-color="#2B0340"/>
</radialGradient>
<radialGradient id="paint4_radial_27_13511" cx="0" cy="0" r="1" gradientUnits="userSpaceOnUse" gradientTransform="translate(163.45 241.484) scale(216.761 211.449)">
<stop stop-color="#9418EC"/>
<stop offset="1" stop-color="#2B0340"/>
</radialGradient>
<radialGradient id="paint5_radial_27_13511" cx="0" cy="0" r="1" gradientUnits="userSpaceOnUse" gradientTransform="translate(163.45 250.713) scale(216.841 211.528)">
<stop stop-color="#9418EC"/>
<stop offset="1" stop-color="#2B0340"/>
</radialGradient>
<radialGradient id="paint6_radial_27_13511" cx="0" cy="0" r="1" gradientUnits="userSpaceOnUse" gradientTransform="translate(163.45 259.903) scale(216.921 211.606)">
<stop stop-color="#9418EC"/>
<stop offset="1" stop-color="#2B0340"/>
</radialGradient>
<radialGradient id="paint7_radial_27_13511" cx="0" cy="0" r="1" gradientUnits="userSpaceOnUse" gradientTransform="translate(163.45 267.255) scale(217.162 211.841)">
<stop stop-color="#9418EC"/>
<stop offset="1" stop-color="#2B0340"/>
</radialGradient>
<radialGradient id="paint8_radial_27_13511" cx="0" cy="0" r="1" gradientUnits="userSpaceOnUse" gradientTransform="translate(163.45 266.551) scale(217.442 212.114)">
<stop stop-color="#9418EC"/>
<stop offset="1" stop-color="#2B0340"/>
</radialGradient>
<radialGradient id="paint9_radial_27_13511" cx="0" cy="0" r="1" gradientUnits="userSpaceOnUse" gradientTransform="translate(163.45 264.205) scale(217.883 212.544)">
<stop stop-color="#9418EC"/>
<stop offset="1" stop-color="#2B0340"/>
</radialGradient>
<radialGradient id="paint10_radial_27_13511" cx="0" cy="0" r="1" gradientUnits="userSpaceOnUse" gradientTransform="translate(163.45 262.015) scale(218.404 213.053)">
<stop stop-color="#9418EC"/>
<stop offset="1" stop-color="#2B0340"/>
</radialGradient>
<radialGradient id="paint11_radial_27_13511" cx="0" cy="0" r="1" gradientUnits="userSpaceOnUse" gradientTransform="translate(163.45 259.942) scale(218.966 213.6)">
<stop stop-color="#9418EC"/>
<stop offset="1" stop-color="#2B0340"/>
</radialGradient>
<radialGradient id="paint12_radial_27_13511" cx="0" cy="0" r="1" gradientUnits="userSpaceOnUse" gradientTransform="translate(163.45 258.026) scale(219.607 214.226)">
<stop stop-color="#9418EC"/>
<stop offset="1" stop-color="#2B0340"/>
</radialGradient>
<radialGradient id="paint13_radial_27_13511" cx="0" cy="0" r="1" gradientUnits="userSpaceOnUse" gradientTransform="translate(163.45 256.266) scale(220.329 214.93)">
<stop stop-color="#9418EC"/>
<stop offset="1" stop-color="#2B0340"/>
</radialGradient>
<radialGradient id="paint14_radial_27_13511" cx="0" cy="0" r="1" gradientUnits="userSpaceOnUse" gradientTransform="translate(163.45 254.702) scale(221.13 215.712)">
<stop stop-color="#9418EC"/>
<stop offset="1" stop-color="#2B0340"/>
</radialGradient>
<radialGradient id="paint15_radial_27_13511" cx="0" cy="0" r="1" gradientUnits="userSpaceOnUse" gradientTransform="translate(163.57 149.779) scale(222.052 216.612)">
<stop stop-color="#9418EC"/>
<stop offset="1" stop-color="#2B0340"/>
</radialGradient>
<radialGradient id="paint16_radial_27_13511" cx="0" cy="0" r="1" gradientUnits="userSpaceOnUse" gradientTransform="translate(163.57 153.181) scale(222.173 216.729)">
<stop stop-color="#9418EC"/>
<stop offset="1" stop-color="#2B0340"/>
</radialGradient>
<radialGradient id="paint17_radial_27_13511" cx="0" cy="0" r="1" gradientUnits="userSpaceOnUse" gradientTransform="translate(163.57 156.584) scale(222.293 216.846)">
<stop stop-color="#9418EC"/>
<stop offset="1" stop-color="#2B0340"/>
</radialGradient>
<radialGradient id="paint18_radial_27_13511" cx="0" cy="0" r="1" gradientUnits="userSpaceOnUse" gradientTransform="translate(163.57 159.985) scale(222.413 216.963)">
<stop stop-color="#9418EC"/>
<stop offset="1" stop-color="#2B0340"/>
</radialGradient>
<radialGradient id="paint19_radial_27_13511" cx="0" cy="0" r="1" gradientUnits="userSpaceOnUse" gradientTransform="translate(163.57 163.349) scale(222.533 217.081)">
<stop stop-color="#9418EC"/>
<stop offset="1" stop-color="#2B0340"/>
</radialGradient>
<radialGradient id="paint20_radial_27_13511" cx="0" cy="0" r="1" gradientUnits="userSpaceOnUse" gradientTransform="translate(163.57 166.751) scale(222.654 217.198)">
<stop stop-color="#9418EC"/>
<stop offset="1" stop-color="#2B0340"/>
</radialGradient>
<radialGradient id="paint21_radial_27_13511" cx="0" cy="0" r="1" gradientUnits="userSpaceOnUse" gradientTransform="translate(163.57 170.114) scale(222.774 217.315)">
<stop stop-color="#9418EC"/>
<stop offset="1" stop-color="#2B0340"/>
</radialGradient>
<radialGradient id="paint22_radial_27_13511" cx="0" cy="0" r="1" gradientUnits="userSpaceOnUse" gradientTransform="translate(163.61 173.516) scale(222.894 217.433)">
<stop stop-color="#9418EC"/>
<stop offset="1" stop-color="#2B0340"/>
</radialGradient>
<radialGradient id="paint23_radial_27_13511" cx="0" cy="0" r="1" gradientUnits="userSpaceOnUse" gradientTransform="translate(163.61 176.879) scale(223.015 217.55)">
<stop stop-color="#9418EC"/>
<stop offset="1" stop-color="#2B0340"/>
</radialGradient>
<radialGradient id="paint24_radial_27_13511" cx="0" cy="0" r="1" gradientUnits="userSpaceOnUse" gradientTransform="translate(163.61 180.243) scale(223.135 217.667)">
<stop stop-color="#9418EC"/>
<stop offset="1" stop-color="#2B0340"/>
</radialGradient>
<radialGradient id="paint25_radial_27_13511" cx="0" cy="0" r="1" gradientUnits="userSpaceOnUse" gradientTransform="translate(163.61 183.645) scale(223.255 217.785)">
<stop stop-color="#9418EC"/>
<stop offset="1" stop-color="#2B0340"/>
</radialGradient>
<radialGradient id="paint26_radial_27_13511" cx="0" cy="0" r="1" gradientUnits="userSpaceOnUse" gradientTransform="translate(163.61 187.008) scale(223.415 217.941)">
<stop stop-color="#9418EC"/>
<stop offset="1" stop-color="#2B0340"/>
</radialGradient>
<radialGradient id="paint27_radial_27_13511" cx="0" cy="0" r="1" gradientUnits="userSpaceOnUse" gradientTransform="translate(163.61 190.372) scale(223.536 218.059)">
<stop stop-color="#9418EC"/>
<stop offset="1" stop-color="#2B0340"/>
</radialGradient>
<radialGradient id="paint28_radial_27_13511" cx="0" cy="0" r="1" gradientUnits="userSpaceOnUse" gradientTransform="translate(163.61 193.774) scale(223.656 218.176)">
<stop stop-color="#9418EC"/>
<stop offset="1" stop-color="#2B0340"/>
</radialGradient>
<radialGradient id="paint29_radial_27_13511" cx="0" cy="0" r="1" gradientUnits="userSpaceOnUse" gradientTransform="translate(163.61 197.137) scale(223.816 218.332)">
<stop stop-color="#9418EC"/>
<stop offset="1" stop-color="#2B0340"/>
</radialGradient>
<radialGradient id="paint30_radial_27_13511" cx="0" cy="0" r="1" gradientUnits="userSpaceOnUse" gradientTransform="translate(163.65 200.5) scale(223.937 218.45)">
<stop stop-color="#9418EC"/>
<stop offset="1" stop-color="#2B0340"/>
</radialGradient>
<radialGradient id="paint31_radial_27_13511" cx="0" cy="0" r="1" gradientUnits="userSpaceOnUse" gradientTransform="translate(163.65 203.863) scale(224.097 218.606)">
<stop stop-color="#9418EC"/>
<stop offset="1" stop-color="#2B0340"/>
</radialGradient>
<radialGradient id="paint32_radial_27_13511" cx="0" cy="0" r="1" gradientUnits="userSpaceOnUse" gradientTransform="translate(163.65 199.288) scale(223.415 217.941)">
<stop stop-color="#9418EC"/>
<stop offset="1" stop-color="#2B0340"/>
</radialGradient>
<radialGradient id="paint33_radial_27_13511" cx="0" cy="0" r="1" gradientUnits="userSpaceOnUse" gradientTransform="translate(163.61 194.752) scale(222.814 217.355)">
<stop stop-color="#9418EC"/>
<stop offset="1" stop-color="#2B0340"/>
</radialGradient>
<radialGradient id="paint34_radial_27_13511" cx="0" cy="0" r="1" gradientUnits="userSpaceOnUse" gradientTransform="translate(163.61 194.752) scale(222.614 217.159)">
<stop stop-color="#9418EC"/>
<stop offset="1" stop-color="#2B0340"/>
</radialGradient>
<radialGradient id="paint35_radial_27_13511" cx="0" cy="0" r="1" gradientUnits="userSpaceOnUse" gradientTransform="translate(163.61 195.339) scale(222.734 217.276)">
<stop stop-color="#9418EC"/>
<stop offset="1" stop-color="#2B0340"/>
</radialGradient>
<radialGradient id="paint36_radial_27_13511" cx="0" cy="0" r="1" gradientUnits="userSpaceOnUse" gradientTransform="translate(163.61 192.327) scale(223.175 217.707)">
<stop stop-color="#9418EC"/>
<stop offset="1" stop-color="#2B0340"/>
</radialGradient>
<radialGradient id="paint37_radial_27_13511" cx="0" cy="0" r="1" gradientUnits="userSpaceOnUse" gradientTransform="translate(163.61 189.472) scale(223.656 218.176)">
<stop stop-color="#9418EC"/>
<stop offset="1" stop-color="#2B0340"/>
</radialGradient>
<radialGradient id="paint38_radial_27_13511" cx="0" cy="0" r="1" gradientUnits="userSpaceOnUse" gradientTransform="translate(163.61 186.696) scale(224.177 218.684)">
<stop stop-color="#9418EC"/>
<stop offset="1" stop-color="#2B0340"/>
</radialGradient>
<radialGradient id="paint39_radial_27_13511" cx="0" cy="0" r="1" gradientUnits="userSpaceOnUse" gradientTransform="translate(163.61 184.076) scale(224.738 219.232)">
<stop stop-color="#9418EC"/>
<stop offset="1" stop-color="#2B0340"/>
</radialGradient>
<radialGradient id="paint40_radial_27_13511" cx="0" cy="0" r="1" gradientUnits="userSpaceOnUse" gradientTransform="translate(163.61 181.494) scale(225.38 219.857)">
<stop stop-color="#9418EC"/>
<stop offset="1" stop-color="#2B0340"/>
</radialGradient>
<radialGradient id="paint41_radial_27_13511" cx="0" cy="0" r="1" gradientUnits="userSpaceOnUse" gradientTransform="translate(163.57 178.992) scale(226.021 220.483)">
<stop stop-color="#9418EC"/>
<stop offset="1" stop-color="#2B0340"/>
</radialGradient>
<radialGradient id="paint42_radial_27_13511" cx="0" cy="0" r="1" gradientUnits="userSpaceOnUse" gradientTransform="translate(163.57 176.567) scale(226.703 221.148)">
<stop stop-color="#9418EC" stop-opacity="0.53"/>
<stop offset="1" stop-color="#2B0340" stop-opacity="0.53"/>
</radialGradient>
<radialGradient id="paint43_radial_27_13511" cx="0" cy="0" r="1" gradientUnits="userSpaceOnUse" gradientTransform="translate(163.57 174.182) scale(227.424 221.852)">
<stop stop-color="#9418EC" stop-opacity="0.53"/>
<stop offset="1" stop-color="#2B0340"/>
<stop offset="1" stop-color="#2B0340" stop-opacity="0.53"/>
</radialGradient>
<radialGradient id="paint44_radial_27_13511" cx="0" cy="0" r="1" gradientUnits="userSpaceOnUse" gradientTransform="translate(163.57 171.875) scale(228.226 222.634)">
<stop stop-color="#9418EC"/>
<stop offset="1" stop-color="#2B0340"/>
</radialGradient>
<radialGradient id="paint45_radial_27_13511" cx="0" cy="0" r="1" gradientUnits="userSpaceOnUse" gradientTransform="translate(163.57 169.567) scale(229.028 223.416)">
<stop stop-color="#9418EC"/>
<stop offset="1" stop-color="#2B0340"/>
</radialGradient>
<radialGradient id="paint46_radial_27_13511" cx="0" cy="0" r="1" gradientUnits="userSpaceOnUse" gradientTransform="translate(163.57 167.26) scale(229.87 224.237)">
<stop stop-color="#9418EC"/>
<stop offset="1" stop-color="#2B0340"/>
</radialGradient>
<radialGradient id="paint47_radial_27_13511" cx="0" cy="0" r="1" gradientUnits="userSpaceOnUse" gradientTransform="translate(163.57 164.952) scale(230.752 225.098)">
<stop stop-color="#9418EC"/>
<stop offset="1" stop-color="#2B0340"/>
</radialGradient>
<clipPath id="clip0_27_13511">
<rect width="390" height="391" rx="60" fill="white"/>
</clipPath>
</defs>
</svg>
