<svg width="352" height="299" viewBox="0 0 352 299" fill="none" xmlns="http://www.w3.org/2000/svg">
<path d="M350.68 135.121C351.826 132.474 352.201 129.62 351.901 126.804C351.769 122.579 351.638 118.355 351.488 114.112C351.488 114.168 351.488 114.206 351.507 114.262C350.962 108.743 347.883 103.429 343.152 100.482C342.889 100.313 342.626 100.181 342.363 100.012C307.142 77.07 265.557 52.4192 227.595 33.6822C219.841 29.871 211.261 32.4243 207.994 39.1832C182.48 92.0709 137.646 137.336 81.1728 171.168C76.9674 173.684 75.1087 177.307 75.6531 180.968C75.6531 180.93 75.6344 180.912 75.6344 180.874C76.5355 187.351 77.3992 193.81 78.2628 200.287C78.6195 202.953 80.2529 205.656 83.238 207.947C117.539 234.344 151.127 261.511 183.963 289.428C184.639 289.991 185.352 290.517 186.122 290.986C193.05 295.229 203.639 295.417 210.904 290.817C273.743 251.147 323.439 197.903 350.68 135.121Z" fill="url(#paint0_radial_359_3532)"/>
<path d="M350.902 126.872L350.901 126.835L350.9 126.804C350.77 122.625 350.64 118.449 350.492 114.256C350.488 114.206 350.488 114.165 350.488 114.136C349.911 108.982 347.007 104.062 342.623 101.331L342.617 101.327L342.611 101.323C342.505 101.255 342.396 101.192 342.261 101.115L342.253 101.111C342.127 101.038 341.976 100.952 341.823 100.854L341.817 100.85C306.356 77.7349 265.069 53.2935 227.152 34.579C219.804 30.9679 211.878 33.448 208.895 39.6177C183.279 92.7159 138.291 138.115 81.6868 172.026L81.6862 172.026C77.7665 174.371 76.1913 177.61 76.6334 180.76C76.6434 180.812 76.6509 180.871 76.6527 180.937C77.5442 187.35 78.3993 193.744 79.254 200.154L350.902 126.872ZM350.902 126.872L350.906 126.91M350.902 126.872L350.906 126.91M350.906 126.91C351.19 129.567 350.835 132.245 349.763 134.723C322.616 197.286 273.074 250.387 210.371 289.972L210.37 289.973C203.436 294.362 193.258 294.184 186.644 290.134L186.643 290.133C185.924 289.694 185.251 289.2 184.607 288.663C151.76 260.736 118.16 233.56 83.8479 207.154L83.8468 207.154M350.906 126.91L83.8468 207.154M83.8468 207.154C81.0199 204.985 79.568 202.5 79.254 200.155L83.8468 207.154Z" fill="url(#paint1_linear_359_3532)" stroke="url(#paint2_linear_359_3532)" stroke-width="2"/>
<path d="M252.019 190.261C251.981 190.242 251.925 190.205 251.888 190.186C225.059 174.397 198.23 158.607 171.401 142.818C167.665 140.678 162.465 141.71 159.742 145.109C157.058 148.432 157.827 152.806 161.47 155.003C161.488 155.022 161.507 155.022 161.526 155.04C161.564 155.078 243.402 202.615 243.402 202.615C247.213 204.755 252.188 203.741 254.497 200.306C256.788 196.907 255.642 192.439 252.019 190.261Z" fill="url(#paint3_linear_359_3532)"/>
<path d="M279.112 162.888C279.074 162.869 279.018 162.832 278.98 162.813C252.152 147.023 225.323 131.234 198.494 115.445C194.758 113.305 189.558 114.337 186.835 117.735C184.15 121.058 184.92 125.433 188.562 127.629C188.581 127.648 188.6 127.648 188.619 127.667C188.656 127.705 270.494 175.242 270.494 175.242C274.305 177.382 279.281 176.368 281.59 172.932C283.88 169.534 282.735 165.066 279.112 162.888Z" fill="url(#paint4_linear_359_3532)"/>
<path d="M298.395 131.872C298.357 131.854 298.301 131.816 298.264 131.797C271.435 116.008 244.606 100.219 217.777 84.4294C214.041 82.2891 208.841 83.3217 206.118 86.7199C203.434 90.0429 204.203 94.4174 207.846 96.614C207.864 96.6328 207.883 96.6328 207.902 96.6516C207.94 96.6891 289.777 144.226 289.777 144.226C293.589 146.366 298.564 145.353 300.873 141.917C303.145 138.519 302.018 134.05 298.395 131.872Z" fill="url(#paint5_linear_359_3532)"/>
<path d="M161.544 195.518C157.808 193.171 157.038 188.928 159.892 185.736C162.783 182.507 168.209 181.681 172.039 183.915C186.758 192.551 201.478 201.187 216.178 209.824C220.027 212.039 221.022 216.526 218.375 219.774C215.746 223.022 210.414 223.829 206.509 221.595C206.528 221.595 161.601 195.536 161.544 195.518Z" fill="url(#paint6_linear_359_3532)"/>
<mask id="mask0_359_3532" style="mask-type:luminance" maskUnits="userSpaceOnUse" x="0" y="0" width="201" height="300">
<path d="M13.3025 277.336L133.121 298.702C143.616 300.579 153.623 293.576 155.482 283.081L200.353 28.706C202.361 17.2911 193.913 6.70231 182.348 6.1203L60.3326 0.0185944C52.7101 -0.356895 45.9889 4.99383 44.6746 12.5036L1.04277 259.801C-0.402868 268.024 5.07928 275.872 13.3025 277.336Z" fill="white"/>
</mask>
<g mask="url(#mask0_359_3532)">
<path d="M10.6173 276.848L139.88 299.941C146.62 301.124 153.04 296.637 154.223 289.897L201.666 21.0086C202.962 13.6491 197.48 6.81514 190.007 6.4772L57.8163 8.72277e-06C51.6019 -0.281608 46.1573 4.09284 45.0684 10.2133L0.572918 262.486C-0.609874 269.226 3.87723 275.647 10.6173 276.848Z" fill="url(#paint7_linear_359_3532)"/>
</g>
<mask id="mask1_359_3532" style="mask-type:luminance" maskUnits="userSpaceOnUse" x="0" y="0" width="201" height="300">
<path d="M13.3025 277.336L133.121 298.702C143.616 300.579 153.623 293.576 155.482 283.081L200.353 28.706C202.361 17.2911 193.913 6.70231 182.348 6.1203L60.3326 0.0185944C52.7101 -0.356895 45.9889 4.99383 44.6746 12.5036L1.04277 259.801C-0.402868 268.024 5.07928 275.872 13.3025 277.336Z" fill="white"/>
</mask>
<g mask="url(#mask1_359_3532)">
<path d="M10.6173 276.849L138.528 299.698C146.019 301.012 153.153 296.018 154.467 288.546L201.385 22.5487C202.83 14.3631 196.747 6.77817 188.43 6.40268L57.8163 -0.018195C51.6019 -0.299812 46.1573 4.07465 45.0684 10.1951L0.572918 262.487C-0.609874 269.227 3.87723 275.647 10.6173 276.849Z" fill="url(#paint8_linear_359_3532)"/>
</g>
<mask id="mask2_359_3532" style="mask-type:luminance" maskUnits="userSpaceOnUse" x="0" y="0" width="201" height="300">
<path d="M13.3025 277.336L133.121 298.702C143.616 300.579 153.623 293.576 155.482 283.081L200.353 28.706C202.361 17.2911 193.913 6.70231 182.348 6.1203L60.3326 0.0185944C52.7101 -0.356895 45.9889 4.99383 44.6746 12.5036L1.04277 259.801C-0.402868 268.024 5.07928 275.872 13.3025 277.336Z" fill="white"/>
</mask>
<g mask="url(#mask2_359_3532)">
<path d="M10.6173 276.849L138.528 299.698C146.019 301.012 153.153 296.018 154.467 288.546L201.385 22.5487C202.83 14.3631 196.747 6.77817 188.43 6.40268L57.8163 -0.018195C51.6019 -0.299812 46.1573 4.07465 45.0684 10.1951L0.572918 262.487C-0.609874 269.227 3.87723 275.647 10.6173 276.849Z" fill="url(#paint9_linear_359_3532)"/>
</g>
<mask id="mask3_359_3532" style="mask-type:luminance" maskUnits="userSpaceOnUse" x="0" y="0" width="201" height="300">
<path d="M13.3025 277.336L133.121 298.702C143.616 300.579 153.623 293.576 155.482 283.081L200.353 28.706C202.361 17.2911 193.913 6.70231 182.348 6.1203L60.3326 0.0185944C52.7101 -0.356895 45.9889 4.99383 44.6747 12.5036L1.04277 259.801C-0.402868 268.024 5.07928 275.872 13.3025 277.336Z" fill="white"/>
</mask>
<g mask="url(#mask3_359_3532)">
<path d="M23.0475 263.518L127.922 281.129C133.61 282.086 138.98 278.237 139.919 272.549L179.458 33.1553C180.453 27.0723 176.003 21.4588 169.845 21.0645L67.5805 14.4559C62.0045 14.0992 57.048 17.9667 56.0342 23.4676L14.5051 251.39C13.4725 257.097 17.3025 262.561 23.0475 263.518Z" fill="url(#paint10_linear_359_3532)"/>
</g>
<path d="M109.822 67.7376C106.049 67.1368 102.012 67.1744 97.863 67.9629C76.5727 72.0745 61.234 92.9142 67.0916 114.467C77.5114 152.861 136.689 139.118 137.346 102.208C137.665 84.5971 125.874 70.3285 109.822 67.7376Z" fill="url(#paint11_radial_359_3532)"/>
<path d="M132.183 114.749C123.115 132.172 102.05 140.696 85.1151 133.787C68.1993 126.878 61.816 107.146 70.8841 89.7229C79.9522 72.3002 101.017 63.7766 117.952 70.6856C134.886 77.5946 141.251 97.3266 132.183 114.749Z" fill="url(#paint12_radial_359_3532)"/>
<path opacity="0.18" d="M78.4303 91.1503C77.7545 92.1641 76.9284 93.0089 75.9333 92.7085C75.1823 92.4833 74.8256 91.6009 74.7693 90.8311C74.6379 88.9349 75.6517 87.1513 76.8157 85.6681C79.2189 82.5516 82.4293 79.7729 86.034 78.1583C86.5972 77.8955 87.2168 77.689 87.8364 77.7453C88.4559 77.8016 89.0942 78.1771 89.2632 78.7779C89.7889 80.5615 85.7899 82.8144 84.6447 83.7343C82.8048 85.1988 81.1902 86.9072 79.8196 88.8035C79.4629 89.2916 79.0124 90.2866 78.4303 91.1503Z" fill="white"/>
<path d="M117.2 90.8681C116.13 90.6991 115.041 90.9432 114.102 91.6191C107.682 96.2751 101.073 100.95 94.2954 105.644C92.0236 102.17 89.7707 98.6783 87.499 95.1862C86.7668 94.0598 85.6403 93.3651 84.4388 93.1773C83.3686 93.0084 82.2234 93.2524 81.2471 93.9471C79.1631 95.4115 78.5623 98.3216 79.9329 100.462C82.9743 105.249 86.0346 110.018 89.0948 114.768C89.7519 115.782 90.7845 116.495 91.9861 116.721C92.0424 116.739 92.08 116.739 92.1363 116.739C93.2815 116.908 94.4643 116.645 95.4594 115.97C103.664 110.394 111.624 104.855 119.322 99.3354C121.331 97.8897 121.762 94.9985 120.317 92.8769C119.528 91.7317 118.383 91.0558 117.2 90.8681Z" fill="url(#paint13_linear_359_3532)"/>
<path d="M164.781 43.4472C165.854 39.7852 163.755 35.9471 160.093 34.8745C156.431 33.8018 152.593 35.9009 151.52 39.5629C150.448 43.2249 152.547 47.063 156.209 48.1356C159.871 49.2082 163.709 47.1091 164.781 43.4472Z" fill="#BED8D9"/>
<path d="M157.078 46.8059C160.894 46.8059 163.987 43.7127 163.987 39.8969C163.987 36.0812 160.894 32.9879 157.078 32.9879C153.262 32.9879 150.169 36.0812 150.169 39.8969C150.169 43.7127 153.262 46.8059 157.078 46.8059Z" fill="url(#paint14_linear_359_3532)"/>
<path d="M63.7678 265.547L89.5264 269.565C93.0935 270.128 96.4542 267.668 97.0174 264.101C97.5806 260.534 95.1212 257.173 91.554 256.61L65.7954 252.592C62.2283 252.029 58.8677 254.489 58.3044 258.056C57.7412 261.623 60.1819 264.984 63.7678 265.547Z" fill="#BED8D9"/>
<path d="M63.053 263.913L88.8116 267.931C92.3787 268.494 95.7394 266.035 96.3026 262.467C96.8658 258.9 94.4064 255.54 90.8392 254.976L65.0806 250.959C61.5135 250.395 58.1529 252.855 57.5896 256.422C57.0452 260.008 59.4858 263.35 63.053 263.913Z" fill="url(#paint15_linear_359_3532)"/>
<path d="M53.7234 204.454L115.304 214.01C118.871 214.573 122.231 212.114 122.795 208.547C123.358 204.98 120.898 201.619 117.331 201.056L55.751 191.5C52.1839 190.936 48.8233 193.396 48.26 196.963C47.6968 200.549 50.1562 203.891 53.7234 204.454Z" fill="url(#paint16_linear_359_3532)"/>
<path d="M59.6755 174.472L121.256 184.029C124.823 184.592 128.184 182.132 128.747 178.565C129.31 174.998 126.851 171.637 123.283 171.074L61.7032 161.518C58.136 160.955 54.7754 163.414 54.2122 166.981C53.6489 170.567 56.1084 173.909 59.6755 174.472Z" fill="url(#paint17_linear_359_3532)"/>
<defs>
<radialGradient id="paint0_radial_359_3532" cx="0" cy="0" r="1" gradientUnits="userSpaceOnUse" gradientTransform="translate(46.2813 6.15065) rotate(31.7509) scale(362.437 362.437)">
<stop offset="0.4279" stop-color="#F3F8FB"/>
<stop offset="0.6492" stop-color="#DFEEF0"/>
<stop offset="0.7882" stop-color="#ECFCFF"/>
<stop offset="0.8144" stop-color="#E6F7FA"/>
<stop offset="0.8485" stop-color="#D6EBED"/>
<stop offset="0.8832" stop-color="#BED8D9"/>
<stop offset="0.9447" stop-color="#BED8D9"/>
</radialGradient>
<linearGradient id="paint1_linear_359_3532" x1="312.406" y1="45.4594" x2="122.545" y2="274.615" gradientUnits="userSpaceOnUse">
<stop offset="0.0554282" stop-color="#F3F8FB"/>
<stop offset="0.1434" stop-color="#E3ECF1"/>
<stop offset="0.5671" stop-color="#E3ECF1"/>
<stop offset="0.8483" stop-color="#BED8D9"/>
<stop offset="0.9098" stop-color="#BED8D9"/>
</linearGradient>
<linearGradient id="paint2_linear_359_3532" x1="213.78" y1="31.9077" x2="213.78" y2="294.218" gradientUnits="userSpaceOnUse">
<stop stop-color="#E3DAFF"/>
<stop offset="0.238338" stop-color="#584499"/>
</linearGradient>
<linearGradient id="paint3_linear_359_3532" x1="218.68" y1="152.672" x2="197.85" y2="188.647" gradientUnits="userSpaceOnUse">
<stop offset="0.2344" stop-color="#A6BBBE"/>
<stop offset="0.2534" stop-color="#A9BEC1"/>
<stop offset="0.3811" stop-color="#B8D1D3"/>
<stop offset="0.4704" stop-color="#BED8D9"/>
<stop offset="0.5454" stop-color="#BAD3D5"/>
<stop offset="0.6295" stop-color="#AFC6C8"/>
<stop offset="0.6766" stop-color="#A6BBBE"/>
<stop offset="0.7373" stop-color="#9CAFB2"/>
<stop offset="0.8458" stop-color="#809093"/>
<stop offset="0.8983" stop-color="#717F82"/>
</linearGradient>
<linearGradient id="paint4_linear_359_3532" x1="245.775" y1="125.293" x2="224.944" y2="161.269" gradientUnits="userSpaceOnUse">
<stop offset="0.2344" stop-color="#A6BBBE"/>
<stop offset="0.2534" stop-color="#A9BEC1"/>
<stop offset="0.3811" stop-color="#B8D1D3"/>
<stop offset="0.4704" stop-color="#BED8D9"/>
<stop offset="0.5454" stop-color="#BAD3D5"/>
<stop offset="0.6295" stop-color="#AFC6C8"/>
<stop offset="0.6766" stop-color="#A6BBBE"/>
<stop offset="0.7373" stop-color="#9CAFB2"/>
<stop offset="0.8458" stop-color="#809093"/>
<stop offset="0.8983" stop-color="#717F82"/>
</linearGradient>
<linearGradient id="paint5_linear_359_3532" x1="265.045" y1="94.2813" x2="244.215" y2="130.257" gradientUnits="userSpaceOnUse">
<stop offset="0.2344" stop-color="#A6BBBE"/>
<stop offset="0.2534" stop-color="#A9BEC1"/>
<stop offset="0.3811" stop-color="#B8D1D3"/>
<stop offset="0.4704" stop-color="#BED8D9"/>
<stop offset="0.5454" stop-color="#BAD3D5"/>
<stop offset="0.6295" stop-color="#AFC6C8"/>
<stop offset="0.6766" stop-color="#A6BBBE"/>
<stop offset="0.7373" stop-color="#9CAFB2"/>
<stop offset="0.8458" stop-color="#809093"/>
<stop offset="0.8983" stop-color="#717F82"/>
</linearGradient>
<linearGradient id="paint6_linear_359_3532" x1="199.866" y1="185.346" x2="180.271" y2="217.049" gradientUnits="userSpaceOnUse">
<stop offset="0.2344" stop-color="#A6BBBE"/>
<stop offset="0.2534" stop-color="#A9BEC1"/>
<stop offset="0.3811" stop-color="#B8D1D3"/>
<stop offset="0.4704" stop-color="#BED8D9"/>
<stop offset="0.5454" stop-color="#BAD3D5"/>
<stop offset="0.6295" stop-color="#AFC6C8"/>
<stop offset="0.6766" stop-color="#A6BBBE"/>
<stop offset="0.7373" stop-color="#9CAFB2"/>
<stop offset="0.8458" stop-color="#809093"/>
<stop offset="0.8983" stop-color="#717F82"/>
</linearGradient>
<linearGradient id="paint7_linear_359_3532" x1="177.94" y1="155.435" x2="24.2356" y2="128.325" gradientUnits="userSpaceOnUse">
<stop stop-color="#9A6CF0"/>
<stop offset="0.00803427" stop-color="#9D70EA"/>
<stop offset="0.0315698" stop-color="#A577DC"/>
<stop offset="0.0521553" stop-color="#A77AD7"/>
<stop offset="0.0819316" stop-color="#966BCA"/>
<stop offset="0.1288" stop-color="#825ABB"/>
<stop offset="0.1824" stop-color="#744EB0"/>
<stop offset="0.2477" stop-color="#6B47AA"/>
<stop offset="0.3586" stop-color="#6945A8"/>
<stop offset="0.5582" stop-color="#6B46AA"/>
<stop offset="0.6751" stop-color="#704BB3"/>
<stop offset="0.7706" stop-color="#7A52C1"/>
<stop offset="0.854" stop-color="#875DD5"/>
<stop offset="0.9297" stop-color="#996BEE"/>
<stop offset="0.9339" stop-color="#9A6CF0"/>
<stop offset="0.9506" stop-color="#A06FF2"/>
<stop offset="0.9724" stop-color="#B079F6"/>
<stop offset="0.9971" stop-color="#CB88FE"/>
<stop offset="1" stop-color="#CF8AFF"/>
</linearGradient>
<linearGradient id="paint8_linear_359_3532" x1="107.128" y1="2.14542" x2="93.7396" y2="307.921" gradientUnits="userSpaceOnUse">
<stop stop-color="#E8C7FC"/>
<stop offset="0.00261481" stop-color="#D8B4F3"/>
<stop offset="0.00660721" stop-color="#C59EE8"/>
<stop offset="0.0113222" stop-color="#B78DE0"/>
<stop offset="0.0171532" stop-color="#AC82DA"/>
<stop offset="0.0253375" stop-color="#A77BD7"/>
<stop offset="0.0480571" stop-color="#A579D6"/>
<stop offset="0.1443" stop-color="#8158CB"/>
<stop offset="0.6142" stop-color="#8259CD"/>
<stop offset="0.7834" stop-color="#875DD4"/>
<stop offset="0.9037" stop-color="#8F63DF"/>
<stop offset="1" stop-color="#9A6CF0"/>
</linearGradient>
<linearGradient id="paint9_linear_359_3532" x1="75.6126" y1="288.778" x2="125.689" y2="0.00157106" gradientUnits="userSpaceOnUse">
<stop stop-color="#432594"/>
<stop offset="0.0322202" stop-color="#7257B7"/>
<stop offset="0.0776219" stop-color="#B099E6"/>
<stop offset="0.0990123" stop-color="#C9B3F8"/>
</linearGradient>
<linearGradient id="paint10_linear_359_3532" x1="74.4168" y1="278.166" x2="119.408" y2="17.6049" gradientUnits="userSpaceOnUse">
<stop offset="0.0139319" stop-color="#BED8D9"/>
<stop offset="0.15" stop-color="#DAE9EC"/>
<stop offset="0.639583" stop-color="#F3F8FB"/>
<stop offset="1" stop-color="white"/>
</linearGradient>
<radialGradient id="paint11_radial_359_3532" cx="0" cy="0" r="1" gradientUnits="userSpaceOnUse" gradientTransform="translate(96.5072 98.6428) rotate(5.91184) scale(43.0592 43.0592)">
<stop offset="0.00581592" stop-color="#59459A"/>
<stop offset="0.1298" stop-color="#59459A"/>
<stop offset="0.4658" stop-color="#59459A"/>
<stop offset="0.7358" stop-color="#1A132D"/>
<stop offset="0.8379" stop-color="#251C3F"/>
<stop offset="0.959051" stop-color="#251C3F"/>
</radialGradient>
<radialGradient id="paint12_radial_359_3532" cx="0" cy="0" r="1" gradientUnits="userSpaceOnUse" gradientTransform="translate(101.538 102.234) rotate(22.2141) scale(33.0979 35.4217)">
<stop offset="0.603712" stop-color="#584499"/>
<stop offset="1" stop-color="#36295F"/>
</radialGradient>
<linearGradient id="paint13_linear_359_3532" x1="93.1914" y1="88.1954" x2="107.53" y2="107.671" gradientUnits="userSpaceOnUse">
<stop stop-color="#C8FFA6"/>
<stop offset="0.4746" stop-color="#7DF57B"/>
<stop offset="0.6657" stop-color="#A0F578"/>
<stop offset="0.7865" stop-color="#70F57D"/>
<stop offset="0.8877" stop-color="#87F561"/>
<stop offset="0.9777" stop-color="#4CF653"/>
<stop offset="1" stop-color="#46F6B7"/>
</linearGradient>
<linearGradient id="paint14_linear_359_3532" x1="150.933" y1="34.676" x2="163.642" y2="45.4652" gradientUnits="userSpaceOnUse">
<stop stop-color="#CF8AFF"/>
<stop offset="0.084942" stop-color="#BE81FA"/>
<stop offset="0.222" stop-color="#AA75F5"/>
<stop offset="0.3585" stop-color="#9E6EF1"/>
<stop offset="0.4931" stop-color="#9A6CF0"/>
<stop offset="0.5988" stop-color="#9565EF"/>
<stop offset="0.7499" stop-color="#8552EC"/>
<stop offset="0.9275" stop-color="#6D34E7"/>
<stop offset="1" stop-color="#6125E5"/>
</linearGradient>
<linearGradient id="paint15_linear_359_3532" x1="78.9226" y1="249.872" x2="74.571" y2="270.964" gradientUnits="userSpaceOnUse">
<stop offset="0.0804652" stop-color="#CF8AFF"/>
<stop offset="0.1515" stop-color="#BE81FA"/>
<stop offset="0.2662" stop-color="#AA75F5"/>
<stop offset="0.3805" stop-color="#9E6EF1"/>
<stop offset="0.4931" stop-color="#9A6CF0"/>
<stop offset="0.5761" stop-color="#9565EF"/>
<stop offset="0.6947" stop-color="#8552EC"/>
<stop offset="0.8342" stop-color="#6D34E7"/>
<stop offset="0.8911" stop-color="#6125E5"/>
</linearGradient>
<linearGradient id="paint16_linear_359_3532" x1="88.828" y1="182.107" x2="82.875" y2="219.318" gradientUnits="userSpaceOnUse">
<stop offset="0.2344" stop-color="#A6BBBE"/>
<stop offset="0.2534" stop-color="#A9BEC1"/>
<stop offset="0.3811" stop-color="#B8D1D3"/>
<stop offset="0.4704" stop-color="#BED8D9"/>
<stop offset="0.5454" stop-color="#BAD3D5"/>
<stop offset="0.6295" stop-color="#AFC6C8"/>
<stop offset="0.6766" stop-color="#A6BBBE"/>
<stop offset="0.7373" stop-color="#9CAFB2"/>
<stop offset="0.8458" stop-color="#809093"/>
<stop offset="0.8983" stop-color="#717F82"/>
</linearGradient>
<linearGradient id="paint17_linear_359_3532" x1="94.776" y1="152.123" x2="88.8231" y2="189.334" gradientUnits="userSpaceOnUse">
<stop offset="0.2344" stop-color="#A6BBBE"/>
<stop offset="0.2534" stop-color="#A9BEC1"/>
<stop offset="0.3811" stop-color="#B8D1D3"/>
<stop offset="0.4704" stop-color="#BED8D9"/>
<stop offset="0.5454" stop-color="#BAD3D5"/>
<stop offset="0.6295" stop-color="#AFC6C8"/>
<stop offset="0.6766" stop-color="#A6BBBE"/>
<stop offset="0.7373" stop-color="#9CAFB2"/>
<stop offset="0.8458" stop-color="#809093"/>
<stop offset="0.8983" stop-color="#717F82"/>
</linearGradient>
</defs>
</svg>
