<svg width="155" height="132" viewBox="0 0 155 132" fill="none" xmlns="http://www.w3.org/2000/svg">
<g id="Group">
<g id="Group_2">
<path id="Vector" d="M154.417 59.6366C154.923 58.4682 155.089 57.2087 154.956 55.9657C154.898 54.1013 154.84 52.2369 154.774 50.3642C154.774 50.3891 154.774 50.4056 154.782 50.4305C154.542 47.9943 153.183 45.6493 151.095 44.3484C150.979 44.2738 150.863 44.2158 150.747 44.1412C135.202 34.0154 116.847 23.1355 100.093 14.8657C96.6703 13.1836 92.8835 14.3106 91.4417 17.2936C80.1806 40.6361 60.3929 60.6143 35.4678 75.5462C33.6116 76.6566 32.7913 78.2559 33.0316 79.8717C33.0316 79.8551 33.0233 79.8468 33.0233 79.8303C33.421 82.689 33.8022 85.5395 34.1834 88.3983C34.3408 89.5749 35.0617 90.7682 36.3793 91.7791C51.5183 103.43 66.3425 115.42 80.8352 127.742C81.1335 127.99 81.4484 128.222 81.7881 128.429C84.8458 130.302 89.5192 130.385 92.726 128.355C120.46 110.846 142.394 87.3459 154.417 59.6366Z" fill="url(#paint0_radial_245_2396)"/>
<path id="Vector_2" d="M153.958 56.0344L153.957 55.9968C153.899 54.1519 153.842 52.3094 153.777 50.4593C153.775 50.4404 153.774 50.4237 153.774 50.4095C153.53 48.3012 152.337 46.3004 150.566 45.1971L150.56 45.1934L150.554 45.1895C150.521 45.1686 150.486 45.148 150.424 45.113L150.418 45.1093C150.364 45.0782 150.286 45.034 150.206 44.9824L150.201 44.9789C134.562 34.7851 116.359 24.0098 99.6499 15.7625C96.6332 14.2805 93.4999 15.3341 92.3423 17.7281C80.9797 41.2811 61.0379 61.3937 35.9817 76.4041L35.9811 76.4044C34.4009 77.3497 33.864 78.5768 34.016 79.6918C34.0189 79.7082 34.0215 79.7257 34.0238 79.744C34.0263 79.7641 34.0282 79.7847 34.0295 79.8057C34.422 82.6295 34.7984 85.4448 35.1746 88.2657L153.958 56.0344ZM153.958 56.0344L153.962 56.0718C154.077 57.156 153.932 58.2408 153.5 59.2395M153.958 56.0344L154.78 50.5449C154.844 52.3551 154.9 54.1577 154.956 55.9604L154.956 55.9657C155.089 57.2087 154.923 58.4682 154.417 59.6366M154.417 59.6366L153.5 59.2385C153.5 59.2388 153.5 59.2392 153.5 59.2395M154.417 59.6366L153.5 59.2395M154.417 59.6366L153.5 59.2395M153.5 59.2395C141.571 86.7298 119.791 110.086 92.1922 127.509L92.1911 127.51C89.3169 129.329 85.0537 129.257 82.3104 127.577L82.3087 127.576C82.0193 127.399 81.7454 127.198 81.479 126.976C66.9751 114.645 52.1396 102.646 36.9891 90.9866L36.988 90.9857C35.8288 90.0962 35.2893 89.1222 35.1746 88.2661L153.5 59.2395ZM154.773 50.3465C154.51 47.9405 153.159 45.6343 151.095 44.3484C151.037 44.3111 150.979 44.2779 150.921 44.2448C150.863 44.2116 150.805 44.1785 150.747 44.1412C135.086 33.9325 116.847 23.1355 100.093 14.8657C96.6703 13.1836 92.8835 14.3106 91.4417 17.2936L154.773 50.3465Z" fill="url(#paint1_linear_245_2396)" stroke="url(#paint2_linear_245_2396)" stroke-width="2"/>
<path id="Vector_3" d="M110.873 83.9735C110.857 83.9652 110.832 83.9486 110.815 83.9404C98.974 76.9716 87.1329 70.0028 75.2918 63.034C73.6428 62.0894 71.3475 62.5452 70.146 64.045C68.9611 65.5117 69.3008 67.4424 70.9083 68.4118C70.9166 68.4201 70.9249 68.4201 70.9332 68.4284C70.9498 68.445 107.07 89.4259 107.07 89.4259C108.752 90.3705 110.948 89.9231 111.967 88.4067C112.978 86.9069 112.472 84.9347 110.873 83.9735Z" fill="url(#paint3_linear_245_2396)"/>
<path id="Vector_4" d="M122.83 71.892C122.814 71.8837 122.789 71.8671 122.772 71.8588C110.931 64.89 99.0899 57.9213 87.2488 50.9525C85.5998 50.0079 83.3045 50.4636 82.103 51.9634C80.9181 53.4301 81.2578 55.3608 82.8654 56.3303C82.8737 56.3386 82.8819 56.3386 82.8902 56.3469C82.9068 56.3635 119.027 77.3443 119.027 77.3443C120.709 78.289 122.905 77.8415 123.924 76.3251C124.935 74.8253 124.429 72.8532 122.83 71.892Z" fill="url(#paint4_linear_245_2396)"/>
<path id="Vector_5" d="M131.34 58.203C131.324 58.1947 131.299 58.1781 131.282 58.1699C119.441 51.2011 107.6 44.2323 95.7591 37.2635C94.1101 36.3189 91.8148 36.7746 90.6133 38.2745C89.4283 39.7411 89.7681 41.6718 91.3756 42.6413C91.3839 42.6496 91.3922 42.6496 91.4005 42.6579C91.4171 42.6745 127.537 63.6554 127.537 63.6554C129.219 64.6 131.415 64.1526 132.434 62.6362C133.437 61.1363 132.94 59.1642 131.34 58.203Z" fill="url(#paint5_linear_245_2396)"/>
<path id="Vector_6" d="M70.9416 86.2935C69.2926 85.2577 68.9529 83.385 70.2124 81.9764C71.4885 80.5511 73.8832 80.1865 75.5736 81.1726C82.0701 84.9843 88.5665 88.796 95.0547 92.6077C96.7534 93.5855 97.1926 95.5659 96.0242 96.9994C94.8641 98.4329 92.5108 98.7893 90.7873 97.8032C90.7955 97.8032 70.9664 86.3018 70.9416 86.2935Z" fill="url(#paint6_linear_245_2396)"/>
<g id="Group_3">
<g id="Clip path group">
<mask id="mask0_245_2396" style="mask-type:luminance" maskUnits="userSpaceOnUse" x="0" y="0" width="89" height="132">
<g id="SVGID_13_">
<path id="Vector_7" d="M5.51301 122.405L58.3961 131.835C63.0282 132.663 67.4447 129.573 68.2651 124.941L88.0693 12.6697C88.956 7.63159 85.2271 2.95813 80.1228 2.70125L26.2702 0.00820681C22.9059 -0.157519 19.9394 2.20407 19.3594 5.51859L0.102061 114.666C-0.535983 118.295 1.88361 121.759 5.51301 122.405Z" fill="white"/>
</g>
</mask>
<g mask="url(#mask0_245_2396)">
<path id="Vector_8" d="M4.32865 122.189L61.3798 132.382C64.3545 132.904 67.1884 130.923 67.7105 127.948L88.6499 9.27217C89.2217 6.02395 86.8021 3.00774 83.5042 2.85859L25.1604 -0.000184983C22.4176 -0.124479 20.0146 1.80623 19.534 4.50756L-0.104515 115.85C-0.626551 118.825 1.35387 121.659 4.32865 122.189Z" fill="url(#paint7_linear_245_2396)"/>
</g>
</g>
<g id="Clip path group_2">
<mask id="mask1_245_2396" style="mask-type:luminance" maskUnits="userSpaceOnUse" x="0" y="0" width="89" height="132">
<g id="SVGID_13__2">
<path id="Vector_9" d="M5.51301 122.405L58.3961 131.835C63.0282 132.663 67.4447 129.573 68.2651 124.941L88.0693 12.6697C88.956 7.63159 85.2271 2.95813 80.1228 2.70125L26.2702 0.00820681C22.9059 -0.157519 19.9394 2.20407 19.3594 5.51859L0.102061 114.666C-0.535983 118.295 1.88361 121.759 5.51301 122.405Z" fill="white"/>
</g>
</mask>
<g mask="url(#mask1_245_2396)">
<path id="Vector_10" d="M4.32865 122.19L60.7831 132.274C64.0894 132.854 67.2382 130.65 67.8182 127.352L88.5257 9.95213C89.1637 6.3393 86.4789 2.99164 82.8081 2.82592L25.1604 -0.00799749C22.4176 -0.132292 20.0146 1.79842 19.534 4.49975L-0.104515 115.851C-0.626551 118.826 1.35387 121.66 4.32865 122.19Z" fill="url(#paint8_linear_245_2396)"/>
</g>
</g>
<g id="Clip path group_3">
<mask id="mask2_245_2396" style="mask-type:luminance" maskUnits="userSpaceOnUse" x="0" y="0" width="89" height="132">
<g id="SVGID_13__3">
<path id="Vector_11" d="M5.51301 122.405L58.3961 131.835C63.0282 132.663 67.4447 129.573 68.2651 124.941L88.0693 12.6697C88.956 7.63159 85.2271 2.95813 80.1228 2.70125L26.2702 0.00820681C22.9059 -0.157519 19.9394 2.20407 19.3594 5.51859L0.102061 114.666C-0.535983 118.295 1.88361 121.759 5.51301 122.405Z" fill="white"/>
</g>
</mask>
<g mask="url(#mask2_245_2396)">
<path id="Vector_12" d="M4.32865 122.19L60.7831 132.274C64.0894 132.854 67.2382 130.65 67.8182 127.352L88.5257 9.95213C89.1637 6.3393 86.4789 2.99164 82.8081 2.82592L25.1604 -0.00799749C22.4176 -0.132292 20.0146 1.79842 19.534 4.49975L-0.104515 115.851C-0.626551 118.826 1.35387 121.66 4.32865 122.19Z" fill="url(#paint9_linear_245_2396)"/>
</g>
</g>
<g id="Clip path group_4">
<mask id="mask3_245_2396" style="mask-type:luminance" maskUnits="userSpaceOnUse" x="0" y="0" width="89" height="132">
<g id="SVGID_13__4">
<path id="Vector_13" d="M5.51301 122.405L58.3961 131.835C63.0282 132.663 67.4448 129.573 68.2651 124.941L88.0693 12.6697C88.956 7.63159 85.2271 2.95813 80.1228 2.70125L26.2702 0.00820681C22.9059 -0.157519 19.9394 2.20407 19.3594 5.51859L0.102061 114.666C-0.535983 118.295 1.88361 121.759 5.51301 122.405Z" fill="white"/>
</g>
</mask>
<g mask="url(#mask3_245_2396)">
<path id="Vector_14" d="M9.81372 116.306L56.101 124.079C58.6117 124.501 60.9816 122.803 61.3959 120.292L78.8468 14.6333C79.286 11.9486 77.3222 9.47096 74.6042 9.29695L29.4688 6.38018C27.0078 6.22274 24.8202 7.92971 24.3727 10.3576L6.04346 110.953C5.58771 113.472 7.27812 115.884 9.81372 116.306Z" fill="url(#paint10_linear_245_2396)"/>
</g>
</g>
</g>
<path id="Vector_15" d="M48.1129 29.8966C46.4474 29.6315 44.6658 29.6481 42.8345 29.9961C33.4379 31.8108 26.668 41.0086 29.2533 50.5212C33.8522 67.4667 59.9706 61.4011 60.2606 45.1103C60.4015 37.3377 55.1977 31.0402 48.1129 29.8966Z" fill="url(#paint11_radial_245_2396)"/>
<path id="Vector_16" d="M57.9819 50.6458C53.9796 58.3355 44.6824 62.0975 37.2082 59.0481C29.7422 55.9988 26.9249 47.2899 30.9272 39.6002C34.9295 31.9105 44.2267 28.1486 51.7009 31.1979C59.1751 34.2473 61.9842 42.9562 57.9819 50.6458Z" fill="url(#paint12_radial_245_2396)"/>
<path id="Vector_17" opacity="0.18" d="M34.2576 40.2301C33.9593 40.6776 33.5947 41.0504 33.1555 40.9179C32.8241 40.8184 32.6667 40.429 32.6418 40.0892C32.5838 39.2523 33.0312 38.4651 33.545 37.8105C34.6056 36.435 36.0226 35.2086 37.6136 34.496C37.8622 34.38 38.1356 34.2888 38.4091 34.3137C38.6825 34.3385 38.9642 34.5043 39.0388 34.7694C39.2708 35.5566 37.5058 36.551 37.0004 36.957C36.1883 37.6033 35.4757 38.3574 34.8708 39.1943C34.7134 39.4098 34.5145 39.8489 34.2576 40.2301Z" fill="white"/>
<path id="Vector_18" d="M51.3696 40.1053C50.8973 40.0308 50.4167 40.1385 50.0023 40.4368C47.1684 42.4918 44.2517 44.5551 41.2603 46.6266C40.2577 45.0937 39.2633 43.5524 38.2607 42.0112C37.9375 41.514 37.4403 41.2074 36.91 41.1245C36.4377 41.05 35.9322 41.1577 35.5013 41.4643C34.5816 42.1106 34.3164 43.395 34.9213 44.3396C36.2637 46.4526 37.6143 48.5573 38.965 50.6538C39.255 51.1012 39.7108 51.4161 40.2411 51.5155C40.2659 51.5238 40.2825 51.5238 40.3074 51.5238C40.8128 51.5984 41.3349 51.4824 41.7741 51.1841C45.3952 48.7231 48.9086 46.2786 52.3059 43.8424C53.1926 43.2044 53.3831 41.9283 52.7451 40.992C52.3971 40.4865 51.8916 40.1882 51.3696 40.1053Z" fill="url(#paint13_linear_245_2396)"/>
<g id="Group_4">
<path id="Vector_19" d="M72.3693 19.1756C72.8427 17.5593 71.9162 15.8653 70.3 15.3919C68.6838 14.9185 66.9898 15.845 66.5164 17.4612C66.043 19.0775 66.9694 20.7715 68.5856 21.2449C70.2019 21.7183 71.8959 20.7918 72.3693 19.1756Z" fill="#BED8D9"/>
<path id="Vector_20" d="M68.9693 20.6583C70.6534 20.6583 72.0186 19.293 72.0186 17.6089C72.0186 15.9248 70.6534 14.5596 68.9693 14.5596C67.2852 14.5596 65.9199 15.9248 65.9199 17.6089C65.9199 19.293 67.2852 20.6583 68.9693 20.6583Z" fill="url(#paint14_linear_245_2396)"/>
</g>
<g id="Group_5">
<path id="Vector_21" d="M27.7868 117.202L39.1556 118.975C40.73 119.224 42.2133 118.138 42.4618 116.564C42.7104 114.989 41.6249 113.506 40.0505 113.257L28.6817 111.484C27.1073 111.236 25.6241 112.321 25.3755 113.895C25.1269 115.47 26.2041 116.953 27.7868 117.202Z" fill="#BED8D9"/>
<path id="Vector_22" d="M27.4717 116.481L38.8405 118.254C40.4149 118.502 41.8981 117.417 42.1467 115.842C42.3953 114.268 41.3098 112.785 39.7354 112.536L28.3666 110.763C26.7922 110.514 25.309 111.6 25.0604 113.174C24.8201 114.757 25.8973 116.232 27.4717 116.481Z" fill="url(#paint15_linear_245_2396)"/>
</g>
<path id="Vector_23" d="M23.3535 90.2379L50.5325 94.4556C52.1069 94.7042 53.5902 93.6187 53.8388 92.0443C54.0874 90.4699 53.0019 88.9866 51.4275 88.738L24.2484 84.5203C22.674 84.2717 21.1908 85.3572 20.9422 86.9316C20.6936 88.5143 21.7791 89.9893 23.3535 90.2379Z" fill="url(#paint16_linear_245_2396)"/>
<path id="Vector_24" d="M25.98 77.0049L53.159 81.2227C54.7334 81.4713 56.2166 80.3858 56.4652 78.8114C56.7138 77.237 55.6283 75.7537 54.0539 75.5051L26.8749 71.2874C25.3005 71.0388 23.8172 72.1243 23.5687 73.6987C23.3201 75.2814 24.4056 76.7564 25.98 77.0049Z" fill="url(#paint17_linear_245_2396)"/>
</g>
</g>
<defs>
<radialGradient id="paint0_radial_245_2396" cx="0" cy="0" r="1" gradientUnits="userSpaceOnUse" gradientTransform="translate(20.0681 2.71441) rotate(31.7509) scale(159.965 159.965)">
<stop offset="0.4279" stop-color="#F3F8FB"/>
<stop offset="0.6492" stop-color="#DFEEF0"/>
<stop offset="0.7882" stop-color="#ECFCFF"/>
<stop offset="0.8144" stop-color="#E6F7FA"/>
<stop offset="0.8485" stop-color="#D6EBED"/>
<stop offset="0.8832" stop-color="#BED8D9"/>
<stop offset="0.9447" stop-color="#BED8D9"/>
</radialGradient>
<linearGradient id="paint1_linear_245_2396" x1="137.525" y1="20.0637" x2="53.7278" y2="121.204" gradientUnits="userSpaceOnUse">
<stop offset="0.0554282" stop-color="#F3F8FB"/>
<stop offset="0.1434" stop-color="#E3ECF1"/>
<stop offset="0.5671" stop-color="#E3ECF1"/>
<stop offset="0.8483" stop-color="#BED8D9"/>
<stop offset="0.9098" stop-color="#BED8D9"/>
</linearGradient>
<linearGradient id="paint2_linear_245_2396" x1="93.9953" y1="14.0825" x2="93.9953" y2="129.856" gradientUnits="userSpaceOnUse">
<stop stop-color="#E3DAFF"/>
<stop offset="0.238338" stop-color="#584499"/>
</linearGradient>
<linearGradient id="paint3_linear_245_2396" x1="96.1587" y1="67.3831" x2="86.965" y2="83.2612" gradientUnits="userSpaceOnUse">
<stop offset="0.2344" stop-color="#A6BBBE"/>
<stop offset="0.2534" stop-color="#A9BEC1"/>
<stop offset="0.3811" stop-color="#B8D1D3"/>
<stop offset="0.4704" stop-color="#BED8D9"/>
<stop offset="0.5454" stop-color="#BAD3D5"/>
<stop offset="0.6295" stop-color="#AFC6C8"/>
<stop offset="0.6766" stop-color="#A6BBBE"/>
<stop offset="0.7373" stop-color="#9CAFB2"/>
<stop offset="0.8458" stop-color="#809093"/>
<stop offset="0.8983" stop-color="#717F82"/>
</linearGradient>
<linearGradient id="paint4_linear_245_2396" x1="108.116" y1="55.2992" x2="98.9228" y2="71.1773" gradientUnits="userSpaceOnUse">
<stop offset="0.2344" stop-color="#A6BBBE"/>
<stop offset="0.2534" stop-color="#A9BEC1"/>
<stop offset="0.3811" stop-color="#B8D1D3"/>
<stop offset="0.4704" stop-color="#BED8D9"/>
<stop offset="0.5454" stop-color="#BAD3D5"/>
<stop offset="0.6295" stop-color="#AFC6C8"/>
<stop offset="0.6766" stop-color="#A6BBBE"/>
<stop offset="0.7373" stop-color="#9CAFB2"/>
<stop offset="0.8458" stop-color="#809093"/>
<stop offset="0.8983" stop-color="#717F82"/>
</linearGradient>
<linearGradient id="paint5_linear_245_2396" x1="116.621" y1="41.6118" x2="107.427" y2="57.4899" gradientUnits="userSpaceOnUse">
<stop offset="0.2344" stop-color="#A6BBBE"/>
<stop offset="0.2534" stop-color="#A9BEC1"/>
<stop offset="0.3811" stop-color="#B8D1D3"/>
<stop offset="0.4704" stop-color="#BED8D9"/>
<stop offset="0.5454" stop-color="#BAD3D5"/>
<stop offset="0.6295" stop-color="#AFC6C8"/>
<stop offset="0.6766" stop-color="#A6BBBE"/>
<stop offset="0.7373" stop-color="#9CAFB2"/>
<stop offset="0.8458" stop-color="#809093"/>
<stop offset="0.8983" stop-color="#717F82"/>
</linearGradient>
<linearGradient id="paint6_linear_245_2396" x1="87.8551" y1="81.8042" x2="79.2066" y2="95.7968" gradientUnits="userSpaceOnUse">
<stop offset="0.2344" stop-color="#A6BBBE"/>
<stop offset="0.2534" stop-color="#A9BEC1"/>
<stop offset="0.3811" stop-color="#B8D1D3"/>
<stop offset="0.4704" stop-color="#BED8D9"/>
<stop offset="0.5454" stop-color="#BAD3D5"/>
<stop offset="0.6295" stop-color="#AFC6C8"/>
<stop offset="0.6766" stop-color="#A6BBBE"/>
<stop offset="0.7373" stop-color="#9CAFB2"/>
<stop offset="0.8458" stop-color="#809093"/>
<stop offset="0.8983" stop-color="#717F82"/>
</linearGradient>
<linearGradient id="paint7_linear_245_2396" x1="78.178" y1="68.6026" x2="10.3392" y2="56.6371" gradientUnits="userSpaceOnUse">
<stop stop-color="#9A6CF0"/>
<stop offset="0.00803427" stop-color="#9D70EA"/>
<stop offset="0.0315698" stop-color="#A577DC"/>
<stop offset="0.0521553" stop-color="#A77AD7"/>
<stop offset="0.0819316" stop-color="#966BCA"/>
<stop offset="0.1288" stop-color="#825ABB"/>
<stop offset="0.1824" stop-color="#744EB0"/>
<stop offset="0.2477" stop-color="#6B47AA"/>
<stop offset="0.3586" stop-color="#6945A8"/>
<stop offset="0.5582" stop-color="#6B46AA"/>
<stop offset="0.6751" stop-color="#704BB3"/>
<stop offset="0.7706" stop-color="#7A52C1"/>
<stop offset="0.854" stop-color="#875DD5"/>
<stop offset="0.9297" stop-color="#996BEE"/>
<stop offset="0.9339" stop-color="#9A6CF0"/>
<stop offset="0.9506" stop-color="#A06FF2"/>
<stop offset="0.9724" stop-color="#B079F6"/>
<stop offset="0.9971" stop-color="#CB88FE"/>
<stop offset="1" stop-color="#CF8AFF"/>
</linearGradient>
<linearGradient id="paint8_linear_245_2396" x1="46.9246" y1="0.946934" x2="41.0155" y2="135.904" gradientUnits="userSpaceOnUse">
<stop stop-color="#E8C7FC"/>
<stop offset="0.00261481" stop-color="#D8B4F3"/>
<stop offset="0.00660721" stop-color="#C59EE8"/>
<stop offset="0.0113222" stop-color="#B78DE0"/>
<stop offset="0.0171532" stop-color="#AC82DA"/>
<stop offset="0.0253375" stop-color="#A77BD7"/>
<stop offset="0.0480571" stop-color="#A579D6"/>
<stop offset="0.1443" stop-color="#8158CB"/>
<stop offset="0.6142" stop-color="#8259CD"/>
<stop offset="0.7834" stop-color="#875DD4"/>
<stop offset="0.9037" stop-color="#8F63DF"/>
<stop offset="1" stop-color="#9A6CF0"/>
</linearGradient>
<linearGradient id="paint9_linear_245_2396" x1="33.015" y1="127.455" x2="55.1165" y2="0.000726222" gradientUnits="userSpaceOnUse">
<stop stop-color="#432594"/>
<stop offset="0.0322202" stop-color="#7257B7"/>
<stop offset="0.0776219" stop-color="#B099E6"/>
<stop offset="0.0990123" stop-color="#C9B3F8"/>
</linearGradient>
<linearGradient id="paint10_linear_245_2396" x1="32.4861" y1="122.771" x2="52.3435" y2="7.77002" gradientUnits="userSpaceOnUse">
<stop offset="0.0139319" stop-color="#BED8D9"/>
<stop offset="0.15" stop-color="#DAE9EC"/>
<stop offset="0.639583" stop-color="#F3F8FB"/>
<stop offset="1" stop-color="white"/>
</linearGradient>
<radialGradient id="paint11_radial_245_2396" cx="0" cy="0" r="1" gradientUnits="userSpaceOnUse" gradientTransform="translate(42.2362 43.5369) rotate(5.91184) scale(19.0046 19.0046)">
<stop offset="0.00581592" stop-color="#59459A"/>
<stop offset="0.1298" stop-color="#59459A"/>
<stop offset="0.4658" stop-color="#59459A"/>
<stop offset="0.7358" stop-color="#1A132D"/>
<stop offset="0.8379" stop-color="#251C3F"/>
<stop offset="0.959051" stop-color="#251C3F"/>
</radialGradient>
<radialGradient id="paint12_radial_245_2396" cx="0" cy="0" r="1" gradientUnits="userSpaceOnUse" gradientTransform="translate(44.4568 45.1222) rotate(22.2141) scale(14.6081 15.6337)">
<stop offset="0.603712" stop-color="#584499"/>
<stop offset="1" stop-color="#36295F"/>
</radialGradient>
<linearGradient id="paint13_linear_245_2396" x1="40.7731" y1="38.9257" x2="47.1016" y2="47.5214" gradientUnits="userSpaceOnUse">
<stop stop-color="#C8FFA6"/>
<stop offset="0.4746" stop-color="#7DF57B"/>
<stop offset="0.6657" stop-color="#A0F578"/>
<stop offset="0.7865" stop-color="#70F57D"/>
<stop offset="0.8877" stop-color="#87F561"/>
<stop offset="0.9777" stop-color="#4CF653"/>
<stop offset="1" stop-color="#46F6B7"/>
</linearGradient>
<linearGradient id="paint14_linear_245_2396" x1="66.2571" y1="15.3046" x2="71.8665" y2="20.0665" gradientUnits="userSpaceOnUse">
<stop stop-color="#CF8AFF"/>
<stop offset="0.084942" stop-color="#BE81FA"/>
<stop offset="0.222" stop-color="#AA75F5"/>
<stop offset="0.3585" stop-color="#9E6EF1"/>
<stop offset="0.4931" stop-color="#9A6CF0"/>
<stop offset="0.5988" stop-color="#9565EF"/>
<stop offset="0.7499" stop-color="#8552EC"/>
<stop offset="0.9275" stop-color="#6D34E7"/>
<stop offset="1" stop-color="#6125E5"/>
</linearGradient>
<linearGradient id="paint15_linear_245_2396" x1="34.4759" y1="110.284" x2="32.5553" y2="119.593" gradientUnits="userSpaceOnUse">
<stop offset="0.0804652" stop-color="#CF8AFF"/>
<stop offset="0.1515" stop-color="#BE81FA"/>
<stop offset="0.2662" stop-color="#AA75F5"/>
<stop offset="0.3805" stop-color="#9E6EF1"/>
<stop offset="0.4931" stop-color="#9A6CF0"/>
<stop offset="0.5761" stop-color="#9565EF"/>
<stop offset="0.6947" stop-color="#8552EC"/>
<stop offset="0.8342" stop-color="#6D34E7"/>
<stop offset="0.8911" stop-color="#6125E5"/>
</linearGradient>
<linearGradient id="paint16_linear_245_2396" x1="38.8472" y1="80.3748" x2="36.2199" y2="96.7982" gradientUnits="userSpaceOnUse">
<stop offset="0.2344" stop-color="#A6BBBE"/>
<stop offset="0.2534" stop-color="#A9BEC1"/>
<stop offset="0.3811" stop-color="#B8D1D3"/>
<stop offset="0.4704" stop-color="#BED8D9"/>
<stop offset="0.5454" stop-color="#BAD3D5"/>
<stop offset="0.6295" stop-color="#AFC6C8"/>
<stop offset="0.6766" stop-color="#A6BBBE"/>
<stop offset="0.7373" stop-color="#9CAFB2"/>
<stop offset="0.8458" stop-color="#809093"/>
<stop offset="0.8983" stop-color="#717F82"/>
</linearGradient>
<linearGradient id="paint17_linear_245_2396" x1="41.4719" y1="67.141" x2="38.8445" y2="83.5645" gradientUnits="userSpaceOnUse">
<stop offset="0.2344" stop-color="#A6BBBE"/>
<stop offset="0.2534" stop-color="#A9BEC1"/>
<stop offset="0.3811" stop-color="#B8D1D3"/>
<stop offset="0.4704" stop-color="#BED8D9"/>
<stop offset="0.5454" stop-color="#BAD3D5"/>
<stop offset="0.6295" stop-color="#AFC6C8"/>
<stop offset="0.6766" stop-color="#A6BBBE"/>
<stop offset="0.7373" stop-color="#9CAFB2"/>
<stop offset="0.8458" stop-color="#809093"/>
<stop offset="0.8983" stop-color="#717F82"/>
</linearGradient>
</defs>
</svg>
