<svg width="176" height="139" viewBox="0 0 176 139" fill="none" xmlns="http://www.w3.org/2000/svg">
<g id="Group">
<g id="Group_2">
<g id="Group_3">
<g id="Clip path group">
<mask id="mask0_244_2355" style="mask-type:luminance" maskUnits="userSpaceOnUse" x="12" y="32" width="156" height="107">
<g id="SVGID_5_">
<path id="Vector" d="M15.9783 98.5294C55.7072 120.713 97.1396 134.142 137.417 138.826C140.067 139.139 142.878 137.284 143.995 134.53C151.821 115.242 159.601 95.6241 167.304 75.665C168.572 72.3621 167.162 69.381 164.2 69.1066C125.512 65.4346 85.1206 53.4251 45.6851 33.078C42.9311 31.6584 39.8743 32.4534 38.7197 34.9329C29.9184 53.7374 21.1644 72.1255 12.4956 90.0878C11.2085 92.7755 12.8268 96.7692 15.9783 98.5294Z" fill="white"/>
</g>
</mask>
<g mask="url(#mask0_244_2355)">
<path id="Vector_2" d="M13.6884 104.823C54.0514 125.302 96.2314 136.725 137.238 139.091C140.03 139.252 142.869 137.284 144.014 134.444C151.774 115.337 159.487 95.8984 167.134 76.1286C168.506 72.5797 166.964 69.3715 163.774 69.0686C125.162 65.3399 84.8749 53.3209 45.534 32.9927C42.5434 31.4501 39.2406 32.3019 38.0008 34.9896C28.4519 55.6679 18.9786 75.8447 9.60002 95.5388C8.18045 98.5294 10.1205 103.015 13.6884 104.823Z" fill="url(#paint0_linear_244_2355)"/>
</g>
</g>
<g id="Clip path group_2">
<mask id="mask1_244_2355" style="mask-type:luminance" maskUnits="userSpaceOnUse" x="12" y="32" width="156" height="107">
<g id="SVGID_5__2">
<path id="Vector_3" d="M15.9783 98.5294C55.7072 120.713 97.1396 134.142 137.417 138.826C140.067 139.139 142.878 137.284 143.995 134.53C151.821 115.242 159.601 95.6241 167.304 75.665C168.572 72.3621 167.162 69.381 164.2 69.1066C125.512 65.4346 85.1206 53.4251 45.6851 33.078C42.9311 31.6584 39.8743 32.4534 38.7197 34.9329C29.9184 53.7374 21.1644 72.1255 12.4956 90.0878C11.2085 92.7755 12.8268 96.7692 15.9783 98.5294Z" fill="white"/>
</g>
</mask>
<g mask="url(#mask1_244_2355)">
<path id="Vector_4" d="M13.518 104.709C53.9283 125.255 96.1746 136.706 137.219 139.082C140.011 139.242 142.85 137.274 144.005 134.444C151.765 115.337 159.487 95.8984 167.125 76.1286C168.497 72.5797 166.954 69.3714 163.755 69.0591C125.096 65.3304 84.7423 53.2736 45.3541 32.898C42.3635 31.3554 39.0512 32.1977 37.8115 34.8854C28.2625 55.5543 18.7893 75.7311 9.41067 95.4157C8.00057 98.4063 9.95011 102.892 13.518 104.709Z" fill="url(#paint1_linear_244_2355)"/>
</g>
</g>
</g>
<g id="Group_4">
<path id="Vector_5" d="M33.8363 73.7434C33.3064 74.8696 33.8742 76.4028 35.095 77.1788C42.4011 81.8255 46.3664 90.2104 44.2938 97.6111C43.9437 98.8508 44.6534 100.308 45.9405 100.886C71.6631 112.403 97.7925 120.362 123.591 124.782C124.755 124.971 125.995 124.337 126.667 123.23C129.79 118.034 135.771 114.759 141.477 114.504C142.717 114.447 143.919 113.539 144.392 112.28C146.067 107.86 147.742 103.431 149.408 98.9833C149.919 97.6111 149.455 96.2483 148.282 95.8413C142.518 93.854 139.622 87.5322 141.316 80.8223C141.676 79.4122 140.91 78.163 139.604 77.9359C114.78 73.4974 89.4928 65.7276 64.4233 54.6266C63.316 54.1345 62.0668 54.4657 61.48 55.4216C57.5526 61.8191 49.48 64.2323 41.8711 61.1377C40.7165 60.674 39.5335 61.0809 39.0793 62.0935C37.3285 66.0021 35.5777 69.8822 33.8363 73.7434ZM126.922 91.4123C131.266 92.3965 133.509 97.2704 132.032 102.457C130.556 107.643 124.717 111.845 120.354 110.737C115.991 109.64 114.78 103.81 116.266 98.7278C117.752 93.6458 122.569 90.4375 126.922 91.4123ZM98.8525 77.264C106.083 79.5921 109.556 87.4659 106.774 96.8918C103.991 106.318 94.9061 111.04 87.6758 108.371C80.4454 105.712 77.824 97.0338 80.6063 87.9202C83.3792 78.8066 91.6222 74.9548 98.8525 77.264ZM64.234 71.7844C69.2119 73.999 71.294 79.4122 69.5526 85.0716C67.8113 90.7404 61.3192 93.7025 56.3601 91.3177C51.3917 88.9423 49.8207 82.3082 51.5525 76.7813C53.2749 71.2545 59.256 69.5794 64.234 71.7844Z" fill="#70CFB1"/>
<path id="Vector_6" d="M123.733 122.87C123.667 122.87 123.6 122.861 123.544 122.851C97.5939 118.403 71.5874 110.397 46.234 99.0593C45.5242 98.747 45.2119 97.9615 45.3633 97.441C47.5684 89.5671 43.5368 80.5292 35.5683 75.4566C34.8964 75.0308 34.6219 74.2169 34.8206 73.791C36.5714 69.9109 38.3222 66.0212 40.0636 62.1222C40.1866 61.8572 40.4327 61.8004 40.6314 61.8004C40.7734 61.8004 40.9153 61.8288 41.0667 61.895C43.4138 62.8509 45.8459 63.3335 48.2781 63.3335C54.1457 63.3335 59.4265 60.4471 62.3886 55.6111C62.5874 55.2893 62.947 55.2515 63.0889 55.2515C63.2498 55.2515 63.4202 55.2893 63.5811 55.3556C88.4803 66.3809 113.881 74.2547 139.074 78.7595C139.301 78.7973 139.481 78.9109 139.594 79.0813C139.736 79.2989 139.764 79.6018 139.689 79.933C137.805 87.381 141.108 94.3937 147.553 96.6176C147.648 96.646 147.771 96.7123 147.856 96.9016C147.979 97.1665 147.97 97.564 147.828 97.952C146.171 102.372 144.477 106.839 142.812 111.239C142.537 111.968 141.818 112.536 141.137 112.564C134.711 112.848 128.455 116.539 125.19 121.962C124.859 122.501 124.272 122.87 123.733 122.87ZM125.048 89.2832C120.458 89.2832 116.086 92.851 114.648 97.7722C113.559 101.482 113.834 105.447 115.367 108.116C116.379 109.886 117.884 111.059 119.73 111.523C120.307 111.665 120.913 111.741 121.547 111.741C126.345 111.741 131.626 107.406 133.092 102.268C134.001 99.0877 133.679 95.8321 132.203 93.3526C131.02 91.3558 129.156 89.9835 126.951 89.4819C126.335 89.3589 125.692 89.2832 125.048 89.2832ZM94.3857 74.6522C87.3162 74.6522 81.2689 79.4882 78.9881 86.9646C75.8745 97.1571 79.1301 106.271 86.9187 109.129C88.4046 109.678 89.9755 109.952 91.5938 109.952C98.862 109.952 105.543 104.51 107.834 96.7312C110.767 86.7753 107.133 77.9929 99.004 75.3809C97.4992 74.8983 95.9472 74.6522 94.3857 74.6522ZM59.5779 68.8888C54.969 68.8888 51.2687 71.5386 49.9343 75.8068C48.1456 81.5229 49.48 89.1507 55.4706 92.0182C56.805 92.6618 58.253 92.9835 59.7766 92.9835C64.6883 92.9835 69.1458 89.6712 70.6032 84.9204C72.5527 78.5702 70.0543 72.4093 64.518 69.9487C62.9565 69.2579 61.2435 68.8888 59.5779 68.8888Z" fill="#8EE8CD"/>
</g>
</g>
<g id="Group_5">
<g id="Group_6">
<g id="Clip path group_3">
<mask id="mask2_244_2355" style="mask-type:luminance" maskUnits="userSpaceOnUse" x="26" y="0" width="150" height="91">
<g id="SVGID_12_">
<path id="Vector_7" d="M170.569 70.5544C130.244 89.3683 86.5405 95.1791 45.5813 87.9772C42.8841 87.504 40.4046 84.9582 39.7516 82.0812C35.2374 61.9707 30.7515 41.6993 26.3225 21.267C25.5938 17.8884 27.5244 15.5982 30.5528 16.1755C70.2912 23.6708 113.437 18.4563 154.093 0.531879C156.932 -0.717339 159.648 0.295283 160.311 2.92621C165.317 22.8569 170.276 42.5889 175.178 62.1316C175.916 65.0559 173.768 69.0591 170.569 70.5544Z" fill="white"/>
</g>
</mask>
<g mask="url(#mask2_244_2355)">
<path id="Vector_8" d="M171.61 77.3302C131.049 94.1852 86.9946 97.8288 45.7231 88.2798C42.9124 87.6363 40.4234 84.9675 39.7609 82.0148C35.2751 62.0841 30.8366 42.0019 26.436 21.7495C25.6505 18.1154 27.7325 15.6548 31.0164 16.2605C70.6791 23.6422 113.711 18.3804 154.254 0.465423C157.329 -0.887897 160.282 0.200438 160.973 3.03957C166.339 24.9482 171.658 46.6392 176.91 68.0936C177.714 71.3491 175.197 75.8349 171.61 77.3302Z" fill="url(#paint2_linear_244_2355)"/>
</g>
</g>
<g id="Clip path group_4">
<mask id="mask3_244_2355" style="mask-type:luminance" maskUnits="userSpaceOnUse" x="26" y="0" width="150" height="91">
<g id="SVGID_12__2">
<path id="Vector_9" d="M170.569 70.5544C130.244 89.3683 86.5405 95.1791 45.5813 87.9772C42.8841 87.504 40.4046 84.9582 39.7516 82.0812C35.2374 61.9707 30.7515 41.6993 26.3225 21.267C25.5938 17.8884 27.5244 15.5982 30.5528 16.1755C70.2912 23.6708 113.437 18.4563 154.093 0.531879C156.932 -0.717339 159.648 0.295283 160.311 2.92621C165.317 22.8569 170.276 42.5889 175.178 62.1316C175.916 65.0559 173.768 69.0591 170.569 70.5544Z" fill="white"/>
</g>
</mask>
<g mask="url(#mask3_244_2355)">
<path id="Vector_10" d="M171.79 77.2262C131.181 94.1475 87.0698 97.8289 45.7415 88.2705C42.9308 87.6269 40.4324 84.9581 39.7699 81.996C35.2841 62.0653 30.8361 41.9831 26.4354 21.7306C25.6499 18.0966 27.7414 15.636 31.0254 16.2511C70.7354 23.6423 113.843 18.3521 154.433 0.370906C157.518 -0.991878 160.461 0.096457 161.162 2.93559C166.528 24.8442 171.846 46.5163 177.099 67.9707C177.894 71.2451 175.376 75.731 171.79 77.2262Z" fill="url(#paint3_linear_244_2355)"/>
</g>
</g>
</g>
<g id="Group_7">
<path id="Vector_11" d="M155.313 30.759C155.058 29.6802 154.017 29.1597 152.853 29.5193C145.158 31.9704 137.833 28.6297 135.184 21.7779C134.786 20.7464 133.651 20.2921 132.486 20.6612C106.376 29.065 79.688 32.4057 53.9087 30.6833C52.5554 30.5887 51.5712 31.5635 51.6847 32.9736C52.2242 39.655 48.221 44.8695 42.079 45.144C40.8298 45.2008 40.1295 46.3364 40.4134 47.7371C41.3314 52.2986 42.2494 56.8601 43.1768 61.4122C43.4418 62.7088 44.4923 63.8823 45.7226 64.2703C51.3914 66.0589 56.8046 70.6299 59.0192 76.3082C59.4924 77.5101 60.6185 78.4281 61.811 78.5416C88.3096 80.8035 115.603 77.7751 142.092 69.4659C143.417 69.0495 144.345 67.6678 144.231 66.3618C143.54 58.6015 148.793 50.6235 156.449 46.5825C157.726 45.9105 158.521 44.3869 158.218 43.185C157.253 39.0493 156.278 34.9136 155.313 30.759ZM73.6786 55.5541C74.2748 60.7119 72.0319 66.0211 67.4892 66.0495C62.9466 66.0873 57.8362 60.693 57.2494 55.469C56.6627 50.245 59.7573 46.2229 64.2905 46.2796C68.8331 46.3364 73.0918 50.3869 73.6786 55.5541ZM110.9 51.6361C112.007 61.0431 107.918 69.2104 100.338 70.488C92.7575 71.7845 84.5714 65.3586 83.4641 55.7623C82.3568 46.1566 87.2212 39.2954 94.8017 38.2544C102.373 37.2228 109.783 42.2102 110.9 51.6361ZM140.957 44.4058C141.638 50.1882 138.988 56.7276 133.811 58.4595C128.635 60.2008 122.862 56.3112 122.171 50.4342C121.48 44.5572 124.461 39.4846 129.657 37.8758C134.852 36.2764 140.275 38.614 140.957 44.4058Z" fill="#70CFB1"/>
<path id="Vector_12" d="M78.8938 77.3111C73.2344 77.3111 67.5278 77.065 61.9347 76.5919C61.2817 76.5351 60.6003 75.9672 60.3258 75.248C58.0545 69.4372 52.4898 64.393 46.1491 62.3867C45.4015 62.1501 44.7106 61.3741 44.5497 60.5791C43.6317 56.0271 42.7043 51.475 41.7863 46.904C41.7011 46.497 41.7768 46.2131 41.8809 46.0901C41.9093 46.0522 41.9661 45.986 42.1554 45.9765C45.2784 45.8346 48.0892 44.5191 50.0766 42.2573C52.329 39.7021 53.3889 36.1626 53.0766 32.3014C53.0577 32.1216 53.0766 31.866 53.228 31.7052C53.37 31.5537 53.5782 31.5254 53.7391 31.5254C53.7674 31.5254 53.7958 31.5254 53.8242 31.5254C58.2343 31.8187 62.7296 31.9701 67.1871 31.9701C89.1241 31.9701 111.241 28.4307 132.932 21.4464C133.055 21.4086 133.178 21.3896 133.301 21.3896C133.471 21.3896 133.784 21.437 133.897 21.7398C136.15 27.56 141.506 31.1752 147.866 31.1752C149.664 31.1752 151.49 30.8818 153.289 30.314C153.393 30.2761 153.506 30.2667 153.601 30.2667C153.885 30.2667 153.942 30.4086 153.97 30.5411L156.875 42.9671C157.008 43.516 156.582 44.4056 155.815 44.8125C147.478 49.2132 142.15 57.9009 142.859 65.9451C142.916 66.6076 142.377 67.3836 141.695 67.5918C121.083 74.0366 99.9601 77.3111 78.8938 77.3111ZM96.7519 36.1626C96.0421 36.1626 95.3229 36.2099 94.6131 36.3046C86.0768 37.4781 80.919 45.3046 82.0831 55.3457C83.1241 64.393 90.2787 71.4814 98.3702 71.4814C99.1084 71.4814 99.856 71.4152 100.575 71.2921C108.591 69.9388 113.522 61.3646 112.282 50.8977C111.26 42.2289 104.872 36.1626 96.7519 36.1626ZM64.2155 44.3204C61.8495 44.3204 59.7012 45.2668 58.1586 46.9986C56.3605 49.0144 55.5182 51.9576 55.8684 55.0618C56.5309 61.0334 62.2659 66.882 67.4426 66.882H67.5089C69.4679 66.8726 71.2186 66.0587 72.5625 64.535C74.5404 62.3016 75.5057 58.5823 75.0704 54.8252C74.4174 49.0996 69.5909 44.3772 64.3196 44.3109L64.2155 44.3204ZM132.847 35.4339C131.654 35.4339 130.433 35.6232 129.251 35.9828C123.411 37.7904 120.004 43.4402 120.78 50.0365C121.424 55.4592 126.014 59.7085 131.247 59.7085C132.269 59.7085 133.282 59.5476 134.247 59.2164C140.446 57.1438 143.039 49.6579 142.329 43.6768C141.762 38.7462 137.948 35.4339 132.847 35.4339Z" fill="#8EE8CD"/>
</g>
</g>
<g id="Group_8">
<path id="Vector_13" d="M90.9031 98.4059C65.4929 97.0526 35.3886 93.6646 11.3696 88.0431C2.31273 85.8191 -1.55796 78.8443 0.571394 70.0903C4.00674 56.6801 10.991 39.2479 18.3728 26.3109C23.2939 17.8976 30.9501 12.5884 40.8492 13.5632C67.3478 16.1752 95.37 17.661 120.212 21.0206C129.705 22.3077 136.49 32.5948 134.285 41.6517C130.566 56.0177 124.112 71.8127 115.859 85.6772C110.597 94.2892 100.764 98.8413 90.9031 98.4059Z" fill="url(#paint4_linear_244_2355)"/>
<path id="Vector_14" d="M90.9031 98.4063C65.4929 97.053 35.3886 93.665 11.3696 88.0435C2.31273 85.8195 -1.55796 78.8447 0.571394 70.0907C4.00675 56.6805 10.991 39.2483 18.3728 26.3113C23.2939 17.898 30.9501 12.5699 40.8492 13.5636C67.3478 16.2418 95.37 18.8633 120.212 21.021C129.761 21.8539 136.49 32.5952 134.285 41.6521C130.566 56.0181 124.112 71.8131 115.859 85.6776C110.597 94.2896 100.764 98.8417 90.9031 98.4063Z" fill="url(#paint5_linear_244_2355)"/>
<path id="Vector_15" opacity="0.3" d="M97.7075 75.7409C97.3857 75.7503 97.064 75.7314 96.7422 75.6935L89.2374 74.6998C85.7831 74.2456 84.0418 70.9522 85.3573 67.3559C86.6633 63.7502 90.5245 61.2045 93.9788 61.6587L101.484 62.6524C104.938 63.1067 106.679 66.4001 105.364 69.9963C104.181 73.2708 100.887 75.6746 97.7075 75.7409ZM75.1932 72.7692C74.8714 72.7787 74.5496 72.7598 74.2279 72.7219L66.7231 71.7282C63.2688 71.2739 61.5275 67.9806 62.843 64.3843C64.149 60.7786 68.0102 58.2329 71.4645 58.6871L78.9692 59.6808C82.4235 60.1351 84.1648 63.4285 82.8494 67.0247C81.6664 70.2992 78.373 72.6935 75.1932 72.7692ZM52.6883 69.7976C52.3666 69.8071 52.0448 69.7881 51.723 69.7503L44.2182 68.7566C40.764 68.3023 39.0226 65.0089 40.3381 61.4127C41.6441 57.807 45.5053 55.2612 48.9596 55.7155L56.4644 56.7092C59.9186 57.1635 61.66 60.4569 60.3445 64.0531C59.1615 67.3181 55.8681 69.7219 52.6883 69.7976ZM30.174 66.826C29.8522 66.8354 29.5305 66.8165 29.2087 66.7786L21.7039 65.785C18.2496 65.3307 16.5083 62.0373 17.8238 58.4411C19.1298 54.8354 22.991 52.2896 26.4453 52.7439L33.95 53.7376C37.4043 54.1918 39.1457 57.4852 37.8302 61.0815C36.6472 64.3465 33.3538 66.7503 30.174 66.826Z" fill="#3453FA"/>
<path id="Vector_16" opacity="0.3" d="M41.4361 70.9142L25.9155 68.8605L20.7388 68.1791C18.3634 67.8668 15.6946 69.6176 14.7956 72.1066C13.8965 74.5861 15.0889 76.8574 17.4738 77.1697C17.4738 77.1697 38.6064 79.9426 38.8241 79.9331C41.0197 79.8858 43.291 78.2296 44.1049 75.9678C45.0134 73.4978 43.8115 71.2265 41.4361 70.9142Z" fill="#000311"/>
<path id="Vector_17" opacity="0.3" d="M66.0702 73.8002L58.2436 72.8727L53.0669 72.1913C50.6915 71.879 48.0227 73.6298 47.1237 76.1188C46.2246 78.5983 47.4171 80.8696 49.8019 81.1819C49.8019 81.1819 63.2405 82.8286 63.4676 82.8286C65.6632 82.7813 67.9345 81.1251 68.7484 78.8633C69.6569 76.3838 68.455 74.1125 66.0702 73.8002Z" fill="#000311"/>
<path id="Vector_18" d="M97.7075 74.0367C97.3857 74.0462 97.064 74.0273 96.7422 73.9894L89.2374 72.9957C85.7831 72.5415 84.0418 69.2481 85.3573 65.6518C86.6633 62.0461 90.5245 59.5004 93.9788 59.9546L101.484 60.9483C104.938 61.4026 106.679 64.696 105.364 68.2922C104.181 71.5667 100.887 73.961 97.7075 74.0367ZM75.1932 71.0651C74.8714 71.0746 74.5496 71.0557 74.2279 71.0178L66.7231 70.0241C63.2688 69.5698 61.5275 66.2765 62.843 62.6802C64.149 59.0745 68.0102 56.5288 71.4645 56.983L78.9692 57.9767C82.4235 58.431 84.1648 61.7244 82.8494 65.3206C81.6664 68.5856 78.373 70.9894 75.1932 71.0651ZM52.6883 68.0935C52.3666 68.103 52.0448 68.084 51.723 68.0462L44.2182 67.0525C40.764 66.5982 39.0226 63.3048 40.3381 59.7086C41.6441 56.1029 45.5053 53.5571 48.9596 54.0114L56.4644 55.0051C59.9186 55.4594 61.66 58.7528 60.3445 62.349C59.1615 65.614 55.8681 68.0178 52.6883 68.0935ZM30.174 65.1219C29.8522 65.1313 29.5305 65.1124 29.2087 65.0745L21.7039 64.0808C18.2496 63.6266 16.5083 60.3332 17.8238 56.737C19.1298 53.1313 22.991 50.5855 26.4453 51.0398L33.95 52.0335C37.4043 52.4877 39.1457 55.7811 37.8302 59.3774C36.6472 62.6424 33.3538 65.0462 30.174 65.1219Z" fill="url(#paint6_linear_244_2355)"/>
<path id="Vector_19" opacity="0.3" d="M37.3473 45.1348L30.0697 44.0275C27.9877 43.7152 26.8047 41.4818 27.7037 39.5796L31.2811 32.0464C32.2369 30.0306 34.3757 28.8476 36.5902 29.0937L44.5777 29.9927C46.6692 30.2293 47.9468 32.4249 47.1045 34.3555L44.0477 41.425C42.9215 44.037 40.1675 45.5607 37.3473 45.1348Z" fill="#3453FA"/>
<path id="Vector_20" opacity="0.3" d="M104.625 53.2075L97.3475 52.1003C95.2655 51.788 94.0825 49.5545 94.9816 47.6523L98.5589 40.1191C99.5147 38.1034 101.654 36.9204 103.868 37.1664L111.855 38.0655C113.947 38.3021 115.225 40.4977 114.382 42.4283L111.326 49.4977C110.199 52.1097 107.445 53.6334 104.625 53.2075Z" fill="#000311"/>
<path id="Vector_21" d="M36.8083 43.7149L29.5306 42.6076C27.4486 42.2953 26.2656 40.0619 27.1647 38.1596L30.742 30.6265C31.6978 28.6107 33.8366 27.4277 36.0512 27.6738L44.0386 28.5728C46.1301 28.8094 47.4077 31.005 46.5654 32.9356L43.5086 40.0051C42.373 42.6171 39.619 44.1407 36.8083 43.7149Z" fill="url(#paint7_linear_244_2355)"/>
<path id="Vector_22" d="M37.7446 41.6901C37.5364 41.6901 37.3187 41.6711 37.1105 41.6427L29.8329 40.5355C29.3786 40.4692 29.161 40.1664 29.0663 39.996C28.9717 39.8257 28.8487 39.4661 29.0474 39.0591L32.6247 31.526C33.1452 30.4376 34.2525 29.7373 35.4544 29.7373C35.5679 29.7373 35.691 29.7468 35.8045 29.7562L43.792 30.6553C44.2462 30.7026 44.4828 30.996 44.5775 31.1663C44.6721 31.3367 44.814 31.6868 44.6342 32.1032L41.5774 39.1727C40.9244 40.7058 39.4197 41.6901 37.7446 41.6901Z" fill="url(#paint8_linear_244_2355)"/>
</g>
</g>
<defs>
<linearGradient id="paint0_linear_244_2355" x1="97.1288" y1="56.2714" x2="76.5893" y2="125.449" gradientUnits="userSpaceOnUse">
<stop stop-color="#3F9D7B"/>
<stop offset="0.3856" stop-color="#43AB85"/>
<stop offset="0.8536" stop-color="#4AC296"/>
<stop offset="1" stop-color="#3F9D7B"/>
</linearGradient>
<linearGradient id="paint1_linear_244_2355" x1="155.995" y1="112.52" x2="18.2401" y2="62.7538" gradientUnits="userSpaceOnUse">
<stop offset="0.0188014" stop-color="#8EE8CD"/>
<stop offset="0.0369902" stop-color="#72D8B6"/>
<stop offset="0.05605" stop-color="#5CCCA4"/>
<stop offset="0.074358" stop-color="#4FC59A"/>
<stop offset="0.0909204" stop-color="#4AC296"/>
<stop offset="0.8678" stop-color="#4AC296"/>
<stop offset="0.9006" stop-color="#48BD92"/>
<stop offset="0.9404" stop-color="#44AE87"/>
<stop offset="0.972" stop-color="#3F9D7B"/>
</linearGradient>
<linearGradient id="paint2_linear_244_2355" x1="92.3658" y1="19.7118" x2="117.194" y2="90.6153" gradientUnits="userSpaceOnUse">
<stop stop-color="#8EE8CD"/>
<stop offset="0.0452468" stop-color="#73D9B7"/>
<stop offset="0.1032" stop-color="#55C89F"/>
<stop offset="0.1362" stop-color="#4AC296"/>
<stop offset="0.8439" stop-color="#4AC296"/>
<stop offset="0.8991" stop-color="#49BF94"/>
<stop offset="0.9455" stop-color="#46B48C"/>
<stop offset="0.9886" stop-color="#41A37F"/>
<stop offset="1" stop-color="#3F9D7B"/>
</linearGradient>
<linearGradient id="paint3_linear_244_2355" x1="31.4248" y1="68.6397" x2="170.19" y2="25.6319" gradientUnits="userSpaceOnUse">
<stop offset="0.6565" stop-color="#3F9D7B"/>
<stop offset="0.7546" stop-color="#42A782"/>
<stop offset="0.9212" stop-color="#4AC296"/>
<stop offset="0.922" stop-color="#4AC296"/>
<stop offset="0.9389" stop-color="#52C69C"/>
<stop offset="0.9644" stop-color="#66D2AD"/>
<stop offset="0.9953" stop-color="#88E5C8"/>
<stop offset="1" stop-color="#8EE8CD"/>
</linearGradient>
<linearGradient id="paint4_linear_244_2355" x1="74.0007" y1="7.10183" x2="61.07" y2="102.788" gradientUnits="userSpaceOnUse">
<stop stop-color="#496CFB"/>
<stop offset="0.0018046" stop-color="#4B6FFB"/>
<stop offset="0.021174" stop-color="#5F8BFB"/>
<stop offset="0.0420714" stop-color="#6FA1FA"/>
<stop offset="0.0649962" stop-color="#7AB0FA"/>
<stop offset="0.0914541" stop-color="#81B9FA"/>
<stop offset="0.1296" stop-color="#83BCFA"/>
<stop offset="0.1647" stop-color="#7AB0F9"/>
<stop offset="0.2364" stop-color="#6B9EF8"/>
<stop offset="0.3217" stop-color="#6191F7"/>
<stop offset="0.4329" stop-color="#5C89F6"/>
<stop offset="0.6669" stop-color="#5A87F6"/>
<stop offset="0.7408" stop-color="#5782F7"/>
<stop offset="0.8242" stop-color="#4F75F9"/>
<stop offset="0.8498" stop-color="#4C6FFA"/>
<stop offset="0.9267" stop-color="#3453FA"/>
</linearGradient>
<linearGradient id="paint5_linear_244_2355" x1="31.5" y1="2.5" x2="114" y2="95.5" gradientUnits="userSpaceOnUse">
<stop offset="0.0251907" stop-color="#CFC1FF"/>
<stop offset="0.220111" stop-color="#745BC5"/>
<stop offset="0.795468" stop-color="#584499"/>
<stop offset="0.939921" stop-color="#392870"/>
</linearGradient>
<linearGradient id="paint6_linear_244_2355" x1="62.5792" y1="55.6461" x2="60.3901" y2="70.97" gradientUnits="userSpaceOnUse">
<stop offset="0.029" stop-color="#CFEBFE"/>
<stop offset="0.0759117" stop-color="#E1F1FD"/>
<stop offset="0.1306" stop-color="#EEF6FB"/>
<stop offset="0.179" stop-color="#F3F8FB"/>
<stop offset="0.295" stop-color="#EFF6FB"/>
<stop offset="0.4148" stop-color="#E2F2FC"/>
<stop offset="0.5305" stop-color="#CFEBFE"/>
<stop offset="0.5996" stop-color="#C8E6FB"/>
<stop offset="0.7017" stop-color="#B4DAF3"/>
<stop offset="0.8236" stop-color="#93C5E6"/>
<stop offset="0.9333" stop-color="#70AED8"/>
</linearGradient>
<linearGradient id="paint7_linear_244_2355" x1="32.5601" y1="28.7666" x2="41.3896" y2="42.85" gradientUnits="userSpaceOnUse">
<stop stop-color="#F9D075"/>
<stop offset="0.1826" stop-color="#F9C870"/>
<stop offset="0.459" stop-color="#FAB463"/>
<stop offset="0.7931" stop-color="#FA924E"/>
<stop offset="1" stop-color="#FB793F"/>
</linearGradient>
<linearGradient id="paint8_linear_244_2355" x1="30.1889" y1="34.6406" x2="41.6438" y2="40.5179" gradientUnits="userSpaceOnUse">
<stop stop-color="#F29E50"/>
<stop offset="0.0370387" stop-color="#F4AC5A"/>
<stop offset="0.1089" stop-color="#F7C069"/>
<stop offset="0.1805" stop-color="#F8CC72"/>
<stop offset="0.251" stop-color="#F9D075"/>
<stop offset="0.3759" stop-color="#F9BF6A"/>
<stop offset="0.6237" stop-color="#FA914E"/>
<stop offset="0.7448" stop-color="#FB793F"/>
<stop offset="0.8604" stop-color="#FA7B40"/>
<stop offset="0.9213" stop-color="#F98344"/>
<stop offset="0.9692" stop-color="#F5914A"/>
<stop offset="1" stop-color="#F29E50"/>
</linearGradient>
</defs>
</svg>
