<svg width="1272" height="827" viewBox="0 0 1272 827" fill="none" xmlns="http://www.w3.org/2000/svg">
<mask id="mask0_589_2101" style="mask-type:luminance" maskUnits="userSpaceOnUse" x="0" y="0" width="1272" height="827">
<path d="M1272 0H0V826.968H1272V0Z" fill="white"/>
</mask>
<g mask="url(#mask0_589_2101)">
<g opacity="0.5">
<g opacity="0.4">
<path d="M-7.75049 458.141C15.4776 450.533 39.4686 440.361 64.1379 436.639C96.4368 431.76 129.075 434.407 161.628 434.82C199.607 435.316 234.025 446.232 271.071 455.081C273.445 455.687 275.819 456.266 278.192 456.817C369.579 479.063 459.354 505.609 553.114 512.307C608.133 516.194 663.66 517.269 718.763 512.472C774.544 507.593 828.63 494.114 881.868 475.838H881.953C895.432 471.207 908.911 466.328 922.305 461.118C1010.39 427.212 1095.33 383.631 1186.12 359.566C1212.23 352.702 1251.65 347.327 1278.44 349.229C1280.14 349.312 1275.73 349.394 1278.44 349.56" stroke="url(#paint0_radial_589_2101)" stroke-opacity="0.2" stroke-width="1.2619"/>
<path d="M-7.75049 472.282C1.48988 469.057 11.0693 465.666 20.6488 462.524C36.0777 457.479 52.439 453.758 69.5634 452.269C103.219 449.209 138.23 452.6 174.005 452.848C213.764 453.179 251.065 460.87 290.824 464.674C293.367 464.839 295.825 465.17 298.284 465.335C306.422 466.162 314.475 466.989 322.614 467.568C370.087 470.959 417.137 479.146 462.152 494.693C503.521 508.917 535.481 526.2 576.936 531.989C629.241 539.266 683.497 539.597 737.582 534.222C791.584 528.929 844.228 515.036 895.686 496.76C895.686 496.76 895.714 496.76 895.771 496.76C908.882 492.074 921.909 487.14 934.852 481.957C983.597 462.441 1029.88 440.444 1072.52 422.25C1110.84 405.876 1148.99 389.585 1188.75 378.09C1192.56 376.932 1196.63 375.857 1200.87 374.865C1225.2 369.076 1255.64 365.024 1278.1 366.265C1279.71 366.347 1276.07 366.43 1278.44 366.595" stroke="url(#paint1_radial_589_2101)" stroke-opacity="0.2" stroke-width="1.2619"/>
<path d="M-7.75049 486.423C2.0833 482.784 12.341 479.228 22.5986 476.086C38.5361 471.207 56.1691 468.56 75.0737 467.816C109.916 466.493 147.386 470.876 186.382 470.958C227.836 471.124 268.019 475.755 310.661 474.184C313.289 474.101 315.917 474.018 318.46 473.935C326.937 473.687 335.33 473.357 343.807 472.612C394.841 468.064 445.112 473.439 490.975 494.941C534.294 515.201 558.37 542.822 600.842 551.671C650.35 562.008 703.334 561.925 756.402 555.971C808.538 550.265 859.911 535.958 909.504 517.682C909.504 517.682 909.504 517.655 909.504 517.599C909.561 517.599 909.589 517.599 909.589 517.599C922.305 512.886 934.936 508.007 947.313 502.797C996.906 482.205 1042.43 459.464 1079.98 442.676C1116.86 426.219 1153.14 408.688 1191.38 396.531C1195.02 395.374 1199.01 394.216 1203.08 393.141C1226.56 386.856 1255.64 382.39 1277.85 383.3C1279.29 383.3 1276.32 383.382 1278.44 383.548" stroke="url(#paint2_radial_589_2101)" stroke-opacity="0.2" stroke-width="1.2619" style="mix-blend-mode:lighten"/>
<path d="M-7.75049 500.564C2.59194 496.512 13.6126 492.791 24.4636 489.648C40.9946 484.852 59.8992 483.859 80.584 483.446C116.613 482.784 156.542 489.069 198.759 488.986C241.994 488.986 284.889 490.64 330.498 483.694C333.211 483.28 335.923 482.867 338.636 482.453C347.453 481.13 356.269 479.724 365.001 477.657C419.68 464.922 473.088 467.733 519.883 495.106C565.067 521.569 581.259 559.279 624.748 571.353C671.374 584.336 723.171 584.253 775.222 577.803C825.578 571.683 875.595 556.881 923.322 538.522C923.322 538.522 923.351 538.522 923.407 538.522C935.699 533.808 947.907 528.846 959.86 523.636C1010.13 501.887 1054.89 478.401 1087.53 463.102C1122.97 446.563 1157.38 427.874 1193.92 415.056C1197.57 413.732 1201.3 412.575 1205.2 411.417C1227.92 404.718 1255.55 399.839 1277.51 400.335C1278.78 400.335 1276.58 400.418 1278.44 400.501" stroke="url(#paint3_radial_589_2101)" stroke-opacity="0.2" stroke-width="1.2619"/>
<path d="M-7.75049 514.788C3.10058 510.239 14.8842 506.27 26.4134 503.21C43.5378 498.496 63.6292 498 86.0943 499.075C123.395 500.895 165.697 507.262 211.221 507.097C256.066 506.931 301.844 505.691 350.335 493.204C353.132 492.46 356.015 491.798 358.812 490.971C367.968 488.573 377.123 486.009 386.194 482.701C444.434 461.696 500.978 462.192 548.706 495.354C595.756 528.019 604.233 575.404 648.655 591.034C692.483 606.498 743.093 606.581 794.042 599.552C842.617 593.019 891.278 577.803 937.14 559.444C949.094 554.648 960.877 549.686 972.322 544.559C1023.36 521.569 1067.35 497.256 1095.07 483.528C1128.98 466.741 1161.54 446.894 1196.55 433.497C1200.05 432.174 1203.67 430.905 1207.4 429.693C1229.27 422.498 1255.47 416.709 1277.25 417.371C1278.36 417.371 1276.91 417.371 1278.44 417.453" stroke="url(#paint4_radial_589_2101)" stroke-opacity="0.2" stroke-width="1.2619"/>
<path d="M-7.75049 528.929C3.694 523.967 16.1558 519.833 28.3632 516.69C45.9962 512.142 67.2745 512.555 91.6046 514.623C130.092 517.931 174.853 525.539 223.598 525.125C270.139 524.877 318.884 520.825 370.087 502.714C373.054 501.722 376.021 500.647 378.989 499.572C388.398 496.099 397.978 492.295 407.388 487.746C469.103 458.223 528.784 456.652 577.614 495.602C626.444 534.553 627.207 591.365 672.561 610.799C713.761 628.413 762.93 628.91 812.862 621.302C859.572 614.355 906.876 598.725 950.959 580.367C950.959 580.312 950.959 580.284 950.959 580.284C962.488 575.488 973.848 570.526 984.868 565.399C1036.58 541.168 1079.82 516.029 1102.62 503.955C1135 486.919 1165.61 465.914 1199.18 451.938C1202.51 450.56 1205.96 449.237 1209.52 447.969C1230.63 440.361 1255.38 434.82 1276.91 434.407C1277.93 434.407 1277.17 434.407 1278.44 434.407" stroke="url(#paint5_radial_589_2101)" stroke-opacity="0.2" stroke-width="1.2619"/>
<path d="M-7.75049 543.07C4.20265 537.695 17.4274 533.395 30.2283 530.252C48.4547 525.869 71.0046 527.192 97.1149 530.252C136.789 534.966 184.008 543.732 235.975 543.236C284.296 542.739 335.923 535.958 389.924 512.307C392.976 510.929 396.056 509.523 399.165 508.089C408.914 503.541 418.748 498.497 428.581 492.791C493.688 454.75 556.59 451.194 606.437 495.85C656.962 541.085 650.435 607.078 696.467 630.481C735.124 650.163 782.767 651.32 831.682 643.133C876.612 635.691 922.559 619.647 964.692 601.206C964.692 601.206 964.72 601.206 964.777 601.206C975.967 596.327 986.818 591.365 997.33 586.238C1049.81 560.767 1092.11 534.635 1110.08 524.381C1140.85 506.849 1169.85 485.017 1201.8 470.462C1205.03 468.974 1208.33 467.568 1211.72 466.245C1231.98 458.141 1255.38 452.435 1276.66 451.442C1277.51 451.442 1277.42 451.359 1278.44 451.359" stroke="url(#paint6_radial_589_2101)" stroke-opacity="0.2" stroke-width="1.2619"/>
<path d="M-7.75049 557.211C4.79606 551.422 18.699 546.957 32.1781 543.814C109.322 526.117 271.919 619.068 449.775 497.835C518.187 451.194 584.311 445.736 635.345 496.098C687.566 547.618 673.917 622.459 720.373 650.162C844.228 724.011 1082.1 567.3 1117.62 544.807C1149.58 524.629 1179.59 499.406 1213.84 484.438C1234.02 475.672 1256.74 469.718 1278.44 468.312" stroke="url(#paint7_radial_589_2101)" stroke-opacity="0.2" stroke-width="1.2619"/>
<path d="M1278.44 453.013C1262.42 454.254 1245.72 457.975 1230.12 463.02C1223.51 465.17 1217.06 467.568 1210.79 470.214C1174.59 485.513 1142.38 510.322 1108.72 531.41C1106.94 532.485 1104.91 533.808 1102.53 535.297C1045.91 570.774 917.303 656.199 810.488 670.754C769.881 677.204 730.546 675.716 697.4 659.59C650.435 636.6 655.267 570.939 604.063 523.967C592.11 513.134 579.479 504.781 566.424 498.745C523.952 479.394 476.563 484.355 428.242 509.991C416.035 516.194 403.912 521.404 391.874 525.786C390.235 526.393 388.596 526.972 386.957 527.523C306.252 557.459 229.193 547.536 162.221 536.702C110.764 528.433 66.5963 519.088 34.3822 525.538C33.1954 525.759 32.0368 526.007 30.9065 526.283C17.8513 529.425 4.37219 533.891 -7.75049 539.597" stroke="url(#paint8_radial_589_2101)" stroke-opacity="0.2" stroke-width="1.2619"/>
<path d="M1278.44 437.714C1261.57 439.286 1244.11 443.42 1228 448.63C1221.13 450.863 1214.35 453.344 1207.74 455.99C1169.59 471.62 1135.26 496.098 1099.82 518.013C1097.87 519.171 1095.75 520.577 1093.29 522.065C1017.42 569.12 892.465 656.861 792.855 673.318C751.316 681.835 710.37 682.993 674.511 668.935C627.207 650.493 623.138 594.011 572.697 551.836C560.913 541.912 548.536 534.056 535.82 527.937C494.875 508.172 451.046 506.518 406.71 522.065C395.35 525.621 384.075 528.267 372.885 530.335C371.415 530.61 369.918 530.886 368.392 531.162C294.554 547.04 222.75 530.252 156.965 517.682C108.559 508.503 65.579 500.895 33.0258 507.924C31.8955 508.2 30.7934 508.475 29.7196 508.751C17.0035 511.976 3.94832 516.442 -7.75049 521.982" stroke="url(#paint9_radial_589_2101)" stroke-opacity="0.2" stroke-width="1.2619"/>
<path d="M1278.44 422.498C1260.81 424.235 1242.5 428.866 1225.88 434.159C1218.67 436.474 1211.55 439.038 1204.6 441.767C1164.59 457.644 1128.14 481.792 1090.92 504.616C1088.83 505.884 1086.54 507.29 1084.05 508.834C988.937 567.3 867.541 657.523 775.222 675.799C732.835 686.384 690.363 690.023 651.537 678.362C604.233 664.056 590.923 617.249 541.415 579.705C529.632 570.774 517.509 563.331 505.217 557.046C465.712 536.951 425.529 528.681 385.177 534.222C374.665 535.049 364.323 535.214 353.98 534.883C352.567 534.883 351.154 534.856 349.741 534.801C282.855 536.62 216.392 512.969 151.794 498.662C106.271 488.573 64.6465 482.619 31.6694 490.392C30.5956 490.613 29.5218 490.861 28.448 491.137C16.1558 494.445 3.52445 498.91 -7.75049 504.451" stroke="url(#paint10_radial_589_2101)" stroke-opacity="0.2" stroke-width="1.2619"/>
<path d="M1278.44 407.199C1260.04 409.184 1240.89 414.311 1223.76 419.769C1216.24 422.14 1208.84 424.731 1201.55 427.543C1159.59 443.751 1121.02 467.568 1081.93 491.219C1079.73 492.542 1077.36 493.976 1074.81 495.52C960.369 565.481 842.617 658.102 757.589 678.362C757.533 678.362 757.504 678.362 757.504 678.362C714.27 691.015 670.357 696.886 628.648 687.79C581.259 677.37 558.625 640.487 510.134 607.574C498.435 599.635 486.482 592.606 474.614 586.238C436.635 565.812 399.928 550.926 363.644 546.378C353.98 544.476 344.485 542.078 334.991 539.432C333.747 539.101 332.476 538.77 331.176 538.439C271.156 526.2 209.949 495.85 146.623 479.642C104.066 468.808 63.6292 464.343 30.313 472.778C29.2958 473.054 28.2785 473.329 27.2612 473.605C15.308 476.913 3.18536 481.378 -7.75049 486.836" stroke="url(#paint11_radial_589_2101)" stroke-opacity="0.2" stroke-width="1.2619"/>
<path d="M1278.44 391.9C1259.28 394.133 1239.28 399.757 1221.56 405.297C1213.76 407.778 1206.07 410.452 1198.5 413.319C1154.59 429.858 1113.89 453.261 1073.03 477.74C1070.66 479.173 1068.17 480.689 1065.57 482.288C931.8 563.579 817.779 658.763 739.871 680.926C695.704 695.646 650.435 703.502 605.674 697.134C558.37 690.436 526.326 663.808 478.852 635.443C467.153 628.496 455.455 621.88 443.925 615.347C407.473 594.59 374.411 573.089 342.112 558.535C333.295 553.904 324.648 549.024 316.086 543.98C314.899 543.318 313.741 542.684 312.61 542.078C259.457 515.78 203.591 478.815 141.452 460.621C101.862 449.044 62.6119 446.067 28.9567 455.246C27.9959 455.467 27.0069 455.742 25.9896 456.073C14.4603 459.464 2.76149 463.847 -7.75049 469.222" stroke="url(#paint12_radial_589_2101)" stroke-opacity="0.2" stroke-width="1.2619"/>
<path d="M1278.44 376.601C1258.52 379.165 1237.58 385.119 1219.44 390.825C1211.3 393.416 1203.27 396.173 1195.36 399.095C1149.58 415.965 1106.77 438.955 1064.13 464.343C1061.59 465.886 1058.99 467.458 1056.33 469.057C903.061 561.429 792.855 659.425 722.238 683.489C677.223 700.277 630.428 709.87 582.785 706.562C535.481 703.254 494.027 687.128 447.571 663.311C435.957 657.44 424.512 651.238 413.322 644.456C378.395 623.369 348.894 595.252 320.494 570.608C312.61 563.331 304.896 555.888 297.097 548.611C296.08 547.619 295.034 546.626 293.96 545.634C247.843 505.36 197.063 461.945 136.281 441.601C99.5734 429.362 61.5946 427.708 27.6003 437.632C26.6395 437.907 25.707 438.183 24.8027 438.459C13.6126 441.932 2.33762 446.398 -7.75049 451.69" stroke="url(#paint13_radial_589_2101)" stroke-opacity="0.2" stroke-width="1.2619"/>
<path d="M1278.44 361.302C1257.76 364.114 1235.97 370.565 1217.32 376.436C1157.21 395.208 1101.77 422.912 1047.09 455.742C874.492 559.527 767.932 660.003 704.605 686.053C658.658 704.908 610.422 715.989 559.811 715.989C500.385 715.906 435.533 707.471 382.719 673.648C349.233 652.23 323.377 617.415 298.962 582.765C292.01 572.758 285.059 562.752 278.192 553.159C277.231 551.836 276.299 550.54 275.395 549.272C236.144 495.023 190.536 445.24 131.109 422.664C97.1997 409.763 60.5774 409.432 26.3287 420.017C14.6298 423.656 2.76149 428.452 -7.75049 434.076" stroke="url(#paint14_radial_589_2101)" stroke-opacity="0.2" stroke-width="1.2619"/>
</g>
<path d="M337.11 375.713C337.11 325.268 295.232 284.416 243.604 284.416C191.977 284.416 150.099 325.268 150.099 375.713C150.099 426.075 191.977 466.928 243.604 466.928C295.232 466.928 337.11 426.075 337.11 375.713Z" fill="#C8A7D9" fill-opacity="0.18"/>
<path d="M169.597 284.416C169.597 270.605 158.067 259.358 143.825 259.358C129.668 259.358 118.139 270.605 118.139 284.416C118.139 298.309 129.668 309.555 143.825 309.555C158.067 309.555 169.597 298.309 169.597 284.416Z" fill="#F0E1F7" fill-opacity="0.14"/>
<path d="M156.542 284.416C156.542 277.634 150.862 272.011 143.825 272.011C136.874 272.011 131.109 277.634 131.109 284.416C131.109 291.279 136.874 296.82 143.825 296.82C150.862 296.82 156.542 291.279 156.542 284.416Z" fill="#F0E1F7" fill-opacity="0.14"/>
<path d="M118.308 247.12C118.308 240.256 112.628 234.715 105.592 234.715C98.6406 234.715 92.876 240.256 92.876 247.12C92.876 253.983 98.6406 259.524 105.592 259.524C112.628 259.524 118.308 253.983 118.308 247.12Z" fill="#C8A7D9" fill-opacity="0.18"/>
<path d="M1105.33 461.614C1105.33 436.557 1084.56 416.296 1058.88 416.296C1033.28 416.296 1012.42 436.557 1012.42 461.614C1012.42 486.589 1033.28 506.932 1058.88 506.932C1084.56 506.932 1105.33 486.589 1105.33 461.614Z" fill="#C8A7D9" fill-opacity="0.18"/>
<path d="M1128.48 404.719C1128.48 394.382 1119.83 386.029 1109.23 386.029C1098.72 386.029 1090.07 394.382 1090.07 404.719C1090.07 415.056 1098.72 423.491 1109.23 423.491C1119.83 423.491 1128.48 415.056 1128.48 404.719Z" fill="#F0E1F7" fill-opacity="0.44"/>
<path d="M857.877 227.086C857.877 218.899 851.095 212.283 842.787 212.283C834.394 212.283 827.612 218.899 827.612 227.086C827.612 235.19 834.394 241.806 842.787 241.806C851.095 241.806 857.877 235.19 857.877 227.086Z" stroke="#C8A7D9" stroke-opacity="0.18" stroke-width="3.36508" stroke-linecap="round" stroke-linejoin="round"/>
<path d="M-19.7876 429.445C1.06681 469.222 45.997 467.32 76.007 460.208C118.309 450.202 159.509 421.671 189.689 378.173C259.712 277.035 328.379 168.785 428.667 169.281C481.651 169.529 543.705 222.703 588.296 260.991C631.955 298.453 656.455 354.935 729.36 403.065C771.408 430.851 799.468 320.037 842.449 295.311C885.683 270.502 945.788 314.91 986.734 283.816C1033.78 248.091 1081.6 211.87 1134.5 200.209C1189.85 187.97 1244.11 206.577 1290.99 251.399" stroke="url(#paint15_radial_589_2101)" stroke-opacity="0.2" stroke-width="1.2619"/>
<path d="M-19.873 439.616C1.99865 478.649 46.7593 477.243 77.7866 469.718C120.174 459.463 161.882 430.768 193.503 387.021C230.804 335.253 264.544 279.184 303.709 238.994C341.603 200.044 384.329 173.084 433.074 173.994C485.634 174.986 545.146 228.574 588.296 268.351C630.683 307.549 654.928 364.776 726.053 411.169C768.017 438.293 799.129 335.666 843.72 311.436C856.097 304.655 869.661 302.918 883.648 303.249C919.338 303.993 957.232 317.06 985.971 293.822C999.534 282.906 1013.1 271.99 1027.09 261.983C1060.83 237.671 1095.92 216.831 1133.48 208.231C1188.83 195.743 1243.51 213.688 1290.99 259.503" stroke="url(#paint16_radial_589_2101)" stroke-opacity="0.2" stroke-width="1.2619"/>
<path d="M-19.873 449.788C3.01593 487.994 47.5223 487.167 79.5669 479.146C122.039 468.726 164.171 439.865 197.318 395.87C236.144 344.019 268.104 285.47 307.016 245.031C345.079 205.336 388.992 177.137 437.483 178.708C489.619 180.362 546.672 234.446 588.38 275.794C629.326 316.729 653.233 374.865 722.832 419.273C764.541 445.819 798.874 351.296 844.991 327.48C857.538 321.029 871.102 319.045 885.174 318.879C920.694 318.466 957.147 327.893 985.207 303.911C998.432 292.499 1011.83 281.169 1025.73 270.998C1059.38 246.354 1094.74 225.101 1132.54 216.335C1187.9 203.517 1242.92 220.883 1291.07 267.69" stroke="url(#paint17_radial_589_2101)" stroke-opacity="0.2" stroke-width="1.2619"/>
<path d="M-19.957 459.96C4.03401 497.422 48.286 497.008 81.3479 488.656C123.904 477.905 166.546 448.961 201.049 404.801C241.486 352.785 271.666 291.755 310.322 251.068C348.471 210.712 393.74 181.272 441.892 183.422C493.604 185.737 548.283 240.234 588.381 283.237C628.055 325.743 651.623 384.788 719.611 427.295C761.066 453.261 798.536 366.843 846.264 343.523C858.98 337.32 872.628 335.17 886.616 334.509C921.967 332.938 957.063 338.892 984.445 313.917C997.501 302.092 1010.56 290.349 1024.37 280.094C1058.03 255.037 1093.46 233.453 1131.61 224.357C1186.89 211.29 1242.33 228.078 1291.16 275.794" stroke="url(#paint18_radial_589_2101)" stroke-opacity="0.2" stroke-width="1.2619"/>
<path d="M-19.957 470.132C4.96652 506.849 49.049 506.849 83.1282 498.083C125.769 487.167 168.835 458.058 204.864 413.65C246.827 361.551 275.226 298.04 313.629 257.105C351.862 216.004 398.403 185.324 446.3 188.218C497.673 191.195 549.809 246.023 588.466 290.597C626.784 334.922 650.097 394.712 716.39 435.399C757.675 460.704 798.197 382.473 847.535 359.649C860.421 353.695 874.154 351.214 888.057 350.139C923.323 347.41 956.979 349.808 983.682 324.006C996.483 311.685 1009.28 299.611 1023.1 289.108C1056.59 263.72 1092.28 241.723 1130.6 232.461C1185.95 219.064 1241.73 235.273 1291.16 283.899" stroke="url(#paint19_radial_589_2101)" stroke-opacity="0.2" stroke-width="1.2619"/>
<path d="M-19.957 480.303C5.98381 516.277 49.7272 516.69 84.9084 507.593C127.634 496.347 171.124 467.155 208.678 422.498C252.167 370.317 278.956 304.325 316.935 263.059C355.422 221.38 403.065 189.376 450.708 192.932C501.657 196.571 551.335 251.895 588.466 298.04C625.512 344.019 648.486 404.636 713.168 443.503C754.284 468.147 797.773 398.02 848.807 375.692C861.862 369.986 875.595 367.257 889.583 365.768C924.595 361.882 956.894 360.724 982.919 334.095C995.466 321.277 1008.01 308.79 1021.75 298.205C1055.15 272.404 1091.09 250.076 1129.66 240.483C1185.02 226.838 1241.14 242.385 1291.24 292.003" stroke="url(#paint20_radial_589_2101)" stroke-opacity="0.2" stroke-width="1.2619"/>
<path d="M-20.0425 490.475C7.00043 525.704 50.4895 526.613 86.688 517.021C129.499 505.608 173.497 476.251 212.493 431.347C257.508 379.165 282.516 310.609 320.24 269.095C358.813 226.672 407.812 193.428 455.201 197.645C505.641 202.028 552.86 257.766 588.55 305.482C624.155 353.198 646.875 414.559 709.946 451.607C750.892 475.589 797.433 413.567 850.078 391.818C863.303 386.277 877.121 383.382 891.024 381.398C925.951 376.353 956.808 371.64 982.156 344.101C994.363 330.87 1006.74 317.969 1020.39 307.301C1053.79 281.086 1089.9 258.428 1128.65 248.587C1184 234.694 1240.55 249.579 1291.24 300.107" stroke="url(#paint21_radial_589_2101)" stroke-opacity="0.2" stroke-width="1.2619"/>
<path d="M-20.0425 500.647C8.01771 535.131 51.2525 536.537 88.4682 526.448C131.364 514.87 175.785 485.348 216.307 440.195C262.848 387.931 286.076 316.894 323.547 275.132C362.288 231.965 412.474 197.48 459.609 202.359C509.625 207.404 554.386 263.637 588.55 312.842C622.884 362.295 645.349 424.483 706.725 459.629C747.417 483.032 797.094 429.114 851.349 407.861C864.744 402.651 878.562 399.508 892.465 397.027C927.222 390.825 956.724 382.555 981.478 354.19C993.346 340.463 1005.55 327.149 1019.12 316.315C1052.35 289.77 1088.72 266.697 1127.71 256.608C1183.07 242.467 1239.95 256.774 1291.33 308.211" stroke="url(#paint22_radial_589_2101)" stroke-opacity="0.2" stroke-width="1.2619"/>
<path d="M-20.0425 510.818C8.95023 544.558 52.0154 546.378 90.2485 535.958C133.229 524.132 178.159 494.444 220.038 449.044C268.104 396.697 289.722 323.179 326.853 281.169C365.679 237.257 417.137 201.532 464.017 207.073C513.695 212.779 555.912 269.509 588.635 320.285C621.527 371.474 643.823 434.324 703.419 467.733C744.026 490.475 796.67 444.578 852.621 423.904C866.1 418.942 880.088 415.551 893.991 412.574C928.579 405.297 956.639 393.471 980.715 364.197C992.329 350.056 1004.28 336.328 1017.76 325.412C1050.91 298.453 1087.53 275.05 1126.7 264.712C1182.05 250.24 1239.36 263.968 1291.41 316.315" stroke="url(#paint23_radial_589_2101)" stroke-opacity="0.2" stroke-width="1.2619"/>
<path d="M-20.126 520.991C9.9688 553.904 52.7797 556.302 92.03 545.386C135.095 533.395 180.449 503.542 223.854 457.893C273.446 405.463 293.284 329.465 330.16 287.207C369.071 242.55 421.886 205.668 468.427 211.787C517.68 218.237 557.355 275.381 588.636 327.728C620.257 380.571 642.213 444.165 700.199 475.838C740.636 497.918 796.248 460.043 853.894 440.03C867.543 435.234 881.53 431.678 895.433 428.205C929.852 419.77 956.555 404.305 979.953 374.286C991.313 359.649 1003.01 345.508 1016.41 334.426C1049.55 307.137 1086.34 283.32 1125.76 272.735C1181.12 258.015 1238.77 271.163 1291.41 324.42" stroke="url(#paint24_radial_589_2101)" stroke-opacity="0.2" stroke-width="1.2619"/>
<path d="M-20.126 531.162C10.9861 563.331 53.5426 566.226 93.8103 554.896C137.045 542.657 182.738 512.638 227.668 466.824C278.787 414.229 296.844 335.749 333.466 293.243C372.547 247.843 426.548 209.719 472.835 216.501C521.665 223.613 558.881 281.252 588.636 335.088C618.901 389.75 640.687 454.006 696.977 483.942C737.245 505.278 795.909 475.507 855.166 456.073C868.984 451.525 883.056 447.721 896.959 443.834C931.208 434.241 956.471 415.221 979.19 384.293C990.295 369.159 1001.74 354.77 1015.13 343.523C1048.11 315.82 1085.16 291.672 1124.83 280.839C1180.1 265.788 1238.17 278.275 1291.5 332.524" stroke="url(#paint25_radial_589_2101)" stroke-opacity="0.2" stroke-width="1.2619"/>
<path d="M-20.2114 541.334C11.9179 572.758 54.3049 576.149 95.5051 564.323C138.909 552.002 185.111 521.735 231.483 475.672C284.127 422.995 300.319 341.952 336.772 299.28C375.853 253.053 431.21 213.772 477.242 221.214C525.648 229.071 560.406 287.124 588.72 342.531C617.543 398.93 639.161 463.847 693.755 491.964C733.938 512.721 795.484 490.971 856.437 472.117C870.424 467.816 884.582 463.847 898.4 459.464C932.564 448.713 956.3 426.137 978.426 394.381C989.277 378.752 1000.47 363.949 1013.78 352.537C1046.75 324.503 1083.97 299.942 1123.81 288.86C1179.17 273.561 1237.5 285.47 1291.58 340.629" stroke="url(#paint26_radial_589_2101)" stroke-opacity="0.2" stroke-width="1.2619"/>
<path d="M-20.2114 551.506C12.9352 582.186 55.0679 585.99 97.2854 573.834C140.774 561.264 187.4 530.831 235.297 484.521C289.468 431.761 303.88 348.237 340.078 305.317C379.244 258.345 435.957 217.824 481.651 226.011C529.718 234.446 561.847 292.995 588.72 349.973C616.187 408.109 637.635 473.688 690.534 500.068C730.547 520.081 795.06 506.436 857.708 488.243C871.865 484.108 886.023 479.973 899.841 475.094C933.835 463.185 956.216 437.053 977.663 404.388C988.26 388.345 999.196 373.129 1012.42 361.634C1045.31 333.186 1082.78 308.294 1122.88 296.965C1178.24 281.335 1236.9 292.665 1291.58 348.816" stroke="url(#paint27_radial_589_2101)" stroke-opacity="0.2" stroke-width="1.2619"/>
<path d="M-20.2114 561.677C13.9525 591.613 55.8308 595.996 99.0656 583.261C142.639 570.608 189.774 539.928 239.027 493.37C294.809 440.609 307.44 354.522 343.384 311.354C382.719 263.638 440.62 221.876 486.059 230.724C533.702 239.821 563.203 298.949 588.805 357.333C614.746 417.289 636.194 483.446 687.312 508.172C727.156 527.441 794.636 521.817 858.895 504.286C873.222 500.399 887.549 496.099 901.367 490.723C935.192 477.74 956.046 447.886 976.9 414.477C987.158 397.937 997.924 382.308 1011.15 370.73C1043.87 341.869 1081.6 316.646 1121.86 304.986C1177.22 289.191 1236.31 299.859 1291.67 356.92" stroke="url(#paint28_radial_589_2101)" stroke-opacity="0.2" stroke-width="1.2619"/>
<path d="M-20.2969 571.848C14.8843 601.04 56.5931 605.919 100.845 592.771C144.589 579.87 192.062 549.024 242.842 502.218C300.149 449.374 311.085 360.806 346.605 317.307C386.11 268.93 445.282 225.927 490.467 235.438C537.686 245.278 564.729 304.82 588.804 364.775C613.389 426.467 634.667 493.204 684.09 516.276C723.849 534.8 794.212 537.198 860.166 520.328C874.662 516.689 888.989 512.141 902.807 506.352C936.547 492.294 955.961 458.802 976.137 424.565C986.14 407.53 996.652 391.486 1009.79 379.744C1042.51 350.552 1080.41 324.916 1120.93 313.09C1176.29 296.964 1235.71 306.97 1291.75 365.023" stroke="url(#paint29_radial_589_2101)" stroke-opacity="0.2" stroke-width="1.2619"/>
<path d="M-20.2969 582.02C15.9016 610.468 57.3561 615.76 102.625 602.198C146.454 589.132 194.351 558.121 246.656 511.066C305.49 458.14 314.645 367.091 349.911 323.344C389.585 274.223 450.029 229.98 494.875 240.151C541.67 250.654 566.254 310.609 588.889 372.218C612.032 435.564 633.141 502.962 680.784 524.298C720.458 542.078 793.788 552.58 861.438 536.454C876.103 532.898 890.515 528.267 904.248 521.982C937.819 506.766 955.791 469.635 975.374 434.572C985.123 417.123 995.38 400.666 1008.44 388.84C1041.07 359.235 1079.22 333.268 1119.91 321.194C1175.27 304.738 1235.12 314.165 1291.75 373.128" stroke="url(#paint30_radial_589_2101)" stroke-opacity="0.2" stroke-width="1.2619"/>
<path d="M-20.3809 592.192C52.1857 646.11 140.012 617.084 250.472 519.998C310.746 466.906 318.207 373.376 353.218 329.382C392.977 279.598 454.693 234.115 499.284 244.865C593.552 267.69 587.194 493.535 677.563 532.402C725.63 553.077 827.613 575.984 905.775 537.612C955.877 513.051 968.084 433.91 1007.16 397.855C1083.63 327.397 1192.14 277.035 1291.84 381.233" stroke="url(#paint31_radial_589_2101)" stroke-opacity="0.2" stroke-width="1.2619"/>
<path d="M-20.2969 560.602C52.1849 627.172 142.808 593.928 254.964 503.127C316.256 453.509 327.107 370.482 361.695 334.839C401.708 293.739 463.508 235.934 512.677 249.083C606.607 274.222 595.247 504.616 685.447 539.514C736.226 559.113 837.701 578.299 911.878 538.191C968.338 507.676 961.895 425.888 1003.35 383.63C1076.93 308.624 1191.63 260.826 1291.75 363.122" stroke="url(#paint32_radial_589_2101)" stroke-opacity="0.2" stroke-width="1.2619"/>
<path d="M-20.2969 529.012C52.2697 608.235 145.606 570.773 259.457 486.257C321.681 440.03 335.754 367.835 370.172 340.38C410.355 308.294 472.325 237.671 526.072 253.3C619.747 280.59 603.47 515.449 693.331 546.626C746.908 565.15 847.535 579.87 917.982 538.77C980.884 502.135 955.791 418.115 999.619 369.324C1070.58 290.348 1191.04 244.617 1291.75 344.928" stroke="url(#paint33_radial_589_2101)" stroke-opacity="0.2" stroke-width="1.2619"/>
<path d="M-20.2114 497.422C52.2703 589.298 148.404 547.536 263.951 469.388C327.108 426.633 344.232 365.438 378.65 345.838C418.748 323.014 481.057 239.325 539.467 257.518C632.887 286.628 611.779 526.035 701.215 553.738C757.675 571.187 857.03 580.946 924.001 539.349C993.347 496.347 949.773 410.425 995.89 355.018C1064.64 272.404 1190.53 228.409 1291.67 326.818" stroke="url(#paint34_radial_589_2101)" stroke-opacity="0.2" stroke-width="1.2619"/>
<path d="M-20.2114 465.832C52.3551 570.36 151.202 524.381 268.444 452.517C332.533 413.236 352.031 363.288 387.128 351.296C426.548 337.9 489.874 240.896 552.861 261.736C646.027 292.582 620.256 536.455 709.099 560.85C768.526 577.142 866.355 581.607 930.105 540.011C1005.89 490.475 943.923 402.982 992.16 340.711C1058.88 254.789 1189.94 212.118 1291.58 308.625" stroke="url(#paint35_radial_589_2101)" stroke-opacity="0.2" stroke-width="1.2619"/>
<path d="M-20.2114 434.323C52.3551 551.422 153.999 501.225 272.937 435.647C337.959 399.839 362.119 371.308 395.605 356.754C430.617 341.538 498.775 242.467 566.255 265.953C659.252 298.37 628.734 546.708 716.983 567.879C779.462 582.93 875.511 582.02 936.209 540.589C1018.27 484.438 938.074 395.539 988.43 326.487C1053.28 237.34 1189.34 195.909 1291.58 290.514" stroke="url(#paint36_radial_589_2101)" stroke-opacity="0.2" stroke-width="1.2619"/>
<path d="M-20.126 402.734C52.4406 532.485 156.797 477.988 277.431 418.777C343.385 386.36 366.613 370.399 404.083 362.212C439.688 354.522 507.592 243.956 579.65 270.171C672.562 304.076 637.381 556.715 724.868 574.991C790.398 588.719 884.582 582.269 942.313 541.168C1030.65 478.236 932.479 388.262 984.7 312.181C1047.94 219.974 1188.84 179.7 1291.5 272.321" stroke="url(#paint37_radial_589_2101)" stroke-opacity="0.2" stroke-width="1.2619"/>
<path d="M-20.126 371.143C52.4406 513.547 159.595 454.832 281.924 401.906C348.811 372.962 372.717 354.438 412.561 367.753C446.979 379.247 516.493 245.361 593.044 274.388C685.872 309.699 646.028 566.638 732.752 582.103C801.334 594.342 893.568 582.433 948.417 541.747C1042.77 471.785 926.969 381.067 980.97 297.874C1042.69 202.69 1188.24 163.491 1291.41 254.21" stroke="url(#paint38_radial_589_2101)" stroke-opacity="0.2" stroke-width="1.2619"/>
<path d="M-20.0425 339.553C52.4393 494.527 162.391 431.677 286.5 385.036C354.235 359.565 379.921 350.138 420.952 373.21C454.099 391.817 525.394 246.684 606.437 278.605C699.18 315.24 654.674 576.479 740.635 589.215C812.354 599.882 902.468 582.433 954.52 542.325C1054.81 465.169 921.542 373.872 977.154 283.567C1037.6 185.489 1187.65 147.283 1291.41 236.016" stroke="url(#paint39_radial_589_2101)" stroke-opacity="0.2" stroke-width="1.2619"/>
<path d="M-20.0425 307.963C52.5241 475.589 165.189 408.439 290.993 368.166C359.66 346.086 387.72 345.507 429.429 378.668C461.643 404.222 534.379 247.925 619.832 282.823C712.49 320.698 663.405 586.072 748.519 596.327C823.374 605.258 911.2 582.268 960.623 542.904C1066.68 458.388 916.286 366.76 973.424 269.261C1032.6 168.37 1187.14 131.074 1291.33 217.906" stroke="url(#paint40_radial_589_2101)" stroke-opacity="0.2" stroke-width="1.2619"/>
<path d="M-20.0425 276.455C52.5241 456.652 167.986 385.284 295.486 351.296C365.086 332.689 396.028 340.959 437.907 384.127C469.612 416.792 543.281 249.165 633.226 287.041C725.884 326.156 672.052 595.665 756.403 603.439C834.31 610.633 919.932 582.185 966.727 543.483C1078.29 451.276 911.115 359.731 969.694 255.037C1027.68 151.252 1186.55 114.866 1291.24 199.713" stroke="url(#paint41_radial_589_2101)" stroke-opacity="0.2" stroke-width="1.2619"/>
<path d="M-19.957 244.866C52.6095 437.715 170.784 362.13 299.98 334.426C370.512 319.293 404.676 336.576 446.385 389.668C477.751 429.528 552.352 250.324 646.621 291.259C739.279 331.532 680.7 605.093 764.287 610.551C845.331 615.761 928.579 581.938 972.831 544.145C1089.65 444 906.114 352.785 965.965 240.731C1022.85 134.135 1186.04 98.6577 1291.24 181.603" stroke="url(#paint42_radial_589_2101)" stroke-opacity="0.2" stroke-width="1.2619"/>
<path d="M-19.957 213.275C52.6095 418.776 173.582 338.891 304.473 317.555C375.938 305.895 413.408 332.275 454.862 395.125C486.059 442.428 561.338 251.398 660.015 295.558C752.673 336.906 689.347 614.437 772.171 617.662C856.352 620.887 937.226 581.772 978.935 544.724C1100.67 436.391 901.197 345.755 962.235 226.423C1018.1 117.016 1185.44 82.3656 1291.16 163.491" stroke="url(#paint43_radial_589_2101)" stroke-opacity="0.2" stroke-width="1.2619"/>
<path d="M-19.957 181.685C52.6943 399.84 176.38 315.737 308.966 300.686C381.363 292.416 422.224 328.224 463.34 400.584C494.452 455.412 570.409 252.474 673.41 299.776C766.152 342.283 698.079 627.917 780.055 624.692C867.203 621.384 945.788 581.525 985.039 545.303C1111.44 428.535 896.45 338.809 958.504 212.118C1013.44 99.8982 1184.85 66.1579 1291.16 145.299" stroke="url(#paint44_radial_589_2101)" stroke-opacity="0.2" stroke-width="1.2619"/>
<path d="M-19.873 150.095C52.6935 380.902 179.176 292.582 313.458 283.816C386.788 279.019 431.125 324.255 471.816 406.042C502.843 468.478 579.564 253.466 686.803 303.994C779.631 347.658 706.725 635.856 787.938 631.804C878.138 627.421 954.265 581.194 991.057 545.882C1121.78 420.266 891.702 331.945 954.689 197.894C1008.77 82.7798 1184.34 49.9492 1291.07 127.188" stroke="url(#paint45_radial_589_2101)" stroke-opacity="0.2" stroke-width="1.2619"/>
<path d="M-19.873 118.587C52.6935 361.964 181.974 269.343 317.951 266.945C392.213 265.622 439.941 320.284 480.294 411.499C511.321 481.709 588.635 254.458 700.197 308.211C793.11 352.95 715.118 642.058 795.822 638.915C889.159 635.277 962.743 580.945 997.161 546.46C1131.61 411.664 887.124 324.998 950.959 183.587C1004.2 65.661 1183.75 33.74 1290.99 108.994" stroke="url(#paint46_radial_589_2101)" stroke-opacity="0.2" stroke-width="1.2619"/>
<path d="M-19.7876 86.9971C52.7789 343.026 184.772 246.188 322.445 250.075C397.64 252.225 448.758 316.481 488.772 417.04C519.714 494.94 597.791 255.285 713.592 312.429C806.589 358.243 723.68 651.155 803.707 646.028C900.01 639.825 971.136 580.697 1003.26 547.039C1140.94 402.734 882.632 318.135 947.229 169.28C999.62 48.5431 1183.24 17.5318 1290.99 90.8838" stroke="url(#paint47_radial_589_2101)" stroke-opacity="0.2" stroke-width="1.2619"/>
<mask id="mask1_589_2101" style="mask-type:luminance" maskUnits="userSpaceOnUse" x="1141" y="543" width="262" height="256">
<path d="M1402.54 670.895C1402.54 600.569 1344.1 543.55 1272 543.55C1199.9 543.55 1141.46 600.569 1141.46 670.895C1141.46 741.228 1199.9 798.239 1272 798.239C1344.1 798.239 1402.54 741.228 1402.54 670.895Z" fill="white"/>
</mask>
<g mask="url(#mask1_589_2101)">
<path d="M1081.77 575.487L1387.8 495.519" stroke="#C8A7D9" stroke-opacity="0.18" stroke-width="1.2619"/>
<path d="M1086.18 591.448L1392.21 511.397" stroke="#C8A7D9" stroke-opacity="0.18" stroke-width="1.2619"/>
<path d="M1090.58 607.326L1396.53 527.358" stroke="#C8A7D9" stroke-opacity="0.18" stroke-width="1.2619"/>
<path d="M1094.91 623.286L1400.94 543.318" stroke="#C8A7D9" stroke-opacity="0.18" stroke-width="1.2619"/>
<path d="M1099.32 639.164L1405.35 559.196" stroke="#C8A7D9" stroke-opacity="0.18" stroke-width="1.2619"/>
<path d="M1103.72 655.124L1409.67 575.156" stroke="#C8A7D9" stroke-opacity="0.18" stroke-width="1.2619"/>
<path d="M1108.05 671.085L1414.08 591.117" stroke="#C8A7D9" stroke-opacity="0.18" stroke-width="1.2619"/>
<path d="M1112.46 686.963L1418.4 606.995" stroke="#C8A7D9" stroke-opacity="0.18" stroke-width="1.2619"/>
<path d="M1116.78 702.923L1422.81 622.955" stroke="#C8A7D9" stroke-opacity="0.18" stroke-width="1.2619"/>
<path d="M1121.19 718.883L1427.22 638.833" stroke="#C8A7D9" stroke-opacity="0.18" stroke-width="1.2619"/>
<path d="M1125.6 734.761L1431.54 654.794" stroke="#C8A7D9" stroke-opacity="0.18" stroke-width="1.2619"/>
<path d="M1129.92 750.722L1435.95 670.754" stroke="#C8A7D9" stroke-opacity="0.18" stroke-width="1.2619"/>
<path d="M1134.33 766.682L1440.28 686.631" stroke="#C8A7D9" stroke-opacity="0.18" stroke-width="1.2619"/>
<path d="M1138.65 782.56L1444.69 702.592" stroke="#C8A7D9" stroke-opacity="0.18" stroke-width="1.2619"/>
<path d="M1143.06 798.52L1449.09 718.553" stroke="#C8A7D9" stroke-opacity="0.18" stroke-width="1.2619"/>
<path d="M1147.47 814.398L1453.42 734.43" stroke="#C8A7D9" stroke-opacity="0.18" stroke-width="1.2619"/>
<path d="M1151.79 830.359L1457.82 750.391" stroke="#C8A7D9" stroke-opacity="0.18" stroke-width="1.2619"/>
<path d="M1156.2 846.319L1462.23 766.351" stroke="#C8A7D9" stroke-opacity="0.18" stroke-width="1.2619"/>
</g>
<mask id="mask2_589_2101" style="mask-type:luminance" maskUnits="userSpaceOnUse" x="-143" y="699" width="262" height="256">
<path d="M118.112 826.969C118.112 756.636 59.6692 699.624 -12.4311 699.624C-84.5314 699.624 -142.975 756.636 -142.975 826.969C-142.975 897.303 -84.5314 954.314 -12.4311 954.314C59.6692 954.314 118.112 897.303 118.112 826.969Z" fill="white"/>
</mask>
<g mask="url(#mask2_589_2101)">
<path d="M-202.646 731.537L103.389 651.569" stroke="#C8A7D9" stroke-opacity="0.18" stroke-width="1.2619"/>
<path d="M-198.237 747.497L107.713 667.529" stroke="#C8A7D9" stroke-opacity="0.18" stroke-width="1.2619"/>
<path d="M-193.914 763.375L112.12 683.407" stroke="#C8A7D9" stroke-opacity="0.18" stroke-width="1.2619"/>
<path d="M-189.505 779.336L116.529 699.368" stroke="#C8A7D9" stroke-opacity="0.18" stroke-width="1.2619"/>
<path d="M-185.097 795.296L120.852 715.328" stroke="#C8A7D9" stroke-opacity="0.18" stroke-width="1.2619"/>
<path d="M-180.774 811.174L125.26 731.206" stroke="#C8A7D9" stroke-opacity="0.18" stroke-width="1.2619"/>
<path d="M-176.366 827.134L129.668 747.167" stroke="#C8A7D9" stroke-opacity="0.18" stroke-width="1.2619"/>
<path d="M-171.957 843.095L133.992 763.045" stroke="#C8A7D9" stroke-opacity="0.18" stroke-width="1.2619"/>
<path d="M-167.634 858.973L138.4 779.005" stroke="#C8A7D9" stroke-opacity="0.18" stroke-width="1.2619"/>
<path d="M-163.226 874.933L142.724 794.965" stroke="#C8A7D9" stroke-opacity="0.18" stroke-width="1.2619"/>
<path d="M-158.903 890.894L147.131 810.843" stroke="#C8A7D9" stroke-opacity="0.18" stroke-width="1.2619"/>
<path d="M-154.494 906.771L151.54 826.804" stroke="#C8A7D9" stroke-opacity="0.18" stroke-width="1.2619"/>
</g>
<mask id="mask3_589_2101" style="mask-type:luminance" maskUnits="userSpaceOnUse" x="420" y="-128" width="262" height="256">
<path d="M681.556 3.05176e-05C681.556 -70.3336 623.105 -127.345 551.013 -127.345C478.912 -127.345 420.469 -70.3336 420.469 3.05176e-05C420.469 70.3337 478.912 127.345 551.013 127.345C623.105 127.345 681.556 70.3337 681.556 3.05176e-05Z" fill="white"/>
</mask>
<g mask="url(#mask3_589_2101)">
<path d="M387.041 0.164565L693.075 -79.8033" stroke="#C8A7D9" stroke-opacity="0.18" stroke-width="1.2619"/>
<path d="M391.449 16.1254L697.483 -63.9251" stroke="#C8A7D9" stroke-opacity="0.18" stroke-width="1.2619"/>
<path d="M395.857 32.003L701.807 -47.9648" stroke="#C8A7D9" stroke-opacity="0.18" stroke-width="1.2619"/>
<path d="M400.182 47.9633L706.216 -32.0045L400.182 47.9633Z" fill="#F0E1F7" fill-opacity="0.44"/>
<path d="M400.182 47.9633L706.216 -32.0045" stroke="#C8A7D9" stroke-opacity="0.18" stroke-width="1.2619"/>
<path d="M404.589 63.9242L710.538 -16.1264" stroke="#C8A7D9" stroke-opacity="0.18" stroke-width="1.2619"/>
<path d="M408.914 79.8018L714.948 -0.166061" stroke="#C8A7D9" stroke-opacity="0.18" stroke-width="1.2619"/>
<path d="M413.32 95.7621L719.354 15.7942" stroke="#C8A7D9" stroke-opacity="0.18" stroke-width="1.2619"/>
<path d="M417.73 111.64L723.68 31.6724" stroke="#C8A7D9" stroke-opacity="0.18" stroke-width="1.2619"/>
<path d="M422.052 127.601L728.086 47.6327" stroke="#C8A7D9" stroke-opacity="0.18" stroke-width="1.2619"/>
<path d="M426.462 143.561L732.496 63.593" stroke="#C8A7D9" stroke-opacity="0.18" stroke-width="1.2619"/>
<path d="M430.869 159.439L736.818 79.4711" stroke="#C8A7D9" stroke-opacity="0.18" stroke-width="1.2619"/>
<path d="M435.193 175.399L741.228 95.4315L435.193 175.399Z" fill="white"/>
<path d="M435.193 175.399L741.228 95.4315" stroke="#C8A7D9" stroke-opacity="0.18" stroke-width="1.2619"/>
</g>
</g>
</g>
<defs>
<radialGradient id="paint0_radial_589_2101" cx="0" cy="0" r="1" gradientUnits="userSpaceOnUse" gradientTransform="translate(635.515 432.257) scale(457.78 446.563)">
<stop stop-color="#9418EC"/>
<stop offset="1" stop-color="#2B0340"/>
</radialGradient>
<radialGradient id="paint1_radial_589_2101" cx="0" cy="0" r="1" gradientUnits="userSpaceOnUse" gradientTransform="translate(635.43 451.938) scale(457.78 446.563)">
<stop stop-color="#9418EC"/>
<stop offset="1" stop-color="#2B0340"/>
</radialGradient>
<radialGradient id="paint2_radial_589_2101" cx="0" cy="0" r="1" gradientUnits="userSpaceOnUse" gradientTransform="translate(635.345 471.62) scale(457.949 446.728)">
<stop stop-color="#9418EC"/>
<stop offset="1" stop-color="#2B0340"/>
</radialGradient>
<radialGradient id="paint3_radial_589_2101" cx="0" cy="0" r="1" gradientUnits="userSpaceOnUse" gradientTransform="translate(635.345 491.219) scale(458.119 446.894)">
<stop stop-color="#9418EC"/>
<stop offset="1" stop-color="#2B0340"/>
</radialGradient>
<radialGradient id="paint4_radial_589_2101" cx="0" cy="0" r="1" gradientUnits="userSpaceOnUse" gradientTransform="translate(635.345 510.653) scale(458.373 447.142)">
<stop stop-color="#9418EC"/>
<stop offset="1" stop-color="#2B0340"/>
</radialGradient>
<radialGradient id="paint5_radial_589_2101" cx="0" cy="0" r="1" gradientUnits="userSpaceOnUse" gradientTransform="translate(635.345 530.17) scale(458.543 447.307)">
<stop stop-color="#9418EC"/>
<stop offset="1" stop-color="#2B0340"/>
</radialGradient>
<radialGradient id="paint6_radial_589_2101" cx="0" cy="0" r="1" gradientUnits="userSpaceOnUse" gradientTransform="translate(635.345 549.603) scale(458.712 447.473)">
<stop stop-color="#9418EC"/>
<stop offset="1" stop-color="#2B0340"/>
</radialGradient>
<radialGradient id="paint7_radial_589_2101" cx="0" cy="0" r="1" gradientUnits="userSpaceOnUse" gradientTransform="translate(635.345 565.15) scale(459.221 447.969)">
<stop stop-color="#9418EC"/>
<stop offset="1" stop-color="#2B0340"/>
</radialGradient>
<radialGradient id="paint8_radial_589_2101" cx="0" cy="0" r="1" gradientUnits="userSpaceOnUse" gradientTransform="translate(635.345 563.662) scale(459.814 448.548)">
<stop stop-color="#9418EC"/>
<stop offset="1" stop-color="#2B0340"/>
</radialGradient>
<radialGradient id="paint9_radial_589_2101" cx="0" cy="0" r="1" gradientUnits="userSpaceOnUse" gradientTransform="translate(635.345 558.7) scale(460.747 449.457)">
<stop stop-color="#9418EC"/>
<stop offset="1" stop-color="#2B0340"/>
</radialGradient>
<radialGradient id="paint10_radial_589_2101" cx="0" cy="0" r="1" gradientUnits="userSpaceOnUse" gradientTransform="translate(635.345 554.069) scale(461.849 450.532)">
<stop stop-color="#9418EC"/>
<stop offset="1" stop-color="#2B0340"/>
</radialGradient>
<radialGradient id="paint11_radial_589_2101" cx="0" cy="0" r="1" gradientUnits="userSpaceOnUse" gradientTransform="translate(635.345 549.686) scale(463.036 451.69)">
<stop stop-color="#9418EC"/>
<stop offset="1" stop-color="#2B0340"/>
</radialGradient>
<radialGradient id="paint12_radial_589_2101" cx="0" cy="0" r="1" gradientUnits="userSpaceOnUse" gradientTransform="translate(635.345 545.634) scale(464.392 453.013)">
<stop stop-color="#9418EC"/>
<stop offset="1" stop-color="#2B0340"/>
</radialGradient>
<radialGradient id="paint13_radial_589_2101" cx="0" cy="0" r="1" gradientUnits="userSpaceOnUse" gradientTransform="translate(635.345 541.912) scale(465.918 454.502)">
<stop stop-color="#9418EC"/>
<stop offset="1" stop-color="#2B0340"/>
</radialGradient>
<radialGradient id="paint14_radial_589_2101" cx="0" cy="0" r="1" gradientUnits="userSpaceOnUse" gradientTransform="translate(635.345 538.604) scale(467.613 456.156)">
<stop stop-color="#9418EC"/>
<stop offset="1" stop-color="#2B0340"/>
</radialGradient>
<radialGradient id="paint15_radial_589_2101" cx="0" cy="0" r="1" gradientUnits="userSpaceOnUse" gradientTransform="translate(635.6 316.729) scale(469.563 458.058)">
<stop stop-color="#9418EC"/>
<stop offset="1" stop-color="#2B0340"/>
</radialGradient>
<radialGradient id="paint16_radial_589_2101" cx="0" cy="0" r="1" gradientUnits="userSpaceOnUse" gradientTransform="translate(635.6 323.923) scale(469.818 458.306)">
<stop stop-color="#9418EC"/>
<stop offset="1" stop-color="#2B0340"/>
</radialGradient>
<radialGradient id="paint17_radial_589_2101" cx="0" cy="0" r="1" gradientUnits="userSpaceOnUse" gradientTransform="translate(635.6 331.118) scale(470.072 458.554)">
<stop stop-color="#9418EC"/>
<stop offset="1" stop-color="#2B0340"/>
</radialGradient>
<radialGradient id="paint18_radial_589_2101" cx="0" cy="0" r="1" gradientUnits="userSpaceOnUse" gradientTransform="translate(635.6 338.313) scale(470.326 458.802)">
<stop stop-color="#9418EC"/>
<stop offset="1" stop-color="#2B0340"/>
</radialGradient>
<radialGradient id="paint19_radial_589_2101" cx="0" cy="0" r="1" gradientUnits="userSpaceOnUse" gradientTransform="translate(635.6 345.425) scale(470.58 459.05)">
<stop stop-color="#9418EC"/>
<stop offset="1" stop-color="#2B0340"/>
</radialGradient>
<radialGradient id="paint20_radial_589_2101" cx="0" cy="0" r="1" gradientUnits="userSpaceOnUse" gradientTransform="translate(635.6 352.62) scale(470.835 459.298)">
<stop stop-color="#9418EC"/>
<stop offset="1" stop-color="#2B0340"/>
</radialGradient>
<radialGradient id="paint21_radial_589_2101" cx="0" cy="0" r="1" gradientUnits="userSpaceOnUse" gradientTransform="translate(635.6 359.731) scale(471.089 459.546)">
<stop stop-color="#9418EC"/>
<stop offset="1" stop-color="#2B0340"/>
</radialGradient>
<radialGradient id="paint22_radial_589_2101" cx="0" cy="0" r="1" gradientUnits="userSpaceOnUse" gradientTransform="translate(635.684 366.926) scale(471.343 459.794)">
<stop stop-color="#9418EC"/>
<stop offset="1" stop-color="#2B0340"/>
</radialGradient>
<radialGradient id="paint23_radial_589_2101" cx="0" cy="0" r="1" gradientUnits="userSpaceOnUse" gradientTransform="translate(635.685 374.038) scale(471.598 460.042)">
<stop stop-color="#9418EC"/>
<stop offset="1" stop-color="#2B0340"/>
</radialGradient>
<radialGradient id="paint24_radial_589_2101" cx="0" cy="0" r="1" gradientUnits="userSpaceOnUse" gradientTransform="translate(635.686 381.15) scale(471.852 460.291)">
<stop stop-color="#9418EC"/>
<stop offset="1" stop-color="#2B0340"/>
</radialGradient>
<radialGradient id="paint25_radial_589_2101" cx="0" cy="0" r="1" gradientUnits="userSpaceOnUse" gradientTransform="translate(635.686 388.345) scale(472.106 460.539)">
<stop stop-color="#9418EC"/>
<stop offset="1" stop-color="#2B0340"/>
</radialGradient>
<radialGradient id="paint26_radial_589_2101" cx="0" cy="0" r="1" gradientUnits="userSpaceOnUse" gradientTransform="translate(635.685 395.457) scale(472.446 460.869)">
<stop stop-color="#9418EC"/>
<stop offset="1" stop-color="#2B0340"/>
</radialGradient>
<radialGradient id="paint27_radial_589_2101" cx="0" cy="0" r="1" gradientUnits="userSpaceOnUse" gradientTransform="translate(635.685 402.569) scale(472.7 461.118)">
<stop stop-color="#9418EC"/>
<stop offset="1" stop-color="#2B0340"/>
</radialGradient>
<radialGradient id="paint28_radial_589_2101" cx="0" cy="0" r="1" gradientUnits="userSpaceOnUse" gradientTransform="translate(635.685 409.763) scale(472.954 461.366)">
<stop stop-color="#9418EC"/>
<stop offset="1" stop-color="#2B0340"/>
</radialGradient>
<radialGradient id="paint29_radial_589_2101" cx="0" cy="0" r="1" gradientUnits="userSpaceOnUse" gradientTransform="translate(635.684 416.874) scale(473.293 461.696)">
<stop stop-color="#9418EC"/>
<stop offset="1" stop-color="#2B0340"/>
</radialGradient>
<radialGradient id="paint30_radial_589_2101" cx="0" cy="0" r="1" gradientUnits="userSpaceOnUse" gradientTransform="translate(635.769 423.986) scale(473.548 461.944)">
<stop stop-color="#9418EC"/>
<stop offset="1" stop-color="#2B0340"/>
</radialGradient>
<radialGradient id="paint31_radial_589_2101" cx="0" cy="0" r="1" gradientUnits="userSpaceOnUse" gradientTransform="translate(635.77 431.099) scale(473.887 462.275)">
<stop stop-color="#9418EC"/>
<stop offset="1" stop-color="#2B0340"/>
</radialGradient>
<radialGradient id="paint32_radial_589_2101" cx="0" cy="0" r="1" gradientUnits="userSpaceOnUse" gradientTransform="translate(635.769 421.423) scale(472.446 460.869)">
<stop stop-color="#9418EC"/>
<stop offset="1" stop-color="#2B0340"/>
</radialGradient>
<radialGradient id="paint33_radial_589_2101" cx="0" cy="0" r="1" gradientUnits="userSpaceOnUse" gradientTransform="translate(635.684 411.83) scale(471.174 459.629)">
<stop stop-color="#9418EC"/>
<stop offset="1" stop-color="#2B0340"/>
</radialGradient>
<radialGradient id="paint34_radial_589_2101" cx="0" cy="0" r="1" gradientUnits="userSpaceOnUse" gradientTransform="translate(635.685 411.831) scale(470.75 459.216)">
<stop stop-color="#9418EC"/>
<stop offset="1" stop-color="#2B0340"/>
</radialGradient>
<radialGradient id="paint35_radial_589_2101" cx="0" cy="0" r="1" gradientUnits="userSpaceOnUse" gradientTransform="translate(635.685 413.071) scale(471.004 459.464)">
<stop stop-color="#9418EC"/>
<stop offset="1" stop-color="#2B0340"/>
</radialGradient>
<radialGradient id="paint36_radial_589_2101" cx="0" cy="0" r="1" gradientUnits="userSpaceOnUse" gradientTransform="translate(635.685 406.703) scale(471.937 460.373)">
<stop stop-color="#9418EC"/>
<stop offset="1" stop-color="#2B0340"/>
</radialGradient>
<radialGradient id="paint37_radial_589_2101" cx="0" cy="0" r="1" gradientUnits="userSpaceOnUse" gradientTransform="translate(635.686 400.666) scale(472.954 461.366)">
<stop stop-color="#9418EC"/>
<stop offset="1" stop-color="#2B0340"/>
</radialGradient>
<radialGradient id="paint38_radial_589_2101" cx="0" cy="0" r="1" gradientUnits="userSpaceOnUse" gradientTransform="translate(635.686 394.794) scale(474.056 462.441)">
<stop stop-color="#9418EC"/>
<stop offset="1" stop-color="#2B0340"/>
</radialGradient>
<radialGradient id="paint39_radial_589_2101" cx="0" cy="0" r="1" gradientUnits="userSpaceOnUse" gradientTransform="translate(635.684 389.254) scale(475.243 463.598)">
<stop stop-color="#9418EC"/>
<stop offset="1" stop-color="#2B0340"/>
</radialGradient>
<radialGradient id="paint40_radial_589_2101" cx="0" cy="0" r="1" gradientUnits="userSpaceOnUse" gradientTransform="translate(635.684 383.796) scale(476.599 464.922)">
<stop stop-color="#9418EC"/>
<stop offset="1" stop-color="#2B0340"/>
</radialGradient>
<radialGradient id="paint41_radial_589_2101" cx="0" cy="0" r="1" gradientUnits="userSpaceOnUse" gradientTransform="translate(635.6 378.503) scale(477.956 466.245)">
<stop stop-color="#9418EC"/>
<stop offset="1" stop-color="#2B0340"/>
</radialGradient>
<radialGradient id="paint42_radial_589_2101" cx="0" cy="0" r="1" gradientUnits="userSpaceOnUse" gradientTransform="translate(635.6 373.377) scale(479.397 467.651)">
<stop stop-color="#9418EC" stop-opacity="0.53"/>
<stop offset="1" stop-color="#2B0340" stop-opacity="0.53"/>
</radialGradient>
<radialGradient id="paint43_radial_589_2101" cx="0" cy="0" r="1" gradientUnits="userSpaceOnUse" gradientTransform="translate(635.6 368.331) scale(480.923 469.139)">
<stop stop-color="#9418EC" stop-opacity="0.53"/>
<stop offset="1" stop-color="#2B0340"/>
<stop offset="1" stop-color="#2B0340" stop-opacity="0.53"/>
</radialGradient>
<radialGradient id="paint44_radial_589_2101" cx="0" cy="0" r="1" gradientUnits="userSpaceOnUse" gradientTransform="translate(635.6 363.453) scale(482.618 470.793)">
<stop stop-color="#9418EC"/>
<stop offset="1" stop-color="#2B0340"/>
</radialGradient>
<radialGradient id="paint45_radial_589_2101" cx="0" cy="0" r="1" gradientUnits="userSpaceOnUse" gradientTransform="translate(635.6 358.574) scale(484.314 472.447)">
<stop stop-color="#9418EC"/>
<stop offset="1" stop-color="#2B0340"/>
</radialGradient>
<radialGradient id="paint46_radial_589_2101" cx="0" cy="0" r="1" gradientUnits="userSpaceOnUse" gradientTransform="translate(635.6 353.694) scale(486.094 474.184)">
<stop stop-color="#9418EC"/>
<stop offset="1" stop-color="#2B0340"/>
</radialGradient>
<radialGradient id="paint47_radial_589_2101" cx="0" cy="0" r="1" gradientUnits="userSpaceOnUse" gradientTransform="translate(635.6 348.815) scale(487.959 476.003)">
<stop stop-color="#9418EC"/>
<stop offset="1" stop-color="#2B0340"/>
</radialGradient>
</defs>
</svg>
